  0
SECTION
  2
HEADER
  9
$ACADVER
  1
AC1015
  9
$ACADMAINTVER
 70
     6
  9
$DWGCODEPAGE
  3
ANSI_1252
  9
$INSBASE
 10
0.0
 20
0.0
 30
0.0
  9
$EXTMIN
 10
-5.0491323533
 20
-13.166776102
 30
0.0
  9
$EXTMAX
 10
17.2104047061
 20
13.1214904143
 30
0.0
  9
$LIMMIN
 10
0.0
 20
0.0
  9
$LIMMAX
 10
12.0
 20
9.0
  9
$ORTHOMODE
 70
     0
  9
$REGENMODE
 70
     1
  9
$FILLMODE
 70
     1
  9
$QTEXTMODE
 70
     0
  9
$MIRRTEXT
 70
     1
  9
$LTSCALE
 40
1.0
  9
$ATTMODE
 70
     1
  9
$TEXTSIZE
 40
0.125
  9
$TRACEWID
 40
0.05
  9
$TEXTSTYLE
  7
Standard
  9
$CLAYER
  8
0
  9
$CELTYPE
  6
ByLayer
  9
$CECOLOR
 62
   256
  9
$CELTSCALE
 40
1.0
  9
$DISPSILH
 70
     0
  9
$DIMSCALE
 40
1.0
  9
$DIMASZ
 40
0.13
  9
$DIMEXO
 40
0.0
  9
$DIMDLI
 40
0.38
  9
$DIMRND
 40
0.0
  9
$DIMDLE
 40
0.0
  9
$DIMEXE
 40
0.125
  9
$DIMTP
 40
0.0
  9
$DIMTM
 40
0.0
  9
$DIMTXT
 40
0.125
  9
$DIMCEN
 40
0.09
  9
$DIMTSZ
 40
0.0
  9
$DIMTOL
 70
     0
  9
$DIMLIM
 70
     0
  9
$DIMTIH
 70
     1
  9
$DIMTOH
 70
     1
  9
$DIMSE1
 70
     0
  9
$DIMSE2
 70
     0
  9
$DIMTAD
 70
     0
  9
$DIMZIN
 70
     1
  9
$DIMBLK
  1

  9
$DIMASO
 70
     1
  9
$DIMSHO
 70
     1
  9
$DIMPOST
  1

  9
$DIMAPOST
  1

  9
$DIMALT
 70
     0
  9
$DIMALTD
 70
     2
  9
$DIMALTF
 40
25.4
  9
$DIMLFAC
 40
1.0
  9
$DIMTOFL
 70
     0
  9
$DIMTVP
 40
0.0
  9
$DIMTIX
 70
     0
  9
$DIMSOXD
 70
     0
  9
$DIMSAH
 70
     0
  9
$DIMBLK1
  1

  9
$DIMBLK2
  1

  9
$DIMSTYLE
  2
Standard
  9
$DIMCLRD
 70
     0
  9
$DIMCLRE
 70
     0
  9
$DIMCLRT
 70
     0
  9
$DIMTFAC
 40
1.0
  9
$DIMGAP
 40
0.06
  9
$DIMJUST
 70
     0
  9
$DIMSD1
 70
     0
  9
$DIMSD2
 70
     0
  9
$DIMTOLJ
 70
     1
  9
$DIMTZIN
 70
     1
  9
$DIMALTZ
 70
     0
  9
$DIMALTTZ
 70
     0
  9
$DIMUPT
 70
     0
  9
$DIMDEC
 70
     2
  9
$DIMTDEC
 70
     2
  9
$DIMALTU
 70
     2
  9
$DIMALTTD
 70
     2
  9
$DIMTXSTY
  7
Standard
  9
$DIMAUNIT
 70
     0
  9
$DIMADEC
 70
     2
  9
$DIMALTRND
 40
0.0
  9
$DIMAZIN
 70
     0
  9
$DIMDSEP
 70
    46
  9
$DIMATFIT
 70
     3
  9
$DIMFRAC
 70
     0
  9
$DIMLDRBLK
  1

  9
$DIMLUNIT
 70
     2
  9
$DIMLWD
 70
    -2
  9
$DIMLWE
 70
    -2
  9
$DIMTMOVE
 70
     0
  9
$LUNITS
 70
     2
  9
$LUPREC
 70
     2
  9
$SKETCHINC
 40
0.1
  9
$FILLETRAD
 40
0.0
  9
$AUNITS
 70
     0
  9
$AUPREC
 70
     2
  9
$MENU
  1
.
  9
$ELEVATION
 40
0.0
  9
$PELEVATION
 40
0.0
  9
$THICKNESS
 40
0.0
  9
$LIMCHECK
 70
     0
  9
$CHAMFERA
 40
0.0
  9
$CHAMFERB
 40
0.0
  9
$CHAMFERC
 40
0.0
  9
$CHAMFERD
 40
0.0
  9
$SKPOLY
 70
     0
  9
$TDCREATE
 40
2461059.753867998
  9
$TDUCREATE
 40
2461059.545534664
  9
$TDUPDATE
 40
2461059.754026736
  9
$TDUUPDATE
 40
2461059.545693403
  9
$TDINDWG
 40
0.0000000116
  9
$TDUSRTIMER
 40
0.0000000116
  9
$USRTIMER
 70
     1
  9
$ANGBASE
 50
0.0
  9
$ANGDIR
 70
     0
  9
$PDMODE
 70
     0
  9
$PDSIZE
 40
-1.0
  9
$PLINEWID
 40
0.0
  9
$SPLFRAME
 70
     0
  9
$SPLINETYPE
 70
     6
  9
$SPLINESEGS
 70
     8
  9
$HANDSEED
  5
245
  9
$SURFTAB1
 70
     6
  9
$SURFTAB2
 70
     6
  9
$SURFTYPE
 70
     6
  9
$SURFU
 70
     6
  9
$SURFV
 70
     6
  9
$UCSBASE
  2

  9
$UCSNAME
  2

  9
$UCSORG
 10
0.0
 20
0.0
 30
0.0
  9
$UCSXDIR
 10
1.0
 20
0.0
 30
0.0
  9
$UCSYDIR
 10
0.0
 20
1.0
 30
0.0
  9
$UCSORTHOREF
  2

  9
$UCSORTHOVIEW
 70
     0
  9
$UCSORGTOP
 10
0.0
 20
0.0
 30
0.0
  9
$UCSORGBOTTOM
 10
0.0
 20
0.0
 30
0.0
  9
$UCSORGLEFT
 10
0.0
 20
0.0
 30
0.0
  9
$UCSORGRIGHT
 10
0.0
 20
0.0
 30
0.0
  9
$UCSORGFRONT
 10
0.0
 20
0.0
 30
0.0
  9
$UCSORGBACK
 10
0.0
 20
0.0
 30
0.0
  9
$PUCSBASE
  2

  9
$PUCSNAME
  2

  9
$PUCSORG
 10
0.0
 20
0.0
 30
0.0
  9
$PUCSXDIR
 10
1.0
 20
0.0
 30
0.0
  9
$PUCSYDIR
 10
0.0
 20
1.0
 30
0.0
  9
$PUCSORTHOREF
  2

  9
$PUCSORTHOVIEW
 70
     0
  9
$PUCSORGTOP
 10
0.0
 20
0.0
 30
0.0
  9
$PUCSORGBOTTOM
 10
0.0
 20
0.0
 30
0.0
  9
$PUCSORGLEFT
 10
0.0
 20
0.0
 30
0.0
  9
$PUCSORGRIGHT
 10
0.0
 20
0.0
 30
0.0
  9
$PUCSORGFRONT
 10
0.0
 20
0.0
 30
0.0
  9
$PUCSORGBACK
 10
0.0
 20
0.0
 30
0.0
  9
$USERI1
 70
     0
  9
$USERI2
 70
     0
  9
$USERI3
 70
     0
  9
$USERI4
 70
     0
  9
$USERI5
 70
     0
  9
$USERR1
 40
0.0
  9
$USERR2
 40
0.0
  9
$USERR3
 40
0.0
  9
$USERR4
 40
0.0
  9
$USERR5
 40
0.0
  9
$WORLDVIEW
 70
     1
  9
$SHADEDGE
 70
     3
  9
$SHADEDIF
 70
    70
  9
$TILEMODE
 70
     1
  9
$MAXACTVP
 70
    64
  9
$PINSBASE
 10
0.0
 20
0.0
 30
0.0
  9
$PLIMCHECK
 70
     0
  9
$PEXTMIN
 10
-10.5
 20
-10.5
 30
0.0
  9
$PEXTMAX
 10
10.5
 20
10.5
 30
0.0
  9
$PLIMMIN
 10
-11.1562510658
 20
-11.1562500323
  9
$PLIMMAX
 10
17.7187503553
 20
11.1562510658
  9
$UNITMODE
 70
     0
  9
$VISRETAIN
 70
     1
  9
$PLINEGEN
 70
     0
  9
$PSLTSCALE
 70
     1
  9
$TREEDEPTH
 70
  3020
  9
$CMLSTYLE
  2
Standard
  9
$CMLJUST
 70
     0
  9
$CMLSCALE
 40
1.0
  9
$PROXYGRAPHICS
 70
     1
  9
$MEASUREMENT
 70
     0
  9
$CELWEIGHT
370
    -1
  9
$ENDCAPS
280
     0
  9
$JOINSTYLE
280
     0
  9
$LWDISPLAY
290
     1
  9
$INSUNITS
 70
     1
  9
$HYPERLINKBASE
  1

  9
$STYLESHEET
  1

  9
$XEDIT
290
     1
  9
$CEPSNTYPE
380
     0
  9
$PSTYLEMODE
290
     1
  9
$FINGERPRINTGUID
  2
{061c59df-a641-49d3-aff1-5c783ef45f85}
  9
$VERSIONGUID
  2
{FAEB1C32-E019-11D5-929B-00C0DF256EC4}
  9
$EXTNAMES
290
     1
  9
$PSVPSCALE
 40
0.0
  9
$OLESTARTUP
290
     0
  0
ENDSEC
  0
SECTION
  2
CLASSES
  0
CLASS
  1
ACDBDICTIONARYWDFLT
  2
AcDbDictionaryWithDefault
  3
ObjectDBX Classes
 90
        0
280
     0
281
     0
  0
CLASS
  1
VISUALSTYLE
  2
AcDbVisualStyle
  3
ObjectDBX Classes
 90
     4095
280
     0
281
     0
  0
CLASS
  1
MATERIAL
  2
AcDbMaterial
  3
ObjectDBX Classes
 90
     1153
280
     0
281
     0
  0
CLASS
  1
SCALE
  2
AcDbScale
  3
ObjectDBX Classes
 90
     1153
280
     0
281
     0
  0
CLASS
  1
TABLESTYLE
  2
AcDbTableStyle
  3
ObjectDBX Classes
 90
     4095
280
     0
281
     0
  0
CLASS
  1
MLEADERSTYLE
  2
AcDbMLeaderStyle
  3
ACDB_MLEADERSTYLE_CLASS
 90
     4095
280
     0
281
     0
  0
CLASS
  1
SUN
  2
AcDbSun
  3
SCENEOE
 90
     1153
280
     0
281
     0
  0
CLASS
  1
ACDBPLACEHOLDER
  2
AcDbPlaceHolder
  3
ObjectDBX Classes
 90
        0
280
     0
281
     0
  0
CLASS
  1
LAYOUT
  2
AcDbLayout
  3
ObjectDBX Classes
 90
        0
280
     0
281
     0
  0
ENDSEC
  0
SECTION
  2
TABLES
  0
TABLE
  2
VPORT
  5
8
330
0
100
AcDbSymbolTable
 70
     1
  0
VPORT
  5
29
330
8
100
AcDbSymbolTableRecord
100
AcDbViewportTableRecord
  2
*Active
 70
     0
 10
0.0
 20
0.0
 11
1.0
 21
1.0
 12
6.0806361764
 22
-0.0226428438
 13
0.0
 23
0.0
 14
0.5
 24
0.5
 15
0.5
 25
0.5
 16
0.0
 26
0.0
 36
1.0
 17
0.0
 27
0.0
 37
0.0
 40
26.8140318466
 41
0.8467479986
 42
50.0
 43
0.0
 44
0.0
 50
0.0
 51
0.0
 71
     0
 72
   100
 73
     1
 74
     3
 75
     0
 76
     0
 77
     0
 78
     0
281
     0
 65
     1
110
0.0
120
0.0
130
0.0
111
1.0
121
0.0
131
0.0
112
0.0
122
1.0
132
0.0
 79
     0
146
0.0
  0
ENDTAB
  0
TABLE
  2
LTYPE
  5
5
330
0
100
AcDbSymbolTable
 70
     6
  0
LTYPE
  5
14
330
5
100
AcDbSymbolTableRecord
100
AcDbLinetypeTableRecord
  2
ByBlock
 70
     0
  3

 72
    65
 73
     0
 40
0.0
  0
LTYPE
  5
15
330
5
100
AcDbSymbolTableRecord
100
AcDbLinetypeTableRecord
  2
ByLayer
 70
     0
  3

 72
    65
 73
     0
 40
0.0
  0
LTYPE
  5
16
330
5
100
AcDbSymbolTableRecord
100
AcDbLinetypeTableRecord
  2
Continuous
 70
     0
  3
Solid line
 72
    65
 73
     0
 40
0.0
  0
LTYPE
  5
5E
330
5
100
AcDbSymbolTableRecord
100
AcDbLinetypeTableRecord
  2
HIDDEN
 70
     0
  3
Hidden __ __ __ __ __ __ __ __ __ __ __ __ __ __
 72
    65
 73
     2
 40
0.075
 49
0.05
 74
     0
 49
-0.025
 74
     0
  0
LTYPE
  5
5F
330
5
100
AcDbSymbolTableRecord
100
AcDbLinetypeTableRecord
  2
PHANTOM
 70
     0
  3
Phantom ______  __  __  ______  __  __  ______
 72
    65
 73
     6
 40
0.5
 49
0.25
 74
     0
 49
-0.05
 74
     0
 49
0.05
 74
     0
 49
-0.05
 74
     0
 49
0.05
 74
     0
 49
-0.05
 74
     0
  0
LTYPE
  5
60
330
5
100
AcDbSymbolTableRecord
100
AcDbLinetypeTableRecord
  2
CENTER
 70
     0
  3
Center ____ _ ____ _ ____ _ ____ _ ____ _ ____
 72
    65
 73
     4
 40
0.4
 49
0.25
 74
     0
 49
-0.05
 74
     0
 49
0.05
 74
     0
 49
-0.05
 74
     0
  0
LTYPE
  5
61
330
5
100
AcDbSymbolTableRecord
100
AcDbLinetypeTableRecord
  2
CENTERX2
 70
     0
  3
Center (2x) ________  __  ________  __  _____
 72
    65
 73
     4
 40
0.8
 49
0.5
 74
     0
 49
-0.1
 74
     0
 49
0.1
 74
     0
 49
-0.1
 74
     0
  0
LTYPE
  5
62
330
5
100
AcDbSymbolTableRecord
100
AcDbLinetypeTableRecord
  2
DOT2
 70
     0
  3
Dot (.5x) ........................................
 72
    65
 73
     2
 40
0.025
 49
0.0
 74
     0
 49
-0.025
 74
     0
  0
ENDTAB
  0
TABLE
  2
LAYER
  5
2
330
0
100
AcDbSymbolTable
 70
     1
  0
LAYER
  5
10
330
2
100
AcDbSymbolTableRecord
100
AcDbLayerTableRecord
  2
0
 70
     0
 62
     7
  6
Continuous
370
    -3
390
F
  0
ENDTAB
  0
TABLE
  2
STYLE
  5
3
330
0
100
AcDbSymbolTable
 70
     1
  0
STYLE
  5
11
330
3
100
AcDbSymbolTableRecord
100
AcDbTextStyleTableRecord
  2
Standard
 70
     0
 40
0.0
 41
1.0
 50
0.0
 71
     0
 42
0.125
  3
txt
  4

  0
ENDTAB
  0
TABLE
  2
VIEW
  5
6
330
0
100
AcDbSymbolTable
 70
     0
  0
ENDTAB
  0
TABLE
  2
UCS
  5
7
330
0
100
AcDbSymbolTable
 70
     0
  0
ENDTAB
  0
TABLE
  2
APPID
  5
9
330
0
100
AcDbSymbolTable
 70
     1
  0
APPID
  5
12
330
9
100
AcDbSymbolTableRecord
100
AcDbRegAppTableRecord
  2
ACAD
 70
     0
  0
ENDTAB
  0
TABLE
  2
DIMSTYLE
  5
A
330
0
100
AcDbSymbolTable
 70
     1
100
AcDbDimStyleTable
  0
DIMSTYLE
105
27
330
A
100
AcDbSymbolTableRecord
100
AcDbDimStyleTableRecord
  2
Standard
 70
     0
178
     0
340
11
  0
ENDTAB
  0
TABLE
  2
BLOCK_RECORD
  5
1
330
0
100
AcDbSymbolTable
 70
     8
  0
BLOCK_RECORD
  5
1F
330
1
100
AcDbSymbolTableRecord
100
AcDbBlockTableRecord
  2
*Model_Space
340
22
  0
BLOCK_RECORD
  5
1B
330
1
100
AcDbSymbolTableRecord
100
AcDbBlockTableRecord
  2
*Paper_Space
340
1E
  0
BLOCK_RECORD
  5
23
330
1
100
AcDbSymbolTableRecord
100
AcDbBlockTableRecord
  2
*Paper_Space0
340
26
  0
BLOCK_RECORD
  5
E3
330
1
100
AcDbSymbolTableRecord
100
AcDbBlockTableRecord
  2
*Paper_Space1
340
E4
  0
BLOCK_RECORD
  5
10A
330
1
100
AcDbSymbolTableRecord
100
AcDbBlockTableRecord
  2
*Paper_Space2
340
10B
  0
BLOCK_RECORD
  5
122
330
1
100
AcDbSymbolTableRecord
100
AcDbBlockTableRecord
  2
*Paper_Space3
340
123
  0
BLOCK_RECORD
  5
13A
330
1
100
AcDbSymbolTableRecord
100
AcDbBlockTableRecord
  2
*Paper_Space4
340
13B
  0
BLOCK_RECORD
  5
152
330
1
100
AcDbSymbolTableRecord
100
AcDbBlockTableRecord
  2
*Paper_Space5
340
153
  0
BLOCK_RECORD
  5
197
330
1
100
AcDbSymbolTableRecord
100
AcDbBlockTableRecord
  2
*Paper_Space6
340
198
  0
BLOCK_RECORD
  5
1E6
330
1
100
AcDbSymbolTableRecord
100
AcDbBlockTableRecord
  2
*Paper_Space7
340
1E7
  0
ENDTAB
  0
ENDSEC
  0
SECTION
  2
BLOCKS
  0
BLOCK
  5
20
330
1F
100
AcDbEntity
  8
0
100
AcDbBlockBegin
  2
*Model_Space
 70
     0
 10
0.0
 20
0.0
 30
0.0
  3
*Model_Space
  1

  0
ENDBLK
  5
21
330
1F
100
AcDbEntity
  8
0
100
AcDbBlockEnd
  0
BLOCK
  5
1C
330
1B
100
AcDbEntity
 67
     1
  8
0
100
AcDbBlockBegin
  2
*Paper_Space
 70
     0
 10
0.0
 20
0.0
 30
0.0
  3
*Paper_Space
  1

  0
ENDBLK
  5
1D
330
1B
100
AcDbEntity
 67
     1
  8
0
100
AcDbBlockEnd
  0
BLOCK
  5
24
330
23
100
AcDbEntity
  8
0
100
AcDbBlockBegin
  2
*Paper_Space0
 70
     0
 10
0.0
 20
0.0
 30
0.0
  3
*Paper_Space0
  1

  0
LINE
  5
D9
330
23
100
AcDbEntity
  8
0
  6
Continuous
 62
     7
370
    25
100
AcDbLine
 10
-10.5
 20
1.0
 30
0.0
 11
-10.5
 21
0.0
 31
0.0
  0
LINE
  5
DA
330
23
100
AcDbEntity
  8
0
  6
Continuous
 62
     7
370
    25
100
AcDbLine
 10
-10.5
 20
1.0
 30
0.0
 11
10.5
 21
1.0
 31
0.0
  0
LINE
  5
DB
330
23
100
AcDbEntity
  8
0
  6
Continuous
 62
     7
370
    25
100
AcDbLine
 10
10.5
 20
1.0
 30
0.0
 11
10.5
 21
0.0
 31
0.0
  0
LINE
  5
DC
330
23
100
AcDbEntity
  8
0
  6
Continuous
 62
     7
370
    25
100
AcDbLine
 10
-10.5
 20
0.0
 30
0.0
 11
10.5
 21
0.0
 31
0.0
  0
LINE
  5
DD
330
23
100
AcDbEntity
  8
0
  6
Continuous
 62
     7
370
    25
100
AcDbLine
 10
5.0
 20
-15.0
 30
0.0
 11
10.0
 21
0.0
 31
0.0
  0
LINE
  5
DE
330
23
100
AcDbEntity
  8
0
  6
Continuous
 62
     7
370
    25
100
AcDbLine
 10
-5.0
 20
-15.0
 30
0.0
 11
-10.0
 21
0.0
 31
0.0
  0
LINE
  5
DF
330
23
100
AcDbEntity
  8
0
  6
Continuous
 62
     7
370
    25
100
AcDbLine
 10
5.5
 20
-16.0
 30
0.0
 11
5.5
 21
-15.0
 31
0.0
  0
LINE
  5
E0
330
23
100
AcDbEntity
  8
0
  6
Continuous
 62
     7
370
    25
100
AcDbLine
 10
5.5
 20
-16.0
 30
0.0
 11
-5.5
 21
-16.0
 31
0.0
  0
LINE
  5
E1
330
23
100
AcDbEntity
  8
0
  6
Continuous
 62
     7
370
    25
100
AcDbLine
 10
-5.5
 20
-16.0
 30
0.0
 11
-5.5
 21
-15.0
 31
0.0
  0
LINE
  5
E2
330
23
100
AcDbEntity
  8
0
  6
Continuous
 62
     7
370
    25
100
AcDbLine
 10
5.5
 20
-15.0
 30
0.0
 11
-5.5
 21
-15.0
 31
0.0
  0
VIEWPORT
  5
234
330
23
100
AcDbEntity
  8
0
100
AcDbViewport
 10
0.0
 20
0.0
 30
0.0
 40
8.4
 41
6.4
 68
     1
 69
     1
 12
6.0806361764
 22
-0.0226428438
 13
0.0
 23
0.0
 14
0.5
 24
0.5
 15
0.5
 25
0.5
 16
0.0
 26
0.0
 36
1.0
 17
0.0
 27
0.0
 37
0.0
 42
50.0
 43
0.0
 44
0.0
 45
26.8140318466
 50
0.0
 51
0.0
 72
   100
 90
   557152
  1

281
     0
 71
     1
 74
     0
110
0.0
120
0.0
130
0.0
111
1.0
121
0.0
131
0.0
112
0.0
122
1.0
132
0.0
 79
     0
146
0.0
  0
ENDBLK
  5
25
330
23
100
AcDbEntity
  8
0
100
AcDbBlockEnd
  0
BLOCK
  5
E5
330
E3
100
AcDbEntity
  8
0
100
AcDbBlockBegin
  2
*Paper_Space1
 70
     0
 10
0.0
 20
0.0
 30
0.0
  3
*Paper_Space1
  1

  0
LINE
  5
E7
330
E3
100
AcDbEntity
  8
0
  6
Continuous
 62
     7
100
AcDbLine
 10
0.0
 20
0.0
 30
0.0
 11
-0.2347208122
 21
0.0
 31
0.0
  0
LINE
  5
E8
330
E3
100
AcDbEntity
  8
0
  6
Continuous
 62
     7
100
AcDbLine
 10
0.0
 20
0.0
 30
0.0
 11
0.0
 21
0.4694416244
 31
0.0
  0
POINT
  5
E9
330
E3
100
AcDbEntity
  8
0
  6
Continuous
 62
     7
100
AcDbPoint
 10
0.0
 20
0.0
 30
0.0
  0
LINE
  5
FA
330
E3
100
AcDbEntity
  8
0
  6
Continuous
 62
     7
370
    25
100
AcDbLine
 10
10.5
 20
-10.5
 30
0.0
 11
10.5
 21
10.5
 31
0.0
  0
LINE
  5
FB
330
E3
100
AcDbEntity
  8
0
  6
Continuous
 62
     7
370
    25
100
AcDbLine
 10
-10.5
 20
-10.5
 30
0.0
 11
10.5
 21
-10.5
 31
0.0
  0
LINE
  5
FC
330
E3
100
AcDbEntity
  8
0
  6
Continuous
 62
     7
370
    25
100
AcDbLine
 10
-10.5
 20
10.5
 30
0.0
 11
-10.5
 21
-10.5
 31
0.0
  0
LINE
  5
FD
330
E3
100
AcDbEntity
  8
0
  6
Continuous
 62
     7
370
    25
100
AcDbLine
 10
10.5
 20
10.5
 30
0.0
 11
-10.5
 21
10.5
 31
0.0
  0
LINE
  5
FE
330
E3
100
AcDbEntity
  8
0
  6
Continuous
 62
     7
370
    25
100
AcDbLine
 10
9.5
 20
-9.5
 30
0.0
 11
9.5
 21
9.5
 31
0.0
  0
LINE
  5
FF
330
E3
100
AcDbEntity
  8
0
  6
Continuous
 62
     7
370
    25
100
AcDbLine
 10
-9.5
 20
-9.5
 30
0.0
 11
9.5
 21
-9.5
 31
0.0
  0
LINE
  5
100
330
E3
100
AcDbEntity
  8
0
  6
Continuous
 62
     7
370
    25
100
AcDbLine
 10
-9.5
 20
9.5
 30
0.0
 11
-9.5
 21
-9.5
 31
0.0
  0
LINE
  5
101
330
E3
100
AcDbEntity
  8
0
  6
Continuous
 62
     7
370
    25
100
AcDbLine
 10
9.5
 20
9.5
 30
0.0
 11
-9.5
 21
9.5
 31
0.0
  0
LINE
  5
102
330
E3
100
AcDbEntity
  8
0
  6
Continuous
 62
     7
370
    25
100
AcDbLine
 10
-4.5
 20
4.5
 30
0.0
 11
4.5
 21
4.5
 31
0.0
  0
LINE
  5
103
330
E3
100
AcDbEntity
  8
0
  6
Continuous
 62
     7
370
    25
100
AcDbLine
 10
-9.5
 20
9.5
 30
0.0
 11
-4.5
 21
4.5
 31
0.0
  0
LINE
  5
104
330
E3
100
AcDbEntity
  8
0
  6
Continuous
 62
     7
370
    25
100
AcDbLine
 10
9.5
 20
9.5
 30
0.0
 11
4.5
 21
4.5
 31
0.0
  0
LINE
  5
105
330
E3
100
AcDbEntity
  8
0
  6
Continuous
 62
     7
370
    25
100
AcDbLine
 10
-4.5
 20
-4.5
 30
0.0
 11
-4.5
 21
4.5
 31
0.0
  0
LINE
  5
106
330
E3
100
AcDbEntity
  8
0
  6
Continuous
 62
     7
370
    25
100
AcDbLine
 10
-9.5
 20
-9.5
 30
0.0
 11
-4.5
 21
-4.5
 31
0.0
  0
LINE
  5
107
330
E3
100
AcDbEntity
  8
0
  6
Continuous
 62
     7
370
    25
100
AcDbLine
 10
4.5
 20
-4.5
 30
0.0
 11
-4.5
 21
-4.5
 31
0.0
  0
LINE
  5
108
330
E3
100
AcDbEntity
  8
0
  6
Continuous
 62
     7
370
    25
100
AcDbLine
 10
9.5
 20
-9.5
 30
0.0
 11
4.5
 21
-4.5
 31
0.0
  0
LINE
  5
109
330
E3
100
AcDbEntity
  8
0
  6
Continuous
 62
     7
370
    25
100
AcDbLine
 10
4.5
 20
4.5
 30
0.0
 11
4.5
 21
-4.5
 31
0.0
  0
VIEWPORT
  5
236
330
E3
100
AcDbEntity
  8
0
100
AcDbViewport
 10
0.0
 20
0.0
 30
0.0
 40
8.4
 41
6.4
 68
     1
 69
     1
 12
6.0806361764
 22
-0.0226428438
 13
0.0
 23
0.0
 14
0.5
 24
0.5
 15
0.5
 25
0.5
 16
0.0
 26
0.0
 36
1.0
 17
0.0
 27
0.0
 37
0.0
 42
50.0
 43
0.0
 44
0.0
 45
26.8140318466
 50
0.0
 51
0.0
 72
   100
 90
   557152
  1

281
     0
 71
     1
 74
     0
110
0.0
120
0.0
130
0.0
111
1.0
121
0.0
131
0.0
112
0.0
122
1.0
132
0.0
 79
     0
146
0.0
  0
ENDBLK
  5
E6
330
E3
100
AcDbEntity
  8
0
100
AcDbBlockEnd
  0
BLOCK
  5
10C
330
10A
100
AcDbEntity
  8
0
100
AcDbBlockBegin
  2
*Paper_Space2
 70
     0
 10
0.0
 20
0.0
 30
0.0
  3
*Paper_Space2
  1

  0
LINE
  5
118
330
10A
100
AcDbEntity
  8
0
  6
Continuous
 62
     7
370
    25
100
AcDbLine
 10
-1.0
 20
-10.5
 30
0.0
 11
0.0
 21
-10.5
 31
0.0
  0
LINE
  5
119
330
10A
100
AcDbEntity
  8
0
  6
Continuous
 62
     7
370
    25
100
AcDbLine
 10
-1.0
 20
-10.5
 30
0.0
 11
-1.0
 21
10.5
 31
0.0
  0
LINE
  5
11A
330
10A
100
AcDbEntity
  8
0
  6
Continuous
 62
     7
370
    25
100
AcDbLine
 10
-1.0
 20
10.5
 30
0.0
 11
0.0
 21
10.5
 31
0.0
  0
LINE
  5
11B
330
10A
100
AcDbEntity
  8
0
  6
Continuous
 62
     7
370
    25
100
AcDbLine
 10
0.0
 20
-10.5
 30
0.0
 11
0.0
 21
10.5
 31
0.0
  0
LINE
  5
11C
330
10A
100
AcDbEntity
  8
0
  6
Continuous
 62
     7
370
    25
100
AcDbLine
 10
15.0
 20
5.0
 30
0.0
 11
0.0
 21
10.0
 31
0.0
  0
LINE
  5
11D
330
10A
100
AcDbEntity
  8
0
  6
Continuous
 62
     7
370
    25
100
AcDbLine
 10
15.0
 20
-5.0
 30
0.0
 11
0.0
 21
-10.0
 31
0.0
  0
LINE
  5
11E
330
10A
100
AcDbEntity
  8
0
  6
Continuous
 62
     7
370
    25
100
AcDbLine
 10
16.0
 20
5.5
 30
0.0
 11
16.0
 21
-5.5
 31
0.0
  0
LINE
  5
11F
330
10A
100
AcDbEntity
  8
0
  6
Continuous
 62
     7
370
    25
100
AcDbLine
 10
16.0
 20
-5.5
 30
0.0
 11
15.0
 21
-5.5
 31
0.0
  0
LINE
  5
120
330
10A
100
AcDbEntity
  8
0
  6
Continuous
 62
     7
370
    25
100
AcDbLine
 10
15.0
 20
5.5
 30
0.0
 11
15.0
 21
-5.5
 31
0.0
  0
LINE
  5
121
330
10A
100
AcDbEntity
  8
0
  6
Continuous
 62
     7
370
    25
100
AcDbLine
 10
16.0
 20
5.5
 30
0.0
 11
15.0
 21
5.5
 31
0.0
  0
VIEWPORT
  5
238
330
10A
100
AcDbEntity
  8
0
100
AcDbViewport
 10
0.0
 20
0.0
 30
0.0
 40
8.4
 41
6.4
 68
     1
 69
     1
 12
6.0806361764
 22
-0.0226428438
 13
0.0
 23
0.0
 14
0.5
 24
0.5
 15
0.5
 25
0.5
 16
0.0
 26
0.0
 36
1.0
 17
0.0
 27
0.0
 37
0.0
 42
50.0
 43
0.0
 44
0.0
 45
26.8140318466
 50
0.0
 51
0.0
 72
   100
 90
   557152
  1

281
     0
 71
     1
 74
     0
110
0.0
120
0.0
130
0.0
111
1.0
121
0.0
131
0.0
112
0.0
122
1.0
132
0.0
 79
     0
146
0.0
  0
ENDBLK
  5
10D
330
10A
100
AcDbEntity
  8
0
100
AcDbBlockEnd
  0
BLOCK
  5
124
330
122
100
AcDbEntity
  8
0
100
AcDbBlockBegin
  2
*Paper_Space3
 70
     0
 10
0.0
 20
0.0
 30
0.0
  3
*Paper_Space3
  1

  0
LINE
  5
130
330
122
100
AcDbEntity
  8
0
  6
Continuous
 62
     7
370
    25
100
AcDbLine
 10
1.0
 20
10.5
 30
0.0
 11
1.0
 21
-10.5
 31
0.0
  0
LINE
  5
131
330
122
100
AcDbEntity
  8
0
  6
Continuous
 62
     7
370
    25
100
AcDbLine
 10
0.0
 20
10.5
 30
0.0
 11
0.0
 21
-10.5
 31
0.0
  0
LINE
  5
132
330
122
100
AcDbEntity
  8
0
  6
Continuous
 62
     7
370
    25
100
AcDbLine
 10
1.0
 20
10.5
 30
0.0
 11
0.0
 21
10.5
 31
0.0
  0
LINE
  5
133
330
122
100
AcDbEntity
  8
0
  6
Continuous
 62
     7
370
    25
100
AcDbLine
 10
1.0
 20
-10.5
 30
0.0
 11
0.0
 21
-10.5
 31
0.0
  0
LINE
  5
134
330
122
100
AcDbEntity
  8
0
  6
Continuous
 62
     7
370
    25
100
AcDbLine
 10
-15.0
 20
5.0
 30
0.0
 11
0.0
 21
10.0
 31
0.0
  0
LINE
  5
135
330
122
100
AcDbEntity
  8
0
  6
Continuous
 62
     7
370
    25
100
AcDbLine
 10
-15.0
 20
-5.0
 30
0.0
 11
0.0
 21
-10.0
 31
0.0
  0
LINE
  5
136
330
122
100
AcDbEntity
  8
0
  6
Continuous
 62
     7
370
    25
100
AcDbLine
 10
-16.0
 20
-5.5
 30
0.0
 11
-16.0
 21
5.5
 31
0.0
  0
LINE
  5
137
330
122
100
AcDbEntity
  8
0
  6
Continuous
 62
     7
370
    25
100
AcDbLine
 10
-15.0
 20
-5.5
 30
0.0
 11
-15.0
 21
5.5
 31
0.0
  0
LINE
  5
138
330
122
100
AcDbEntity
  8
0
  6
Continuous
 62
     7
370
    25
100
AcDbLine
 10
-16.0
 20
-5.5
 30
0.0
 11
-15.0
 21
-5.5
 31
0.0
  0
LINE
  5
139
330
122
100
AcDbEntity
  8
0
  6
Continuous
 62
     7
370
    25
100
AcDbLine
 10
-16.0
 20
5.5
 30
0.0
 11
-15.0
 21
5.5
 31
0.0
  0
VIEWPORT
  5
23A
330
122
100
AcDbEntity
  8
0
100
AcDbViewport
 10
0.0
 20
0.0
 30
0.0
 40
8.4
 41
6.4
 68
     1
 69
     1
 12
6.0806361764
 22
-0.0226428438
 13
0.0
 23
0.0
 14
0.5
 24
0.5
 15
0.5
 25
0.5
 16
0.0
 26
0.0
 36
1.0
 17
0.0
 27
0.0
 37
0.0
 42
50.0
 43
0.0
 44
0.0
 45
26.8140318466
 50
0.0
 51
0.0
 72
   100
 90
   557152
  1

281
     0
 71
     1
 74
     0
110
0.0
120
0.0
130
0.0
111
1.0
121
0.0
131
0.0
112
0.0
122
1.0
132
0.0
 79
     0
146
0.0
  0
ENDBLK
  5
125
330
122
100
AcDbEntity
  8
0
100
AcDbBlockEnd
  0
BLOCK
  5
13C
330
13A
100
AcDbEntity
  8
0
100
AcDbBlockBegin
  2
*Paper_Space4
 70
     0
 10
0.0
 20
0.0
 30
0.0
  3
*Paper_Space4
  1

  0
LINE
  5
148
330
13A
100
AcDbEntity
  8
0
  6
Continuous
 62
     7
370
    25
100
AcDbLine
 10
10.5
 20
-1.0
 30
0.0
 11
10.5
 21
0.0
 31
0.0
  0
LINE
  5
149
330
13A
100
AcDbEntity
  8
0
  6
Continuous
 62
     7
370
    25
100
AcDbLine
 10
10.5
 20
0.0
 30
0.0
 11
-10.5
 21
0.0
 31
0.0
  0
LINE
  5
14A
330
13A
100
AcDbEntity
  8
0
  6
Continuous
 62
     7
370
    25
100
AcDbLine
 10
10.5
 20
-1.0
 30
0.0
 11
-10.5
 21
-1.0
 31
0.0
  0
LINE
  5
14B
330
13A
100
AcDbEntity
  8
0
  6
Continuous
 62
     7
370
    25
100
AcDbLine
 10
-10.5
 20
-1.0
 30
0.0
 11
-10.5
 21
0.0
 31
0.0
  0
LINE
  5
14C
330
13A
100
AcDbEntity
  8
0
  6
Continuous
 62
     7
370
    25
100
AcDbLine
 10
5.0
 20
15.0
 30
0.0
 11
10.0
 21
0.0
 31
0.0
  0
LINE
  5
14D
330
13A
100
AcDbEntity
  8
0
  6
Continuous
 62
     7
370
    25
100
AcDbLine
 10
-5.0
 20
15.0
 30
0.0
 11
-10.0
 21
0.0
 31
0.0
  0
LINE
  5
14E
330
13A
100
AcDbEntity
  8
0
  6
Continuous
 62
     7
370
    25
100
AcDbLine
 10
-5.5
 20
16.0
 30
0.0
 11
5.5
 21
16.0
 31
0.0
  0
LINE
  5
14F
330
13A
100
AcDbEntity
  8
0
  6
Continuous
 62
     7
370
    25
100
AcDbLine
 10
-5.5
 20
15.0
 30
0.0
 11
5.5
 21
15.0
 31
0.0
  0
LINE
  5
150
330
13A
100
AcDbEntity
  8
0
  6
Continuous
 62
     7
370
    25
100
AcDbLine
 10
-5.5
 20
16.0
 30
0.0
 11
-5.5
 21
15.0
 31
0.0
  0
LINE
  5
151
330
13A
100
AcDbEntity
  8
0
  6
Continuous
 62
     7
370
    25
100
AcDbLine
 10
5.5
 20
16.0
 30
0.0
 11
5.5
 21
15.0
 31
0.0
  0
VIEWPORT
  5
23C
330
13A
100
AcDbEntity
  8
0
100
AcDbViewport
 10
0.0
 20
0.0
 30
0.0
 40
8.4
 41
6.4
 68
     1
 69
     1
 12
6.0806361764
 22
-0.0226428438
 13
0.0
 23
0.0
 14
0.5
 24
0.5
 15
0.5
 25
0.5
 16
0.0
 26
0.0
 36
1.0
 17
0.0
 27
0.0
 37
0.0
 42
50.0
 43
0.0
 44
0.0
 45
26.8140318466
 50
0.0
 51
0.0
 72
   100
 90
   557152
  1

281
     0
 71
     1
 74
     0
110
0.0
120
0.0
130
0.0
111
1.0
121
0.0
131
0.0
112
0.0
122
1.0
132
0.0
 79
     0
146
0.0
  0
ENDBLK
  5
13D
330
13A
100
AcDbEntity
  8
0
100
AcDbBlockEnd
  0
BLOCK
  5
154
330
152
100
AcDbEntity
  8
0
100
AcDbBlockBegin
  2
*Paper_Space5
 70
     0
 10
0.0
 20
0.0
 30
0.0
  3
*Paper_Space5
  1

  0
LINE
  5
156
330
152
100
AcDbEntity
  8
0
  6
Continuous
 62
     7
100
AcDbLine
 10
0.0
 20
0.0
 30
0.0
 11
0.165972678
 21
-0.0958139875
 31
0.0
  0
LINE
  5
157
330
152
100
AcDbEntity
  8
0
  6
Continuous
 62
     7
100
AcDbLine
 10
0.0
 20
0.0
 30
0.0
 11
0.0
 21
0.3833182451
 31
0.0
  0
POINT
  5
158
330
152
100
AcDbEntity
  8
0
  6
Continuous
 62
     7
100
AcDbPoint
 10
0.0
 20
0.0
 30
0.0
  0
LINE
  5
178
330
152
100
AcDbEntity
  8
0
  6
Continuous
 62
     7
370
    25
100
AcDbLine
 10
-6.7175144213
 20
-3.8772584433
 30
0.0
 11
7.0710678119
 21
4.0833675597
 31
0.0
  0
LINE
  5
179
330
152
100
AcDbEntity
  8
0
  6
Continuous
 62
     7
370
    25
100
AcDbLine
 10
7.0710678119
 20
-12.247448678
 30
0.0
 11
7.0710678119
 21
4.0833675597
 31
0.0
  0
LINE
  5
17A
330
152
100
AcDbEntity
  8
0
  6
Continuous
 62
     7
370
    25
100
AcDbLine
 10
-6.7175144213
 20
-12.2468017652
 30
0.0
 11
7.0710678119
 21
-12.247448678
 31
0.0
  0
LINE
  5
17B
330
152
100
AcDbEntity
  8
0
  6
Continuous
 62
     7
370
    25
100
AcDbLine
 10
-13.9653373792
 20
0.3068704522
 30
0.0
 11
-7.0710678119
 21
12.247448678
 31
0.0
  0
LINE
  5
17C
330
152
100
AcDbEntity
  8
0
  6
Continuous
 62
     7
370
    25
100
AcDbLine
 10
7.0710678119
 20
4.0833675597
 30
0.0
 11
-7.0710678119
 21
12.247448678
 31
0.0
  0
LINE
  5
17D
330
152
100
AcDbEntity
  8
0
  6
Continuous
 62
     7
370
    25
100
AcDbLine
 10
-14.4956890143
 20
-1.0199129895
 30
0.0
 11
-14.4956890143
 21
-8.3687802965
 31
0.0
  0
LINE
  5
17E
330
152
100
AcDbEntity
  8
0
  6
Continuous
 62
     7
370
    25
100
AcDbLine
 10
-14.4956890143
 20
-8.3687802965
 30
0.0
 11
-8.1317279836
 21
-12.0426167997
 31
0.0
  0
LINE
  5
17F
330
152
100
AcDbEntity
  8
0
  6
Continuous
 62
     7
370
    25
100
AcDbLine
 10
-8.1317279836
 20
-12.0426167997
 30
0.0
 11
-8.1317279836
 21
-4.6937494927
 31
0.0
  0
LINE
  5
180
330
152
100
AcDbEntity
  8
0
  6
Continuous
 62
     7
370
    25
100
AcDbLine
 10
-8.1317279836
 20
-4.6937494927
 30
0.0
 11
-14.4956890143
 21
-1.0199129895
 31
0.0
  0
LINE
  5
181
330
152
100
AcDbEntity
  8
0
  6
Continuous
 62
     7
370
    25
100
AcDbLine
 10
-15.2027957955
 20
0.2048318783
 30
0.0
 11
-15.2027957955
 21
-8.7771170524
 31
0.0
  0
LINE
  5
182
330
152
100
AcDbEntity
  8
0
  6
Continuous
 62
     7
370
    25
100
AcDbLine
 10
-7.4246212025
 20
-4.2854127367
 30
0.0
 11
-15.2027957955
 21
0.2048318783
 31
0.0
  0
LINE
  5
183
330
152
100
AcDbEntity
  8
0
  6
Continuous
 62
     7
370
    25
100
AcDbLine
 10
-7.4246212025
 20
-13.2673616675
 30
0.0
 11
-7.4246212025
 21
-4.2854127367
 31
0.0
  0
LINE
  5
184
330
152
100
AcDbEntity
  8
0
  6
Continuous
 62
     7
370
    25
100
AcDbLine
 10
-15.2027957955
 20
-8.7771170524
 30
0.0
 11
-7.4246212025
 21
-13.2673616675
 31
0.0
  0
LINE
  5
185
330
152
100
AcDbEntity
  8
0
  6
Continuous
 62
     7
370
    25
100
AcDbLine
 10
-7.4246212025
 20
-13.2673616675
 30
0.0
 11
-6.7175144213
 21
-12.8591576116
 31
0.0
  0
LINE
  5
186
330
152
100
AcDbEntity
  8
0
  6
Continuous
 62
     7
370
    25
100
AcDbLine
 10
-7.4246212025
 20
-4.2854127367
 30
0.0
 11
-6.7175144213
 21
-3.8772086808
 31
0.0
  0
LINE
  5
187
330
152
100
AcDbEntity
  8
0
  6
Continuous
 62
     7
370
    25
100
AcDbLine
 10
-6.7175144213
 20
-12.8591576116
 30
0.0
 11
-6.7175144213
 21
-3.8772086808
 31
0.0
  0
LINE
  5
188
330
152
100
AcDbEntity
  8
0
  6
Continuous
 62
     7
370
    25
100
AcDbLine
 10
-15.2027957955
 20
0.2048318783
 30
0.0
 11
-14.4956890143
 21
0.6130359342
 31
0.0
  0
LINE
  5
189
330
152
100
AcDbEntity
  8
0
  6
Continuous
 62
     7
370
    25
100
AcDbLine
 10
-6.7175144213
 20
-3.8772086808
 30
0.0
 11
-14.4956890143
 21
0.6130359342
 31
0.0
  0
LINE
  5
18A
330
152
100
AcDbEntity
  8
0
  6
Continuous
 62
     7
370
    25
100
AcDbLine
 10
-7.4246212025
 20
11.6351094191
 30
0.0
 11
-7.4246212025
 21
12.8598211119
 31
0.0
  0
LINE
  5
18B
330
152
100
AcDbEntity
  8
0
  6
Continuous
 62
     7
370
    25
100
AcDbLine
 10
-7.4246212025
 20
12.8598211119
 30
0.0
 11
7.4246212025
 21
4.2875359377
 31
0.0
  0
LINE
  5
18C
330
152
100
AcDbEntity
  8
0
  6
Continuous
 62
     7
370
    25
100
AcDbLine
 10
7.4246212025
 20
4.2875359377
 30
0.0
 11
7.4246212025
 21
-12.8598211119
 31
0.0
  0
LINE
  5
18D
330
152
100
AcDbEntity
  8
0
  6
Continuous
 62
     7
370
    25
100
AcDbLine
 10
7.4246212025
 20
-12.8598211119
 30
0.0
 11
6.3637886155
 21
-12.2474154949
 31
0.0
  0
LINE
  5
18E
330
152
100
AcDbEntity
  8
0
  6
Continuous
 62
     7
370
    25
100
AcDbLine
 10
8.1317279836
 20
4.6957399936
 30
0.0
 11
7.4246212025
 21
4.2875359377
 31
0.0
  0
LINE
  5
18F
330
152
100
AcDbEntity
  8
0
  6
Continuous
 62
     7
370
    25
100
AcDbLine
 10
8.1317279836
 20
4.6957399936
 30
0.0
 11
8.1317279836
 21
-12.451617056
 31
0.0
  0
LINE
  5
190
330
152
100
AcDbEntity
  8
0
  6
Continuous
 62
     7
370
    25
100
AcDbLine
 10
8.1317279836
 20
-12.451617056
 30
0.0
 11
7.4246212025
 21
-12.8598211119
 31
0.0
  0
LINE
  5
191
330
152
100
AcDbEntity
  8
0
  6
Continuous
 62
     7
370
    25
100
AcDbLine
 10
-6.7175144213
 20
13.2680251678
 30
0.0
 11
-7.4246212025
 21
12.8598211119
 31
0.0
  0
LINE
  5
192
330
152
100
AcDbEntity
  8
0
  6
Continuous
 62
     7
370
    25
100
AcDbLine
 10
-6.7175144213
 20
13.2680251678
 30
0.0
 11
8.1317279836
 21
4.6957399936
 31
0.0
  0
LINE
  5
193
330
152
100
AcDbEntity
  8
0
  6
Continuous
 62
     7
370
    25
100
AcDbLine
 10
-13.7885822331
 20
-7.9605762406
 30
0.0
 11
-8.1317279836
 21
-11.2262086878
 31
0.0
  0
LINE
  5
194
330
152
100
AcDbEntity
  8
0
  6
Continuous
 62
     7
370
    25
100
AcDbLine
 10
-8.1317279836
 20
-4.6954745935
 30
0.0
 11
-13.7885822331
 21
-7.9605762406
 31
0.0
  0
LINE
  5
195
330
152
100
AcDbEntity
  8
0
  6
Continuous
 62
     7
370
    25
100
AcDbLine
 10
-13.7885822331
 20
-1.4281170454
 30
0.0
 11
-13.7885822331
 21
-7.9605762406
 31
0.0
  0
LINE
  5
196
330
152
100
AcDbEntity
  8
0
  6
Continuous
 62
     7
370
    25
100
AcDbLine
 10
-14.4956890143
 20
-8.3687802965
 30
0.0
 11
-13.7885822331
 21
-7.9605762406
 31
0.0
  0
VIEWPORT
  5
23E
330
152
100
AcDbEntity
  8
0
100
AcDbViewport
 10
0.0
 20
0.0
 30
0.0
 40
8.4
 41
6.4
 68
     1
 69
     1
 12
6.0806361764
 22
-0.0226428438
 13
0.0
 23
0.0
 14
0.5
 24
0.5
 15
0.5
 25
0.5
 16
0.0
 26
0.0
 36
1.0
 17
0.0
 27
0.0
 37
0.0
 42
50.0
 43
0.0
 44
0.0
 45
26.8140318466
 50
0.0
 51
0.0
 72
   100
 90
   557152
  1

281
     0
 71
     1
 74
     0
110
0.0
120
0.0
130
0.0
111
1.0
121
0.0
131
0.0
112
0.0
122
1.0
132
0.0
 79
     0
146
0.0
  0
ENDBLK
  5
155
330
152
100
AcDbEntity
  8
0
100
AcDbBlockEnd
  0
BLOCK
  5
199
330
197
100
AcDbEntity
  8
0
100
AcDbBlockBegin
  2
*Paper_Space6
 70
     0
 10
0.0
 20
0.0
 30
0.0
  3
*Paper_Space6
  1

  0
LINE
  5
19B
330
197
100
AcDbEntity
  8
0
  6
Continuous
 62
     7
100
AcDbLine
 10
0.0
 20
0.0
 30
0.0
 11
0.2075913398
 21
-0.056418878
 31
0.0
  0
LINE
  5
19C
330
197
100
AcDbEntity
  8
0
  6
Continuous
 62
     7
100
AcDbLine
 10
0.0
 20
0.0
 30
0.0
 11
0.0
 21
0.40239001
 31
0.0
  0
POINT
  5
19D
330
197
100
AcDbEntity
  8
0
  6
Continuous
 62
     7
100
AcDbPoint
 10
0.0
 20
0.0
 30
0.0
  0
LINE
  5
1C2
330
197
100
AcDbEntity
  8
0
  6
Continuous
 62
     7
370
    25
100
AcDbLine
 10
-2.2023712997
 20
-3.4222247196
 30
0.0
 11
8.8441812168
 21
6.1680140602
 31
0.0
  0
LINE
  5
1C3
330
197
100
AcDbEntity
  8
0
  6
Continuous
 62
     7
370
    25
100
AcDbLine
 10
8.8441812168
 20
-10.9753319539
 30
0.0
 11
8.8441812168
 21
6.1680140602
 31
0.0
  0
LINE
  5
1C4
330
197
100
AcDbEntity
  8
0
  6
Continuous
 62
     7
370
    25
100
AcDbLine
 10
-2.1361311647
 20
-12.2682322309
 30
0.0
 11
8.8441812168
 21
-10.9753319539
 31
0.0
  0
LINE
  5
1C5
330
197
100
AcDbEntity
  8
0
  6
Continuous
 62
     7
370
    25
100
AcDbLine
 10
-11.3376561339
 20
-0.9394500472
 30
0.0
 11
-8.8441812168
 21
10.9753319539
 31
0.0
  0
LINE
  5
1C6
330
197
100
AcDbEntity
  8
0
  6
Continuous
 62
     7
370
    25
100
AcDbLine
 10
8.8441812168
 20
6.1680140602
 30
0.0
 11
-8.8441812168
 21
10.9753319539
 31
0.0
  0
LINE
  5
1C7
330
197
100
AcDbEntity
  8
0
  6
Continuous
 62
     7
370
    25
100
AcDbLine
 10
-11.4470077704
 20
-2.3492447296
 30
0.0
 11
-11.4470077704
 21
-10.063750436
 31
0.0
  0
LINE
  5
1C8
330
197
100
AcDbEntity
  8
0
  6
Continuous
 62
     7
370
    25
100
AcDbLine
 10
-11.4470077704
 20
-10.063750436
 30
0.0
 11
-3.4872446753
 21
-12.2270434881
 31
0.0
  0
LINE
  5
1C9
330
197
100
AcDbEntity
  8
0
  6
Continuous
 62
     7
370
    25
100
AcDbLine
 10
-3.4872446753
 20
-12.2270434881
 30
0.0
 11
-3.4872446753
 21
-4.5125377818
 31
0.0
  0
LINE
  5
1CA
330
197
100
AcDbEntity
  8
0
  6
Continuous
 62
     7
370
    25
100
AcDbLine
 10
-3.4872446753
 20
-4.5125377818
 30
0.0
 11
-11.4470077704
 21
-2.3492447296
 31
0.0
  0
LINE
  5
1CB
330
197
100
AcDbEntity
  8
0
  6
Continuous
 62
     7
370
    25
100
AcDbLine
 10
-12.3314258921
 20
-1.2517115342
 30
0.0
 11
-12.3314258921
 21
-10.680551842
 31
0.0
  0
LINE
  5
1CC
330
197
100
AcDbEntity
  8
0
  6
Continuous
 62
     7
370
    25
100
AcDbLine
 10
-2.6028265537
 20
-3.8957363758
 30
0.0
 11
-12.3314258921
 21
-1.2517115342
 31
0.0
  0
LINE
  5
1CD
330
197
100
AcDbEntity
  8
0
  6
Continuous
 62
     7
370
    25
100
AcDbLine
 10
-2.6028265537
 20
-13.3245766835
 30
0.0
 11
-2.6028265537
 21
-3.8957363758
 31
0.0
  0
LINE
  5
1CE
330
197
100
AcDbEntity
  8
0
  6
Continuous
 62
     7
370
    25
100
AcDbLine
 10
-12.3314258921
 20
-10.680551842
 30
0.0
 11
-2.6028265537
 21
-13.3245766835
 31
0.0
  0
LINE
  5
1CF
330
197
100
AcDbEntity
  8
0
  6
Continuous
 62
     7
370
    25
100
AcDbLine
 10
-2.6028265537
 20
-13.3245766835
 30
0.0
 11
-2.1361311647
 21
-12.8690676767
 31
0.0
  0
LINE
  5
1D0
330
197
100
AcDbEntity
  8
0
  6
Continuous
 62
     7
370
    25
100
AcDbLine
 10
-2.6028265537
 20
-3.8957363758
 30
0.0
 11
-2.1361311647
 21
-3.440227369
 31
0.0
  0
LINE
  5
1D1
330
197
100
AcDbEntity
  8
0
  6
Continuous
 62
     7
370
    25
100
AcDbLine
 10
-2.1361311647
 20
-12.8690676767
 30
0.0
 11
-2.1361311647
 21
-3.440227369
 31
0.0
  0
LINE
  5
1D2
330
197
100
AcDbEntity
  8
0
  6
Continuous
 62
     7
370
    25
100
AcDbLine
 10
-12.3314258921
 20
-1.2517115342
 30
0.0
 11
-11.8647305032
 21
-0.7962025274
 31
0.0
  0
LINE
  5
1D3
330
197
100
AcDbEntity
  8
0
  6
Continuous
 62
     7
370
    25
100
AcDbLine
 10
-2.1361311647
 20
-3.440227369
 30
0.0
 11
-11.8647305032
 21
-0.7962025274
 31
0.0
  0
LINE
  5
1D4
330
197
100
AcDbEntity
  8
0
  6
Continuous
 62
     7
370
    25
100
AcDbLine
 10
-10.9803123815
 20
-2.4760825363
 30
0.0
 11
-10.9803123815
 21
-9.6082414291
 31
0.0
  0
LINE
  5
1D5
330
197
100
AcDbEntity
  8
0
  6
Continuous
 62
     7
370
    25
100
AcDbLine
 10
-8.4019721559
 20
-5.8596133572
 30
0.0
 11
-8.4019721559
 21
-3.1768201624
 31
0.0
  0
LINE
  5
1D6
330
197
100
AcDbEntity
  8
0
  6
Continuous
 62
     7
370
    25
100
AcDbLine
 10
-8.4019721559
 20
-5.8596133572
 30
0.0
 11
-10.9803123815
 21
-9.6082414291
 31
0.0
  0
LINE
  5
1D7
330
197
100
AcDbEntity
  8
0
  6
Continuous
 62
     7
370
    25
100
AcDbLine
 10
-10.9803123815
 20
-9.6082414291
 30
0.0
 11
-3.4872446753
 21
-11.6446966747
 31
0.0
  0
LINE
  5
1D8
330
197
100
AcDbEntity
  8
0
  6
Continuous
 62
     7
370
    25
100
AcDbLine
 10
-3.4872446753
 20
-7.1953309765
 30
0.0
 11
-8.4019721559
 21
-5.8596133572
 31
0.0
  0
LINE
  5
1D9
330
197
100
AcDbEntity
  8
0
  6
Continuous
 62
     7
370
    25
100
AcDbLine
 10
-11.4470077704
 20
-10.063750436
 30
0.0
 11
-10.9803123815
 21
-9.6082414291
 31
0.0
  0
LINE
  5
1DA
330
197
100
AcDbEntity
  8
0
  6
Continuous
 62
     7
370
    25
100
AcDbLine
 10
-9.2863902776
 20
8.862287013
 30
0.0
 11
-9.2863902776
 21
11.5240985516
 31
0.0
  0
LINE
  5
1DB
330
197
100
AcDbEntity
  8
0
  6
Continuous
 62
     7
370
    25
100
AcDbLine
 10
-9.2863902776
 20
11.5240985516
 30
0.0
 11
9.2863902776
 21
6.4764147632
 31
0.0
  0
LINE
  5
1DC
330
197
100
AcDbEntity
  8
0
  6
Continuous
 62
     7
370
    25
100
AcDbLine
 10
9.2863902776
 20
6.4764147632
 30
0.0
 11
9.2863902776
 21
-11.5240985516
 31
0.0
  0
LINE
  5
1DD
330
197
100
AcDbEntity
  8
0
  6
Continuous
 62
     7
370
    25
100
AcDbLine
 10
9.2863902776
 20
-11.5240985516
 30
0.0
 11
7.743910691
 21
-11.1048856513
 31
0.0
  0
LINE
  5
1DE
330
197
100
AcDbEntity
  8
0
  6
Continuous
 62
     7
370
    25
100
AcDbLine
 10
9.7530856665
 20
6.93192377
 30
0.0
 11
9.2863902776
 21
6.4764147632
 31
0.0
  0
LINE
  5
1DF
330
197
100
AcDbEntity
  8
0
  6
Continuous
 62
     7
370
    25
100
AcDbLine
 10
9.7530856665
 20
6.93192377
 30
0.0
 11
9.7530856665
 21
-11.0685895447
 31
0.0
  0
LINE
  5
1E0
330
197
100
AcDbEntity
  8
0
  6
Continuous
 62
     7
370
    25
100
AcDbLine
 10
9.7530856665
 20
-11.0685895447
 30
0.0
 11
9.2863902776
 21
-11.5240985516
 31
0.0
  0
LINE
  5
1E1
330
197
100
AcDbEntity
  8
0
  6
Continuous
 62
     7
370
    25
100
AcDbLine
 10
-8.8196948887
 20
11.9796075584
 30
0.0
 11
-9.2863902776
 21
11.5240985516
 31
0.0
  0
LINE
  5
1E2
330
197
100
AcDbEntity
  8
0
  6
Continuous
 62
     7
370
    25
100
AcDbLine
 10
-8.8196948887
 20
11.9796075584
 30
0.0
 11
9.7530856665
 21
6.93192377
 31
0.0
  0
LINE
  5
1E3
330
197
100
AcDbEntity
  8
0
  6
Continuous
 62
     7
370
    25
100
AcDbLine
 10
-7.935276767
 20
-5.4041043504
 30
0.0
 11
-8.4019721559
 21
-5.8596133572
 31
0.0
  0
LINE
  5
1E4
330
197
100
AcDbEntity
  8
0
  6
Continuous
 62
     7
370
    25
100
AcDbLine
 10
-7.935276767
 20
-5.4041043504
 30
0.0
 11
-7.935276767
 21
-3.3036579691
 31
0.0
  0
LINE
  5
1E5
330
197
100
AcDbEntity
  8
0
  6
Continuous
 62
     7
370
    25
100
AcDbLine
 10
-3.4872446753
 20
-6.6129841631
 30
0.0
 11
-7.935276767
 21
-5.4041043504
 31
0.0
  0
VIEWPORT
  5
240
330
197
100
AcDbEntity
  8
0
100
AcDbViewport
 10
0.0
 20
0.0
 30
0.0
 40
8.4
 41
6.4
 68
     1
 69
     1
 12
6.0806361764
 22
-0.0226428438
 13
0.0
 23
0.0
 14
0.5
 24
0.5
 15
0.5
 25
0.5
 16
0.0
 26
0.0
 36
1.0
 17
0.0
 27
0.0
 37
0.0
 42
50.0
 43
0.0
 44
0.0
 45
26.8140318466
 50
0.0
 51
0.0
 72
   100
 90
   557152
  1

281
     0
 71
     1
 74
     0
110
0.0
120
0.0
130
0.0
111
1.0
121
0.0
131
0.0
112
0.0
122
1.0
132
0.0
 79
     0
146
0.0
  0
ENDBLK
  5
19A
330
197
100
AcDbEntity
  8
0
100
AcDbBlockEnd
  0
BLOCK
  5
1E8
330
1E6
100
AcDbEntity
  8
0
100
AcDbBlockBegin
  2
*Paper_Space7
 70
     0
 10
0.0
 20
0.0
 30
0.0
  3
*Paper_Space7
  1

  0
LINE
  5
1EA
330
1E6
100
AcDbEntity
  8
0
  6
Continuous
 62
     7
100
AcDbLine
 10
0.0
 20
0.0
 30
0.0
 11
0.2195612152
 21
-0.027662113
 31
0.0
  0
LINE
  5
1EB
330
1E6
100
AcDbEntity
  8
0
  6
Continuous
 62
     7
100
AcDbLine
 10
0.0
 20
0.0
 30
0.0
 11
0.0
 21
0.442593808
 31
0.0
  0
POINT
  5
1EC
330
1E6
100
AcDbEntity
  8
0
  6
Continuous
 62
     7
100
AcDbPoint
 10
0.0
 20
0.0
 30
0.0
  0
LINE
  5
211
330
1E6
100
AcDbEntity
  8
0
  6
Continuous
 62
     7
370
    25
100
AcDbLine
 10
-0.5120753412
 20
-0.4516080016
 30
0.0
 11
9.3541434672
 21
8.2495791147
 31
0.0
  0
LINE
  5
212
330
1E6
100
AcDbEntity
  8
0
  6
Continuous
 62
     7
370
    25
100
AcDbLine
 10
9.3541434672
 20
-10.6066017175
 30
0.0
 11
9.3541434672
 21
8.2495791147
 31
0.0
  0
LINE
  5
213
330
1E6
100
AcDbEntity
  8
0
  6
Continuous
 62
     7
370
    25
100
AcDbLine
 10
-0.1585219507
 20
-10.0097193769
 30
0.0
 11
9.3541434672
 21
-10.6066017175
 31
0.0
  0
LINE
  5
214
330
1E6
100
AcDbEntity
  8
0
  6
Continuous
 62
     7
370
    25
100
AcDbLine
 10
-9.9510258058
 20
1.0939362996
 30
0.0
 11
-9.3541434672
 21
10.6066017175
 31
0.0
  0
LINE
  5
215
330
1E6
100
AcDbEntity
  8
0
  6
Continuous
 62
     7
370
    25
100
AcDbLine
 10
9.3541434672
 20
8.2495791147
 30
0.0
 11
-9.3541434672
 21
10.6066017175
 31
0.0
  0
LINE
  5
216
330
1E6
100
AcDbEntity
  8
0
  6
Continuous
 62
     7
370
    25
100
AcDbLine
 10
-9.8662188085
 20
-0.2159057418
 30
0.0
 11
-9.8662188085
 21
-8.7011871163
 31
0.0
  0
LINE
  5
217
330
1E6
100
AcDbEntity
  8
0
  6
Continuous
 62
     7
370
    25
100
AcDbLine
 10
-9.8662188085
 20
-8.7011871163
 30
0.0
 11
-1.4474896879
 21
-9.7618472876
 31
0.0
  0
LINE
  5
218
330
1E6
100
AcDbEntity
  8
0
  6
Continuous
 62
     7
370
    25
100
AcDbLine
 10
-1.4474896879
 20
-9.7618472876
 30
0.0
 11
-1.4474896879
 21
-1.2765659131
 31
0.0
  0
LINE
  5
219
330
1E6
100
AcDbEntity
  8
0
  6
Continuous
 62
     7
370
    25
100
AcDbLine
 10
-1.4474896879
 20
-1.2765659131
 30
0.0
 11
-9.8662188085
 21
-0.2159057418
 31
0.0
  0
LINE
  5
21A
330
1E6
100
AcDbEntity
  8
0
  6
Continuous
 62
     7
370
    25
100
AcDbLine
 10
-10.8016331552
 20
0.84475443
 30
0.0
 11
-10.8016331552
 21
-9.5261450277
 31
0.0
  0
LINE
  5
21B
330
1E6
100
AcDbEntity
  8
0
  6
Continuous
 62
     7
370
    25
100
AcDbLine
 10
-0.5120753412
 20
-0.4516080016
 30
0.0
 11
-10.8016331552
 21
0.84475443
 31
0.0
  0
LINE
  5
21C
330
1E6
100
AcDbEntity
  8
0
  6
Continuous
 62
     7
370
    25
100
AcDbLine
 10
-0.5120753412
 20
-10.8225074593
 30
0.0
 11
-0.5120753412
 21
-0.4516080016
 31
0.0
  0
LINE
  5
21D
330
1E6
100
AcDbEntity
  8
0
  6
Continuous
 62
     7
370
    25
100
AcDbLine
 10
-10.8016331552
 20
-9.5261450277
 30
0.0
 11
-0.5120753412
 21
-10.8225074593
 31
0.0
  0
LINE
  5
21E
330
1E6
100
AcDbEntity
  8
0
  6
Continuous
 62
     7
370
    25
100
AcDbLine
 10
-0.5120753412
 20
-10.8225074593
 30
0.0
 11
-0.1585219507
 21
-10.5107026771
 31
0.0
  0
LINE
  5
21F
330
1E6
100
AcDbEntity
  8
0
  6
Continuous
 62
     7
370
    25
100
AcDbLine
 10
-0.1585219507
 20
-10.5107026771
 30
0.0
 11
-0.1585219507
 21
-0.1398032194
 31
0.0
  0
LINE
  5
220
330
1E6
100
AcDbEntity
  8
0
  6
Continuous
 62
     7
370
    25
100
AcDbLine
 10
-10.8016331552
 20
0.84475443
 30
0.0
 11
-10.4480797647
 21
1.1565592121
 31
0.0
  0
LINE
  5
221
330
1E6
100
AcDbEntity
  8
0
  6
Continuous
 62
     7
370
    25
100
AcDbLine
 10
-0.1585219507
 20
-0.1398032194
 30
0.0
 11
-10.4480797647
 21
1.1565592121
 31
0.0
  0
LINE
  5
222
330
1E6
100
AcDbEntity
  8
0
  6
Continuous
 62
     7
370
    25
100
AcDbLine
 10
-9.5126654179
 20
-8.3893823341
 30
0.0
 11
-1.4474896879
 21
-9.4054989651
 31
0.0
  0
LINE
  5
223
330
1E6
100
AcDbEntity
  8
0
  6
Continuous
 62
     7
370
    25
100
AcDbLine
 10
-8.5328829034
 20
-7.5252953768
 30
0.0
 11
-9.8662188085
 21
-8.7011871163
 31
0.0
  0
LINE
  5
224
330
1E6
100
AcDbEntity
  8
0
  6
Continuous
 62
     7
370
    25
100
AcDbLine
 10
-1.4474896879
 20
-8.7743193364
 30
0.0
 11
-8.8864362939
 21
-7.8371001589
 31
0.0
  0
LINE
  5
225
330
1E6
100
AcDbEntity
  8
0
  6
Continuous
 62
     7
370
    25
100
AcDbLine
 10
-9.5126654179
 20
-0.2604492821
 30
0.0
 11
-9.5126654179
 21
-8.3893823341
 31
0.0
  0
LINE
  5
226
330
1E6
100
AcDbEntity
  8
0
  6
Continuous
 62
     7
370
    25
100
AcDbLine
 10
-8.8864362939
 20
-7.8371001589
 30
0.0
 11
-8.8864362939
 21
-0.3393467357
 31
0.0
  0
LINE
  5
227
330
1E6
100
AcDbEntity
  8
0
  6
Continuous
 62
     7
370
    25
100
AcDbLine
 10
-9.8218506406
 20
3.1526337138
 30
0.0
 11
-9.8218506406
 21
11.1369318034
 31
0.0
  0
LINE
  5
228
330
1E6
100
AcDbEntity
  8
0
  6
Continuous
 62
     7
370
    25
100
AcDbLine
 10
-9.8218506406
 20
11.1369318034
 30
0.0
 11
9.8218506406
 21
8.6620580704
 31
0.0
  0
LINE
  5
229
330
1E6
100
AcDbEntity
  8
0
  6
Continuous
 62
     7
370
    25
100
AcDbLine
 10
9.8218506406
 20
8.6620580704
 30
0.0
 11
9.8218506406
 21
-11.1369318034
 31
0.0
  0
LINE
  5
22A
330
1E6
100
AcDbEntity
  8
0
  6
Continuous
 62
     7
370
    25
100
AcDbLine
 10
9.8218506406
 20
-11.1369318034
 30
0.0
 11
1.9001754611
 21
-10.1388945424
 31
0.0
  0
LINE
  5
22B
330
1E6
100
AcDbEntity
  8
0
  6
Continuous
 62
     7
370
    25
100
AcDbLine
 10
10.1754040311
 20
8.9738628526
 30
0.0
 11
9.8218506406
 21
8.6620580704
 31
0.0
  0
LINE
  5
22C
330
1E6
100
AcDbEntity
  8
0
  6
Continuous
 62
     7
370
    25
100
AcDbLine
 10
10.1754040311
 20
8.9738628526
 30
0.0
 11
10.1754040311
 21
-10.8251270212
 31
0.0
  0
LINE
  5
22D
330
1E6
100
AcDbEntity
  8
0
  6
Continuous
 62
     7
370
    25
100
AcDbLine
 10
10.1754040311
 20
-10.8251270212
 30
0.0
 11
9.8218506406
 21
-11.1369318034
 31
0.0
  0
LINE
  5
22E
330
1E6
100
AcDbEntity
  8
0
  6
Continuous
 62
     7
370
    25
100
AcDbLine
 10
-9.4682972501
 20
11.4487365856
 30
0.0
 11
-9.8218506406
 21
11.1369318034
 31
0.0
  0
LINE
  5
22F
330
1E6
100
AcDbEntity
  8
0
  6
Continuous
 62
     7
370
    25
100
AcDbLine
 10
-9.4682972501
 20
11.4487365856
 30
0.0
 11
10.1754040311
 21
8.9738628526
 31
0.0
  0
LINE
  5
230
330
1E6
100
AcDbEntity
  8
0
  6
Continuous
 62
     7
370
    25
100
AcDbLine
 10
-1.4474896879
 20
-8.4179710139
 30
0.0
 11
-8.5328829034
 21
-7.5252953768
 31
0.0
  0
LINE
  5
231
330
1E6
100
AcDbEntity
  8
0
  6
Continuous
 62
     7
370
    25
100
AcDbLine
 10
-8.5328829034
 20
-7.5252953768
 30
0.0
 11
-8.5328829034
 21
-0.3838902759
 31
0.0
  0
VIEWPORT
  5
242
330
1E6
100
AcDbEntity
  8
0
100
AcDbViewport
 10
0.0
 20
0.0
 30
0.0
 40
8.4
 41
6.4
 68
     1
 69
     1
 12
6.0806361764
 22
-0.0226428438
 13
0.0
 23
0.0
 14
0.5
 24
0.5
 15
0.5
 25
0.5
 16
0.0
 26
0.0
 36
1.0
 17
0.0
 27
0.0
 37
0.0
 42
50.0
 43
0.0
 44
0.0
 45
26.8140318466
 50
0.0
 51
0.0
 72
   100
 90
   557152
  1

281
     0
 71
     1
 74
     0
110
0.0
120
0.0
130
0.0
111
1.0
121
0.0
131
0.0
112
0.0
122
1.0
132
0.0
 79
     0
146
0.0
  0
ENDBLK
  5
1E9
330
1E6
100
AcDbEntity
  8
0
100
AcDbBlockEnd
  0
ENDSEC
  0
SECTION
  2
ENTITIES
  0
LINE
  5
63
330
1F
100
AcDbEntity
  8
0
  6
Continuous
 62
     7
100
AcDbLine
 10
0.0
 20
0.0
 30
0.0
 11
-0.0781327504
 21
0.0693249653
 31
0.0
  0
LINE
  5
64
330
1F
100
AcDbEntity
  8
0
  6
Continuous
 62
     7
100
AcDbLine
 10
0.0
 20
0.0
 30
0.0
 11
0.0273965666
 21
0.4479951907
 31
0.0
  0
POINT
  5
65
330
1F
100
AcDbEntity
  8
0
  6
Continuous
 62
     7
100
AcDbPoint
 10
0.0
 20
0.0
 30
0.0
  0
LINE
  5
85
330
1F
100
AcDbEntity
  8
0
  6
Continuous
 62
     7
370
    25
100
AcDbLine
 10
1.9412480176
 20
-13.166776102
 30
0.0
 11
2.8824112267
 21
-13.1214904143
 31
0.0
  0
LINE
  5
86
330
1F
100
AcDbEntity
  8
0
  6
Continuous
 62
     7
370
    25
100
AcDbLine
 10
1.9412480176
 20
-13.166776102
 30
0.0
 11
3.1668059351
 21
6.8738392092
 31
0.0
  0
LINE
  5
87
330
1F
100
AcDbEntity
  8
0
  6
Continuous
 62
     7
370
    25
100
AcDbLine
 10
3.1668059351
 20
6.8738392092
 30
0.0
 11
4.1079691442
 21
6.9191248969
 31
0.0
  0
LINE
  5
88
330
1F
100
AcDbEntity
  8
0
  6
Continuous
 62
     7
370
    25
100
AcDbLine
 10
2.8824112267
 20
-13.1214904143
 30
0.0
 11
4.1079691442
 21
6.9191248969
 31
0.0
  0
LINE
  5
89
330
1F
100
AcDbEntity
  8
0
  6
Continuous
 62
     7
370
    25
100
AcDbLine
 10
3.1668059351
 20
6.8738392092
 30
0.0
 11
-3.8235744357
 21
13.0762047267
 31
0.0
  0
LINE
  5
8A
330
1F
100
AcDbEntity
  8
0
  6
Continuous
 62
     7
370
    25
100
AcDbLine
 10
-3.8235744357
 20
13.0762047267
 30
0.0
 11
-2.8824112267
 21
13.1214904143
 31
0.0
  0
LINE
  5
8B
330
1F
100
AcDbEntity
  8
0
  6
Continuous
 62
     7
370
    25
100
AcDbLine
 10
4.1079691442
 20
6.9191248969
 30
0.0
 11
-2.8824112267
 21
13.1214904143
 31
0.0
  0
LINE
  5
8C
330
1F
100
AcDbEntity
  8
0
  6
Continuous
 62
     7
370
    25
100
AcDbLine
 10
-3.5490590808
 20
11.8265389729
 30
0.0
 11
-4.6578971967
 21
-6.3054463086
 31
0.0
  0
LINE
  5
8D
330
1F
100
AcDbEntity
  8
0
  6
Continuous
 62
     7
370
    25
100
AcDbLine
 10
-4.6578971967
 20
-6.3054463086
 30
0.0
 11
1.6667326627
 21
-11.9171103482
 31
0.0
  0
LINE
  5
8E
330
1F
100
AcDbEntity
  8
0
  6
Continuous
 62
     7
370
    25
100
AcDbLine
 10
1.6667326627
 20
-11.9171103482
 30
0.0
 11
2.7755707786
 21
6.2148749333
 31
0.0
  0
LINE
  5
8F
330
1F
100
AcDbEntity
  8
0
  6
Continuous
 62
     7
370
    25
100
AcDbLine
 10
2.7755707786
 20
6.2148749333
 30
0.0
 11
-3.5490590808
 21
11.8265389729
 31
0.0
  0
LINE
  5
90
330
1F
100
AcDbEntity
  8
0
  6
Continuous
 62
     7
370
    25
100
AcDbLine
 10
-3.8235744357
 20
13.0762047267
 30
0.0
 11
-5.0491323533
 21
-6.9644105845
 31
0.0
  0
LINE
  5
91
330
1F
100
AcDbEntity
  8
0
  6
Continuous
 62
     7
370
    25
100
AcDbLine
 10
-5.0491323533
 20
-6.9644105845
 30
0.0
 11
1.9412480176
 21
-13.166776102
 31
0.0
  0
LINE
  5
92
330
1F
100
AcDbEntity
  8
0
  6
Continuous
 62
     7
370
    25
100
AcDbLine
 10
16.0736239188
 20
3.9741066945
 30
0.0
 11
15.4900249104
 21
-5.5690434537
 31
0.0
  0
LINE
  5
93
330
1F
100
AcDbEntity
  8
0
  6
Continuous
 62
     7
370
    25
100
AcDbLine
 10
15.4900249104
 20
-5.5690434537
 30
0.0
 11
2.9266553316
 21
-12.3980002605
 31
0.0
  0
LINE
  5
94
330
1F
100
AcDbEntity
  8
0
  6
Continuous
 62
     7
370
    25
100
AcDbLine
 10
16.0736239188
 20
3.9741066945
 30
0.0
 11
4.08554222
 21
6.5523944852
 31
0.0
  0
LINE
  5
95
330
1F
100
AcDbEntity
  8
0
  6
Continuous
 62
     7
370
    25
100
AcDbLine
 10
12.7448713612
 20
6.9276140837
 30
0.0
 11
16.0736239188
 21
3.9741066945
 31
0.0
  0
LINE
  5
96
330
1F
100
AcDbEntity
  8
0
  6
Continuous
 62
     7
370
    25
100
AcDbLine
 10
12.7448713612
 20
6.9276140837
 30
0.0
 11
-1.791954358
 21
12.1539590752
 31
0.0
  0
LINE
  5
97
330
1F
100
AcDbEntity
  8
0
  6
Continuous
 62
     7
370
    25
100
AcDbLine
 10
-3.7167339876
 20
-6.260160621
 30
0.0
 11
1.717798674
 21
-11.0820667542
 31
0.0
  0
LINE
  5
98
330
1F
100
AcDbEntity
  8
0
  6
Continuous
 62
     7
370
    25
100
AcDbLine
 10
-3.7167339876
 20
-6.260160621
 30
0.0
 11
2.1006340488
 21
-4.8218514149
 31
0.0
  0
LINE
  5
99
330
1F
100
AcDbEntity
  8
0
  6
Continuous
 62
     7
370
    25
100
AcDbLine
 10
-4.6578971967
 20
-6.3054463086
 30
0.0
 11
-3.7167339876
 21
-6.260160621
 31
0.0
  0
LINE
  5
9A
330
1F
100
AcDbEntity
  8
0
  6
Continuous
 62
     7
370
    25
100
AcDbLine
 10
12.573177737
 20
6.989342148
 30
0.0
 11
12.6076136838
 21
7.5524469606
 31
0.0
  0
LINE
  5
9B
330
1F
100
AcDbEntity
  8
0
  6
Continuous
 62
     7
370
    25
100
AcDbLine
 10
12.6076136838
 20
7.5524469606
 30
0.0
 11
16.2692414971
 21
4.3035888324
 31
0.0
  0
LINE
  5
9C
330
1F
100
AcDbEntity
  8
0
  6
Continuous
 62
     7
370
    25
100
AcDbLine
 10
16.2692414971
 20
4.3035888324
 30
0.0
 11
15.6272825879
 21
-6.1938763306
 31
0.0
  0
LINE
  5
9D
330
1F
100
AcDbEntity
  8
0
  6
Continuous
 62
     7
370
    25
100
AcDbLine
 10
15.6272825879
 20
-6.1938763306
 30
0.0
 11
15.1384477268
 21
-5.7601470734
 31
0.0
  0
LINE
  5
9E
330
1F
100
AcDbEntity
  8
0
  6
Continuous
 62
     7
370
    25
100
AcDbLine
 10
13.5487768928
 20
7.5977326483
 30
0.0
 11
12.6076136838
 21
7.5524469606
 31
0.0
  0
LINE
  5
9F
330
1F
100
AcDbEntity
  8
0
  6
Continuous
 62
     7
370
    25
100
AcDbLine
 10
13.5487768928
 20
7.5977326483
 30
0.0
 11
17.2104047061
 21
4.3488745201
 31
0.0
  0
LINE
  5
A0
330
1F
100
AcDbEntity
  8
0
  6
Continuous
 62
     7
370
    25
100
AcDbLine
 10
17.2104047061
 20
4.3488745201
 30
0.0
 11
16.2692414971
 21
4.3035888324
 31
0.0
  0
LINE
  5
A1
330
1F
100
AcDbEntity
  8
0
  6
Continuous
 62
     7
370
    25
100
AcDbLine
 10
17.2104047061
 20
4.3488745201
 30
0.0
 11
16.568445797
 21
-6.1485906429
 31
0.0
  0
LINE
  5
A2
330
1F
100
AcDbEntity
  8
0
  6
Continuous
 62
     7
370
    25
100
AcDbLine
 10
16.568445797
 20
-6.1485906429
 30
0.0
 11
15.6272825879
 21
-6.1938763306
 31
0.0
  0
LINE
  5
A3
330
1F
100
AcDbEntity
  8
0
  6
Continuous
 62
     7
370
    25
100
AcDbLine
 10
-2.6589618831
 20
11.0367810665
 30
0.0
 11
-3.7167339876
 21
-6.260160621
 31
0.0
  0
LINE
  5
A4
330
1B
100
AcDbEntity
 67
     1
  8
0
  6
Continuous
 62
     7
100
AcDbLine
 10
0.0
 20
0.0
 30
0.0
 11
0.2347208122
 21
0.0
 31
0.0
  0
LINE
  5
A5
330
1B
100
AcDbEntity
 67
     1
  8
0
  6
Continuous
 62
     7
100
AcDbLine
 10
0.0
 20
0.0
 30
0.0
 11
0.0
 21
0.4694416244
 31
0.0
  0
POINT
  5
A6
330
1B
100
AcDbEntity
 67
     1
  8
0
  6
Continuous
 62
     7
100
AcDbPoint
 10
0.0
 20
0.0
 30
0.0
  0
LINE
  5
BB
330
1B
100
AcDbEntity
 67
     1
  8
0
  6
Continuous
 62
     7
370
    25
100
AcDbLine
 10
5.5
 20
5.5
 30
0.0
 11
-5.5
 21
5.5
 31
0.0
  0
LINE
  5
BC
330
1B
100
AcDbEntity
 67
     1
  8
0
  6
Continuous
 62
     7
370
    25
100
AcDbLine
 10
-5.5
 20
-5.5
 30
0.0
 11
5.5
 21
-5.5
 31
0.0
  0
LINE
  5
BD
330
1B
100
AcDbEntity
 67
     1
  8
0
  6
Continuous
 62
     7
370
    25
100
AcDbLine
 10
-5.5
 20
5.5
 30
0.0
 11
-5.5
 21
-5.5
 31
0.0
  0
LINE
  5
BE
330
1B
100
AcDbEntity
 67
     1
  8
0
  6
Continuous
 62
     7
370
    25
100
AcDbLine
 10
5.5
 20
-5.5
 30
0.0
 11
5.5
 21
5.5
 31
0.0
  0
LINE
  5
BF
330
1B
100
AcDbEntity
 67
     1
  8
0
  6
Continuous
 62
     7
370
    25
100
AcDbLine
 10
4.5
 20
4.5
 30
0.0
 11
-4.5
 21
4.5
 31
0.0
  0
LINE
  5
C0
330
1B
100
AcDbEntity
 67
     1
  8
0
  6
Continuous
 62
     7
370
    25
100
AcDbLine
 10
-4.5
 20
-4.5
 30
0.0
 11
4.5
 21
-4.5
 31
0.0
  0
LINE
  5
C1
330
1B
100
AcDbEntity
 67
     1
  8
0
  6
Continuous
 62
     7
370
    25
100
AcDbLine
 10
-4.5
 20
4.5
 30
0.0
 11
-4.5
 21
-4.5
 31
0.0
  0
LINE
  5
C2
330
1B
100
AcDbEntity
 67
     1
  8
0
  6
Continuous
 62
     7
370
    25
100
AcDbLine
 10
4.5
 20
-4.5
 30
0.0
 11
4.5
 21
4.5
 31
0.0
  0
LINE
  5
C3
330
1B
100
AcDbEntity
 67
     1
  8
0
  6
Continuous
 62
     7
370
    25
100
AcDbLine
 10
5.5
 20
5.5
 30
0.0
 11
10.0
 21
10.0
 31
0.0
  0
LINE
  5
C4
330
1B
100
AcDbEntity
 67
     1
  8
0
  6
Continuous
 62
     7
370
    25
100
AcDbLine
 10
10.0
 20
-10.0
 30
0.0
 11
10.0
 21
10.0
 31
0.0
  0
LINE
  5
C5
330
1B
100
AcDbEntity
 67
     1
  8
0
  6
Continuous
 62
     7
370
    25
100
AcDbLine
 10
5.5
 20
-5.5
 30
0.0
 11
10.0
 21
-10.0
 31
0.0
  0
LINE
  5
C6
330
1B
100
AcDbEntity
 67
     1
  8
0
  6
Continuous
 62
     7
370
    25
100
AcDbLine
 10
-5.5
 20
-5.5
 30
0.0
 11
-10.0
 21
-10.0
 31
0.0
  0
LINE
  5
C7
330
1B
100
AcDbEntity
 67
     1
  8
0
  6
Continuous
 62
     7
370
    25
100
AcDbLine
 10
-10.0
 20
10.0
 30
0.0
 11
-10.0
 21
-10.0
 31
0.0
  0
LINE
  5
C8
330
1B
100
AcDbEntity
 67
     1
  8
0
  6
Continuous
 62
     7
370
    25
100
AcDbLine
 10
-5.5
 20
5.5
 30
0.0
 11
-10.0
 21
10.0
 31
0.0
  0
LINE
  5
C9
330
1B
100
AcDbEntity
 67
     1
  8
0
  6
Continuous
 62
     7
370
    25
100
AcDbLine
 10
-10.0
 20
-10.0
 30
0.0
 11
10.0
 21
-10.0
 31
0.0
  0
LINE
  5
CA
330
1B
100
AcDbEntity
 67
     1
  8
0
  6
Continuous
 62
     7
370
    25
100
AcDbLine
 10
10.0
 20
10.0
 30
0.0
 11
-10.0
 21
10.0
 31
0.0
  0
LINE
  5
CB
330
1B
100
AcDbEntity
 67
     1
  8
0
  6
Continuous
 62
     7
370
    25
100
AcDbLine
 10
-10.5
 20
-10.5
 30
0.0
 11
-10.5
 21
10.5
 31
0.0
  0
LINE
  5
CC
330
1B
100
AcDbEntity
 67
     1
  8
0
  6
Continuous
 62
     7
370
    25
100
AcDbLine
 10
-10.5
 20
10.5
 30
0.0
 11
10.5
 21
10.5
 31
0.0
  0
LINE
  5
CD
330
1B
100
AcDbEntity
 67
     1
  8
0
  6
Continuous
 62
     7
370
    25
100
AcDbLine
 10
10.5
 20
10.5
 30
0.0
 11
10.5
 21
-10.5
 31
0.0
  0
LINE
  5
CE
330
1B
100
AcDbEntity
 67
     1
  8
0
  6
Continuous
 62
     7
370
    25
100
AcDbLine
 10
10.5
 20
-10.5
 30
0.0
 11
-10.5
 21
-10.5
 31
0.0
  0
VIEWPORT
  5
232
330
1B
100
AcDbEntity
 67
     1
  8
0
100
AcDbViewport
 10
0.0
 20
0.0
 30
0.0
 40
8.4
 41
6.4
 68
     1
 69
     1
 12
6.0806361764
 22
-0.0226428438
 13
0.0
 23
0.0
 14
0.5
 24
0.5
 15
0.5
 25
0.5
 16
0.0
 26
0.0
 36
1.0
 17
0.0
 27
0.0
 37
0.0
 42
50.0
 43
0.0
 44
0.0
 45
26.8140318466
 50
0.0
 51
0.0
 72
   100
 90
   557152
  1

281
     0
 71
     1
 74
     0
110
0.0
120
0.0
130
0.0
111
1.0
121
0.0
131
0.0
112
0.0
122
1.0
132
0.0
 79
     0
146
0.0
  0
ENDSEC
  0
SECTION
  2
OBJECTS
  0
DICTIONARY
  5
C
330
0
100
AcDbDictionary
281
     1
  3
ACAD_GROUP
350
D
  3
ACAD_LAYOUT
350
1A
  3
ACAD_MLINESTYLE
350
17
  3
ACAD_PLOTSETTINGS
350
19
  3
ACAD_PLOTSTYLENAME
350
E
  3
ACAD_SCALELIST
350
47
  3
DWGPROPS
350
244
  0
DICTIONARY
  5
D
102
{ACAD_REACTORS
330
C
102
}
330
C
100
AcDbDictionary
281
     1
  0
DICTIONARY
  5
1A
102
{ACAD_REACTORS
330
C
102
}
330
C
100
AcDbDictionary
281
     1
  3
_Back
350
E4
  3
_Bottom
350
13B
  3
_Dimetric
350
1E7
  3
_Front
350
1E
  3
_Isometric
350
153
  3
_Left
350
10B
  3
_Right
350
123
  3
_Top
350
26
  3
_Trimetric
350
198
  3
Model
350
22
  0
DICTIONARY
  5
17
102
{ACAD_REACTORS
330
C
102
}
330
C
100
AcDbDictionary
281
     1
  3
Standard
350
18
  0
DICTIONARY
  5
19
102
{ACAD_REACTORS
330
C
102
}
330
C
100
AcDbDictionary
281
     1
  0
ACDBDICTIONARYWDFLT
  5
E
102
{ACAD_REACTORS
330
C
102
}
330
C
100
AcDbDictionary
281
     1
  3
Normal
350
F
100
AcDbDictionaryWithDefault
340
F
  0
DICTIONARY
  5
47
102
{ACAD_REACTORS
330
C
102
}
330
C
100
AcDbDictionary
281
     1
  3
A0
350
48
  3
A1
350
49
  3
A2
350
4A
  3
A3
350
4B
  3
A4
350
4C
  3
A5
350
4D
  3
A6
350
4E
  3
A7
350
4F
  3
A8
350
50
  3
A9
350
51
  3
B1
350
52
  3
B2
350
53
  3
B3
350
54
  3
B4
350
55
  3
B5
350
56
  3
B6
350
57
  3
B7
350
58
  0
XRECORD
  5
244
102
{ACAD_REACTORS
330
C
102
}
330
C
100
AcDbXrecord
280
     1
  1
DWGPROPS COOKIE
  2

  3

  4

  6

  7

  8
Maddie
  9

300
=
301
=
302
=
303
=
304
=
305
=
306
=
307
=
308
=
309
=
 40
0.0
 41
2461059.545534664
 42
2461059.545693403
  1

 90
        0
  0
LAYOUT
  5
E4
102
{ACAD_REACTORS
330
1A
102
}
330
1A
100
AcDbPlotSettings
  1

  2
none_device
  4
Letter_(8.50_x_11.00_Inches)
  6

 40
6.35
 41
6.35
 42
6.35001
 43
6.35001
 44
215.9
 45
279.4
 46
0.0
 47
0.0
 48
0.0
 49
0.0
140
0.0
141
0.0
142
1.0
143
2.6250001292
 70
   688
 72
     0
 73
     1
 74
     1
  7

 75
     0
147
0.3809523622
148
266.7
149
266.7
100
AcDbLayout
  1
_Back
 70
     1
 71
     3
 10
0.0
 20
0.0
 11
0.0
 21
0.0
 12
0.0
 22
0.0
 32
0.0
 14
0.0
 24
0.0
 34
0.0
 15
0.0
 25
0.0
 35
0.0
146
0.0
 13
0.0
 23
0.0
 33
0.0
 16
1.0
 26
0.0
 36
0.0
 17
0.0
 27
1.0
 37
0.0
 76
     0
330
E3
331
236
  0
LAYOUT
  5
13B
102
{ACAD_REACTORS
330
1A
102
}
330
1A
100
AcDbPlotSettings
  1

  2
none_device
  4
Letter_(8.50_x_11.00_Inches)
  6

 40
6.35
 41
6.35
 42
6.35001
 43
6.35001
 44
215.9
 45
279.4
 46
0.0
 47
0.0
 48
0.0
 49
0.0
140
0.0
141
0.0
142
1.0
143
2.6250001292
 70
   688
 72
     0
 73
     1
 74
     1
  7

 75
     0
147
0.3809523622
148
266.7
149
266.7
100
AcDbLayout
  1
_Bottom
 70
     1
 71
     6
 10
0.0
 20
0.0
 11
0.0
 21
0.0
 12
0.0
 22
0.0
 32
0.0
 14
0.0
 24
0.0
 34
0.0
 15
0.0
 25
0.0
 35
0.0
146
0.0
 13
0.0
 23
0.0
 33
0.0
 16
1.0
 26
0.0
 36
0.0
 17
0.0
 27
1.0
 37
0.0
 76
     0
330
13A
331
23C
  0
LAYOUT
  5
1E7
102
{ACAD_REACTORS
330
1A
102
}
330
1A
100
AcDbPlotSettings
  1

  2
none_device
  4
Letter_(8.50_x_11.00_Inches)
  6

 40
6.35
 41
6.35
 42
6.35001
 43
6.35001
 44
215.9
 45
279.4
 46
0.0
 47
0.0
 48
0.0
 49
0.0
140
0.0
141
0.0
142
1.0
143
2.6250001292
 70
   688
 72
     0
 73
     1
 74
     1
  7

 75
     0
147
0.3809523622
148
266.7
149
266.7
100
AcDbLayout
  1
_Dimetric
 70
     1
 71
     9
 10
0.0
 20
0.0
 11
0.0
 21
0.0
 12
0.0
 22
0.0
 32
0.0
 14
0.0
 24
0.0
 34
0.0
 15
0.0
 25
0.0
 35
0.0
146
0.0
 13
0.0
 23
0.0
 33
0.0
 16
1.0
 26
0.0
 36
0.0
 17
0.0
 27
1.0
 37
0.0
 76
     0
330
1E6
331
242
  0
LAYOUT
  5
1E
102
{ACAD_REACTORS
330
1A
102
}
330
1A
100
AcDbPlotSettings
  1

  2
none_device
  4
Letter_(8.50_x_11.00_Inches)
  6

 40
6.35
 41
6.35
 42
6.35001
 43
6.35001
 44
215.9
 45
279.4
 46
0.0
 47
0.0
 48
0.0
 49
0.0
140
0.0
141
0.0
142
1.0
143
2.6250001292
 70
   688
 72
     0
 73
     1
 74
     1
  7

 75
     0
147
0.3809523622
148
266.7
149
266.7
100
AcDbLayout
  1
_Front
 70
     1
 71
     1
 10
-11.1562510658
 20
-11.1562500323
 11
17.7187503553
 21
11.1562510658
 12
0.0
 22
0.0
 32
0.0
 14
-10.5
 24
-10.5
 34
0.0
 15
10.5
 25
10.5
 35
0.0
146
0.0
 13
0.0
 23
0.0
 33
0.0
 16
1.0
 26
0.0
 36
0.0
 17
0.0
 27
1.0
 37
0.0
 76
     0
330
1B
331
232
  0
LAYOUT
  5
153
102
{ACAD_REACTORS
330
1A
102
}
330
1A
100
AcDbPlotSettings
  1

  2
none_device
  4
Letter_(8.50_x_11.00_Inches)
  6

 40
6.35
 41
6.35
 42
6.35001
 43
6.35001
 44
215.9
 45
279.4
 46
0.0
 47
0.0
 48
0.0
 49
0.0
140
0.0
141
0.0
142
1.0
143
2.6250001292
 70
   688
 72
     0
 73
     1
 74
     1
  7

 75
     0
147
0.3809523622
148
266.7
149
266.7
100
AcDbLayout
  1
_Isometric
 70
     1
 71
     7
 10
0.0
 20
0.0
 11
0.0
 21
0.0
 12
0.0
 22
0.0
 32
0.0
 14
0.0
 24
0.0
 34
0.0
 15
0.0
 25
0.0
 35
0.0
146
0.0
 13
0.0
 23
0.0
 33
0.0
 16
1.0
 26
0.0
 36
0.0
 17
0.0
 27
1.0
 37
0.0
 76
     0
330
152
331
23E
  0
LAYOUT
  5
10B
102
{ACAD_REACTORS
330
1A
102
}
330
1A
100
AcDbPlotSettings
  1

  2
none_device
  4
Letter_(8.50_x_11.00_Inches)
  6

 40
6.35
 41
6.35
 42
6.35001
 43
6.35001
 44
215.9
 45
279.4
 46
0.0
 47
0.0
 48
0.0
 49
0.0
140
0.0
141
0.0
142
1.0
143
2.6250001292
 70
   688
 72
     0
 73
     1
 74
     1
  7

 75
     0
147
0.3809523622
148
266.7
149
266.7
100
AcDbLayout
  1
_Left
 70
     1
 71
     4
 10
0.0
 20
0.0
 11
0.0
 21
0.0
 12
0.0
 22
0.0
 32
0.0
 14
0.0
 24
0.0
 34
0.0
 15
0.0
 25
0.0
 35
0.0
146
0.0
 13
0.0
 23
0.0
 33
0.0
 16
1.0
 26
0.0
 36
0.0
 17
0.0
 27
1.0
 37
0.0
 76
     0
330
10A
331
238
  0
LAYOUT
  5
123
102
{ACAD_REACTORS
330
1A
102
}
330
1A
100
AcDbPlotSettings
  1

  2
none_device
  4
Letter_(8.50_x_11.00_Inches)
  6

 40
6.35
 41
6.35
 42
6.35001
 43
6.35001
 44
215.9
 45
279.4
 46
0.0
 47
0.0
 48
0.0
 49
0.0
140
0.0
141
0.0
142
1.0
143
2.6250001292
 70
   688
 72
     0
 73
     1
 74
     1
  7

 75
     0
147
0.3809523622
148
266.7
149
266.7
100
AcDbLayout
  1
_Right
 70
     1
 71
     5
 10
0.0
 20
0.0
 11
0.0
 21
0.0
 12
0.0
 22
0.0
 32
0.0
 14
0.0
 24
0.0
 34
0.0
 15
0.0
 25
0.0
 35
0.0
146
0.0
 13
0.0
 23
0.0
 33
0.0
 16
1.0
 26
0.0
 36
0.0
 17
0.0
 27
1.0
 37
0.0
 76
     0
330
122
331
23A
  0
LAYOUT
  5
26
102
{ACAD_REACTORS
330
1A
102
}
330
1A
100
AcDbPlotSettings
  1

  2
none_device
  4
Letter_(8.50_x_11.00_Inches)
  6

 40
6.35
 41
6.35
 42
6.35001
 43
6.35001
 44
215.9
 45
279.4
 46
0.0
 47
0.0
 48
0.0
 49
0.0
140
0.0
141
0.0
142
1.0
143
2.6250001292
 70
   688
 72
     0
 73
     1
 74
     1
  7

 75
     0
147
0.3809523622
148
266.7
149
266.7
100
AcDbLayout
  1
_Top
 70
     1
 71
     2
 10
0.0
 20
0.0
 11
0.0
 21
0.0
 12
0.0
 22
0.0
 32
0.0
 14
0.0
 24
0.0
 34
0.0
 15
0.0
 25
0.0
 35
0.0
146
0.0
 13
0.0
 23
0.0
 33
0.0
 16
1.0
 26
0.0
 36
0.0
 17
0.0
 27
1.0
 37
0.0
 76
     0
330
23
331
234
  0
LAYOUT
  5
198
102
{ACAD_REACTORS
330
1A
102
}
330
1A
100
AcDbPlotSettings
  1

  2
none_device
  4
Letter_(8.50_x_11.00_Inches)
  6

 40
6.35
 41
6.35
 42
6.35001
 43
6.35001
 44
215.9
 45
279.4
 46
0.0
 47
0.0
 48
0.0
 49
0.0
140
0.0
141
0.0
142
1.0
143
2.6250001292
 70
   688
 72
     0
 73
     1
 74
     1
  7

 75
     0
147
0.3809523622
148
266.7
149
266.7
100
AcDbLayout
  1
_Trimetric
 70
     1
 71
     8
 10
0.0
 20
0.0
 11
0.0
 21
0.0
 12
0.0
 22
0.0
 32
0.0
 14
0.0
 24
0.0
 34
0.0
 15
0.0
 25
0.0
 35
0.0
146
0.0
 13
0.0
 23
0.0
 33
0.0
 16
1.0
 26
0.0
 36
0.0
 17
0.0
 27
1.0
 37
0.0
 76
     0
330
197
331
240
  0
LAYOUT
  5
22
102
{ACAD_REACTORS
330
1A
102
}
330
1A
100
AcDbPlotSettings
  1

  2
none_device
  4
ANSI_A_(11.00_x_8.50_Inches)
  6

 40
6.35
 41
19.05
 42
6.35000508
 43
19.05000254
 44
279.4
 45
215.9
 46
83.9104021873
 47
89.0841000316
 48
0.0
 49
0.0
140
0.0
141
0.0
142
0.3201047888
143
1.0
 70
  1696
 72
     0
 73
     0
 74
     0
  7

 75
     0
147
0.5913241897
148
-39.4088153714
149
0.0
100
AcDbLayout
  1
Model
 70
     1
 71
     0
 10
0.0
 20
0.0
 11
12.0
 21
9.0
 12
0.0
 22
0.0
 32
0.0
 14
-5.0491323533
 24
-13.166776102
 34
0.0
 15
17.2104047061
 25
13.1214904143
 35
0.0
146
0.0
 13
0.0
 23
0.0
 33
0.0
 16
1.0
 26
0.0
 36
0.0
 17
0.0
 27
1.0
 37
0.0
 76
     0
330
1F
331
29
  0
MLINESTYLE
  5
18
102
{ACAD_REACTORS
330
17
102
}
330
17
100
AcDbMlineStyle
  2
Standard
 70
     0
  3

 62
   256
 51
90.0
 52
90.0
 71
     2
 49
0.5
 62
   256
  6
BYLAYER
 49
-0.5
 62
   256
  6
BYLAYER
  0
ACDBPLACEHOLDER
  5
F
102
{ACAD_REACTORS
330
E
102
}
330
E
  0
SCALE
  5
48
102
{ACAD_REACTORS
330
47
102
}
330
47
100
AcDbScale
 70
     0
300
1:1
140
1.0
141
1.0
290
     1
  0
SCALE
  5
49
102
{ACAD_REACTORS
330
47
102
}
330
47
100
AcDbScale
 70
     0
300
1/128" = 1'-0"
140
0.0078125
141
12.0
290
     0
  0
SCALE
  5
4A
102
{ACAD_REACTORS
330
47
102
}
330
47
100
AcDbScale
 70
     0
300
1/64" = 1'-0"
140
0.015625
141
12.0
290
     0
  0
SCALE
  5
4B
102
{ACAD_REACTORS
330
47
102
}
330
47
100
AcDbScale
 70
     0
300
1/32" = 1'-0"
140
0.03125
141
12.0
290
     0
  0
SCALE
  5
4C
102
{ACAD_REACTORS
330
47
102
}
330
47
100
AcDbScale
 70
     0
300
1/16" = 1'-0"
140
0.0625
141
12.0
290
     0
  0
SCALE
  5
4D
102
{ACAD_REACTORS
330
47
102
}
330
47
100
AcDbScale
 70
     0
300
3/32" = 1'-0"
140
0.09375
141
12.0
290
     0
  0
SCALE
  5
4E
102
{ACAD_REACTORS
330
47
102
}
330
47
100
AcDbScale
 70
     0
300
1/8" = 1'-0"
140
0.125
141
12.0
290
     0
  0
SCALE
  5
4F
102
{ACAD_REACTORS
330
47
102
}
330
47
100
AcDbScale
 70
     0
300
3/16" = 1'-0"
140
0.1875
141
12.0
290
     0
  0
SCALE
  5
50
102
{ACAD_REACTORS
330
47
102
}
330
47
100
AcDbScale
 70
     0
300
1/4" = 1'-0"
140
0.25
141
12.0
290
     0
  0
SCALE
  5
51
102
{ACAD_REACTORS
330
47
102
}
330
47
100
AcDbScale
 70
     0
300
3/8" = 1'-0"
140
0.375
141
12.0
290
     0
  0
SCALE
  5
52
102
{ACAD_REACTORS
330
47
102
}
330
47
100
AcDbScale
 70
     0
300
1/2" = 1'-0"
140
0.5
141
12.0
290
     0
  0
SCALE
  5
53
102
{ACAD_REACTORS
330
47
102
}
330
47
100
AcDbScale
 70
     0
300
3/4" = 1'-0"
140
0.75
141
12.0
290
     0
  0
SCALE
  5
54
102
{ACAD_REACTORS
330
47
102
}
330
47
100
AcDbScale
 70
     0
300
1" = 1'-0"
140
1.0
141
12.0
290
     0
  0
SCALE
  5
55
102
{ACAD_REACTORS
330
47
102
}
330
47
100
AcDbScale
 70
     0
300
1-1/2" = 1'-0"
140
1.5
141
12.0
290
     0
  0
SCALE
  5
56
102
{ACAD_REACTORS
330
47
102
}
330
47
100
AcDbScale
 70
     0
300
3" = 1'-0"
140
3.0
141
12.0
290
     0
  0
SCALE
  5
57
102
{ACAD_REACTORS
330
47
102
}
330
47
100
AcDbScale
 70
     0
300
6" = 1'-0"
140
6.0
141
12.0
290
     0
  0
SCALE
  5
58
102
{ACAD_REACTORS
330
47
102
}
330
47
100
AcDbScale
 70
     0
300
1'-0" = 1'-0"
140
12.0
141
12.0
290
     0
  0
ENDSEC
  0
EOF
