  0
SECTION
  2
HEADER
  9
$ACADVER
  1
AC1015
  9
$ACADMAINTVER
 70
     6
  9
$DWGCODEPAGE
  3
ANSI_1252
  9
$INSBASE
 10
0.0
 20
0.0
 30
0.0
  9
$EXTMIN
 10
-63.2939516535
 20
-12.7488896045
 30
0.0
  9
$EXTMAX
 10
3.4719513615
 20
12.7423087663
 30
0.0
  9
$LIMMIN
 10
0.0
 20
0.0
  9
$LIMMAX
 10
12.0
 20
9.0
  9
$ORTHOMODE
 70
     0
  9
$REGENMODE
 70
     1
  9
$FILLMODE
 70
     1
  9
$QTEXTMODE
 70
     0
  9
$MIRRTEXT
 70
     1
  9
$LTSCALE
 40
1.0
  9
$ATTMODE
 70
     1
  9
$TEXTSIZE
 40
0.125
  9
$TRACEWID
 40
0.05
  9
$TEXTSTYLE
  7
Standard
  9
$CLAYER
  8
0
  9
$CELTYPE
  6
ByLayer
  9
$CECOLOR
 62
   256
  9
$CELTSCALE
 40
1.0
  9
$DISPSILH
 70
     0
  9
$DIMSCALE
 40
1.0
  9
$DIMASZ
 40
0.13
  9
$DIMEXO
 40
0.0
  9
$DIMDLI
 40
0.38
  9
$DIMRND
 40
0.0
  9
$DIMDLE
 40
0.0
  9
$DIMEXE
 40
0.125
  9
$DIMTP
 40
0.0
  9
$DIMTM
 40
0.0
  9
$DIMTXT
 40
0.125
  9
$DIMCEN
 40
0.09
  9
$DIMTSZ
 40
0.0
  9
$DIMTOL
 70
     0
  9
$DIMLIM
 70
     0
  9
$DIMTIH
 70
     1
  9
$DIMTOH
 70
     1
  9
$DIMSE1
 70
     0
  9
$DIMSE2
 70
     0
  9
$DIMTAD
 70
     0
  9
$DIMZIN
 70
     1
  9
$DIMBLK
  1

  9
$DIMASO
 70
     1
  9
$DIMSHO
 70
     1
  9
$DIMPOST
  1

  9
$DIMAPOST
  1

  9
$DIMALT
 70
     0
  9
$DIMALTD
 70
     2
  9
$DIMALTF
 40
25.4
  9
$DIMLFAC
 40
1.0
  9
$DIMTOFL
 70
     0
  9
$DIMTVP
 40
0.0
  9
$DIMTIX
 70
     0
  9
$DIMSOXD
 70
     0
  9
$DIMSAH
 70
     0
  9
$DIMBLK1
  1

  9
$DIMBLK2
  1

  9
$DIMSTYLE
  2
Standard
  9
$DIMCLRD
 70
     0
  9
$DIMCLRE
 70
     0
  9
$DIMCLRT
 70
     0
  9
$DIMTFAC
 40
1.0
  9
$DIMGAP
 40
0.06
  9
$DIMJUST
 70
     0
  9
$DIMSD1
 70
     0
  9
$DIMSD2
 70
     0
  9
$DIMTOLJ
 70
     1
  9
$DIMTZIN
 70
     1
  9
$DIMALTZ
 70
     0
  9
$DIMALTTZ
 70
     0
  9
$DIMUPT
 70
     0
  9
$DIMDEC
 70
     2
  9
$DIMTDEC
 70
     2
  9
$DIMALTU
 70
     2
  9
$DIMALTTD
 70
     2
  9
$DIMTXSTY
  7
Standard
  9
$DIMAUNIT
 70
     0
  9
$DIMADEC
 70
     2
  9
$DIMALTRND
 40
0.0
  9
$DIMAZIN
 70
     0
  9
$DIMDSEP
 70
    46
  9
$DIMATFIT
 70
     3
  9
$DIMFRAC
 70
     0
  9
$DIMLDRBLK
  1

  9
$DIMLUNIT
 70
     2
  9
$DIMLWD
 70
    -2
  9
$DIMLWE
 70
    -2
  9
$DIMTMOVE
 70
     0
  9
$LUNITS
 70
     2
  9
$LUPREC
 70
     2
  9
$SKETCHINC
 40
0.1
  9
$FILLETRAD
 40
0.0
  9
$AUNITS
 70
     0
  9
$AUPREC
 70
     2
  9
$MENU
  1
.
  9
$ELEVATION
 40
0.0
  9
$PELEVATION
 40
0.0
  9
$THICKNESS
 40
0.0
  9
$LIMCHECK
 70
     0
  9
$CHAMFERA
 40
0.0
  9
$CHAMFERB
 40
0.0
  9
$CHAMFERC
 40
0.0
  9
$CHAMFERD
 40
0.0
  9
$SKPOLY
 70
     0
  9
$TDCREATE
 40
2461059.756245405
  9
$TDUCREATE
 40
2461059.547912072
  9
$TDUPDATE
 40
2461059.756393368
  9
$TDUUPDATE
 40
2461059.548060035
  9
$TDINDWG
 40
0.0000000116
  9
$TDUSRTIMER
 40
0.0000000116
  9
$USRTIMER
 70
     1
  9
$ANGBASE
 50
0.0
  9
$ANGDIR
 70
     0
  9
$PDMODE
 70
     0
  9
$PDSIZE
 40
-1.0
  9
$PLINEWID
 40
0.0
  9
$SPLFRAME
 70
     0
  9
$SPLINETYPE
 70
     6
  9
$SPLINESEGS
 70
     8
  9
$HANDSEED
  5
1F3
  9
$SURFTAB1
 70
     6
  9
$SURFTAB2
 70
     6
  9
$SURFTYPE
 70
     6
  9
$SURFU
 70
     6
  9
$SURFV
 70
     6
  9
$UCSBASE
  2

  9
$UCSNAME
  2

  9
$UCSORG
 10
0.0
 20
0.0
 30
0.0
  9
$UCSXDIR
 10
1.0
 20
0.0
 30
0.0
  9
$UCSYDIR
 10
0.0
 20
1.0
 30
0.0
  9
$UCSORTHOREF
  2

  9
$UCSORTHOVIEW
 70
     0
  9
$UCSORGTOP
 10
0.0
 20
0.0
 30
0.0
  9
$UCSORGBOTTOM
 10
0.0
 20
0.0
 30
0.0
  9
$UCSORGLEFT
 10
0.0
 20
0.0
 30
0.0
  9
$UCSORGRIGHT
 10
0.0
 20
0.0
 30
0.0
  9
$UCSORGFRONT
 10
0.0
 20
0.0
 30
0.0
  9
$UCSORGBACK
 10
0.0
 20
0.0
 30
0.0
  9
$PUCSBASE
  2

  9
$PUCSNAME
  2

  9
$PUCSORG
 10
0.0
 20
0.0
 30
0.0
  9
$PUCSXDIR
 10
1.0
 20
0.0
 30
0.0
  9
$PUCSYDIR
 10
0.0
 20
1.0
 30
0.0
  9
$PUCSORTHOREF
  2

  9
$PUCSORTHOVIEW
 70
     0
  9
$PUCSORGTOP
 10
0.0
 20
0.0
 30
0.0
  9
$PUCSORGBOTTOM
 10
0.0
 20
0.0
 30
0.0
  9
$PUCSORGLEFT
 10
0.0
 20
0.0
 30
0.0
  9
$PUCSORGRIGHT
 10
0.0
 20
0.0
 30
0.0
  9
$PUCSORGFRONT
 10
0.0
 20
0.0
 30
0.0
  9
$PUCSORGBACK
 10
0.0
 20
0.0
 30
0.0
  9
$USERI1
 70
     0
  9
$USERI2
 70
     0
  9
$USERI3
 70
     0
  9
$USERI4
 70
     0
  9
$USERI5
 70
     0
  9
$USERR1
 40
0.0
  9
$USERR2
 40
0.0
  9
$USERR3
 40
0.0
  9
$USERR4
 40
0.0
  9
$USERR5
 40
0.0
  9
$WORLDVIEW
 70
     1
  9
$SHADEDGE
 70
     3
  9
$SHADEDIF
 70
    70
  9
$TILEMODE
 70
     1
  9
$MAXACTVP
 70
    64
  9
$PINSBASE
 10
0.0
 20
0.0
 30
0.0
  9
$PLIMCHECK
 70
     0
  9
$PEXTMIN
 10
-10.5
 20
-10.5
 30
0.0
  9
$PEXTMAX
 10
10.5
 20
10.5
 30
0.0
  9
$PLIMMIN
 10
-11.1562510658
 20
-11.1562500323
  9
$PLIMMAX
 10
17.7187503553
 20
11.1562510658
  9
$UNITMODE
 70
     0
  9
$VISRETAIN
 70
     1
  9
$PLINEGEN
 70
     0
  9
$PSLTSCALE
 70
     1
  9
$TREEDEPTH
 70
  3020
  9
$CMLSTYLE
  2
Standard
  9
$CMLJUST
 70
     0
  9
$CMLSCALE
 40
1.0
  9
$PROXYGRAPHICS
 70
     1
  9
$MEASUREMENT
 70
     0
  9
$CELWEIGHT
370
    -1
  9
$ENDCAPS
280
     0
  9
$JOINSTYLE
280
     0
  9
$LWDISPLAY
290
     1
  9
$INSUNITS
 70
     1
  9
$HYPERLINKBASE
  1

  9
$STYLESHEET
  1

  9
$XEDIT
290
     1
  9
$CEPSNTYPE
380
     0
  9
$PSTYLEMODE
290
     1
  9
$FINGERPRINTGUID
  2
{dcae713c-3af1-4e47-8b72-6a1a10272c7a}
  9
$VERSIONGUID
  2
{FAEB1C32-E019-11D5-929B-00C0DF256EC4}
  9
$EXTNAMES
290
     1
  9
$PSVPSCALE
 40
0.0
  9
$OLESTARTUP
290
     0
  0
ENDSEC
  0
SECTION
  2
CLASSES
  0
CLASS
  1
ACDBDICTIONARYWDFLT
  2
AcDbDictionaryWithDefault
  3
ObjectDBX Classes
 90
        0
280
     0
281
     0
  0
CLASS
  1
VISUALSTYLE
  2
AcDbVisualStyle
  3
ObjectDBX Classes
 90
     4095
280
     0
281
     0
  0
CLASS
  1
MATERIAL
  2
AcDbMaterial
  3
ObjectDBX Classes
 90
     1153
280
     0
281
     0
  0
CLASS
  1
SCALE
  2
AcDbScale
  3
ObjectDBX Classes
 90
     1153
280
     0
281
     0
  0
CLASS
  1
TABLESTYLE
  2
AcDbTableStyle
  3
ObjectDBX Classes
 90
     4095
280
     0
281
     0
  0
CLASS
  1
MLEADERSTYLE
  2
AcDbMLeaderStyle
  3
ACDB_MLEADERSTYLE_CLASS
 90
     4095
280
     0
281
     0
  0
CLASS
  1
SUN
  2
AcDbSun
  3
SCENEOE
 90
     1153
280
     0
281
     0
  0
CLASS
  1
ACDBPLACEHOLDER
  2
AcDbPlaceHolder
  3
ObjectDBX Classes
 90
        0
280
     0
281
     0
  0
CLASS
  1
LAYOUT
  2
AcDbLayout
  3
ObjectDBX Classes
 90
        0
280
     0
281
     0
  0
ENDSEC
  0
SECTION
  2
TABLES
  0
TABLE
  2
VPORT
  5
8
330
0
100
AcDbSymbolTable
 70
     1
  0
VPORT
  5
29
330
8
100
AcDbSymbolTableRecord
100
AcDbViewportTableRecord
  2
*Active
 70
     0
 10
0.0
 20
0.0
 11
1.0
 21
1.0
 12
-29.911000146
 22
-0.0032904191
 13
0.0
 23
0.0
 14
0.5
 24
0.5
 15
0.5
 25
0.5
 16
0.0
 26
0.0
 36
1.0
 17
0.0
 27
0.0
 37
0.0
 40
26.0010223382
 41
2.6191747459
 42
50.0
 43
0.0
 44
0.0
 50
0.0
 51
0.0
 71
     0
 72
   100
 73
     1
 74
     3
 75
     0
 76
     0
 77
     0
 78
     0
281
     0
 65
     1
110
0.0
120
0.0
130
0.0
111
1.0
121
0.0
131
0.0
112
0.0
122
1.0
132
0.0
 79
     0
146
0.0
  0
ENDTAB
  0
TABLE
  2
LTYPE
  5
5
330
0
100
AcDbSymbolTable
 70
     6
  0
LTYPE
  5
14
330
5
100
AcDbSymbolTableRecord
100
AcDbLinetypeTableRecord
  2
ByBlock
 70
     0
  3

 72
    65
 73
     0
 40
0.0
  0
LTYPE
  5
15
330
5
100
AcDbSymbolTableRecord
100
AcDbLinetypeTableRecord
  2
ByLayer
 70
     0
  3

 72
    65
 73
     0
 40
0.0
  0
LTYPE
  5
16
330
5
100
AcDbSymbolTableRecord
100
AcDbLinetypeTableRecord
  2
Continuous
 70
     0
  3
Solid line
 72
    65
 73
     0
 40
0.0
  0
LTYPE
  5
5E
330
5
100
AcDbSymbolTableRecord
100
AcDbLinetypeTableRecord
  2
HIDDEN
 70
     0
  3
Hidden __ __ __ __ __ __ __ __ __ __ __ __ __ __
 72
    65
 73
     2
 40
0.075
 49
0.05
 74
     0
 49
-0.025
 74
     0
  0
LTYPE
  5
5F
330
5
100
AcDbSymbolTableRecord
100
AcDbLinetypeTableRecord
  2
PHANTOM
 70
     0
  3
Phantom ______  __  __  ______  __  __  ______
 72
    65
 73
     6
 40
0.5
 49
0.25
 74
     0
 49
-0.05
 74
     0
 49
0.05
 74
     0
 49
-0.05
 74
     0
 49
0.05
 74
     0
 49
-0.05
 74
     0
  0
LTYPE
  5
60
330
5
100
AcDbSymbolTableRecord
100
AcDbLinetypeTableRecord
  2
CENTER
 70
     0
  3
Center ____ _ ____ _ ____ _ ____ _ ____ _ ____
 72
    65
 73
     4
 40
0.4
 49
0.25
 74
     0
 49
-0.05
 74
     0
 49
0.05
 74
     0
 49
-0.05
 74
     0
  0
LTYPE
  5
61
330
5
100
AcDbSymbolTableRecord
100
AcDbLinetypeTableRecord
  2
CENTERX2
 70
     0
  3
Center (2x) ________  __  ________  __  _____
 72
    65
 73
     4
 40
0.8
 49
0.5
 74
     0
 49
-0.1
 74
     0
 49
0.1
 74
     0
 49
-0.1
 74
     0
  0
LTYPE
  5
62
330
5
100
AcDbSymbolTableRecord
100
AcDbLinetypeTableRecord
  2
DOT2
 70
     0
  3
Dot (.5x) ........................................
 72
    65
 73
     2
 40
0.025
 49
0.0
 74
     0
 49
-0.025
 74
     0
  0
ENDTAB
  0
TABLE
  2
LAYER
  5
2
330
0
100
AcDbSymbolTable
 70
     1
  0
LAYER
  5
10
330
2
100
AcDbSymbolTableRecord
100
AcDbLayerTableRecord
  2
0
 70
     0
 62
     7
  6
Continuous
370
    -3
390
F
  0
ENDTAB
  0
TABLE
  2
STYLE
  5
3
330
0
100
AcDbSymbolTable
 70
     1
  0
STYLE
  5
11
330
3
100
AcDbSymbolTableRecord
100
AcDbTextStyleTableRecord
  2
Standard
 70
     0
 40
0.0
 41
1.0
 50
0.0
 71
     0
 42
0.125
  3
txt
  4

  0
ENDTAB
  0
TABLE
  2
VIEW
  5
6
330
0
100
AcDbSymbolTable
 70
     0
  0
ENDTAB
  0
TABLE
  2
UCS
  5
7
330
0
100
AcDbSymbolTable
 70
     0
  0
ENDTAB
  0
TABLE
  2
APPID
  5
9
330
0
100
AcDbSymbolTable
 70
     1
  0
APPID
  5
12
330
9
100
AcDbSymbolTableRecord
100
AcDbRegAppTableRecord
  2
ACAD
 70
     0
  0
ENDTAB
  0
TABLE
  2
DIMSTYLE
  5
A
330
0
100
AcDbSymbolTable
 70
     1
100
AcDbDimStyleTable
  0
DIMSTYLE
105
27
330
A
100
AcDbSymbolTableRecord
100
AcDbDimStyleTableRecord
  2
Standard
 70
     0
178
     0
340
11
  0
ENDTAB
  0
TABLE
  2
BLOCK_RECORD
  5
1
330
0
100
AcDbSymbolTable
 70
     8
  0
BLOCK_RECORD
  5
1F
330
1
100
AcDbSymbolTableRecord
100
AcDbBlockTableRecord
  2
*Model_Space
340
22
  0
BLOCK_RECORD
  5
1B
330
1
100
AcDbSymbolTableRecord
100
AcDbBlockTableRecord
  2
*Paper_Space
340
1E
  0
BLOCK_RECORD
  5
23
330
1
100
AcDbSymbolTableRecord
100
AcDbBlockTableRecord
  2
*Paper_Space0
340
26
  0
BLOCK_RECORD
  5
C5
330
1
100
AcDbSymbolTableRecord
100
AcDbBlockTableRecord
  2
*Paper_Space1
340
C6
  0
BLOCK_RECORD
  5
DC
330
1
100
AcDbSymbolTableRecord
100
AcDbBlockTableRecord
  2
*Paper_Space2
340
DD
  0
BLOCK_RECORD
  5
F4
330
1
100
AcDbSymbolTableRecord
100
AcDbBlockTableRecord
  2
*Paper_Space3
340
F5
  0
BLOCK_RECORD
  5
10C
330
1
100
AcDbSymbolTableRecord
100
AcDbBlockTableRecord
  2
*Paper_Space4
340
10D
  0
BLOCK_RECORD
  5
124
330
1
100
AcDbSymbolTableRecord
100
AcDbBlockTableRecord
  2
*Paper_Space5
340
125
  0
BLOCK_RECORD
  5
163
330
1
100
AcDbSymbolTableRecord
100
AcDbBlockTableRecord
  2
*Paper_Space6
340
164
  0
BLOCK_RECORD
  5
1A2
330
1
100
AcDbSymbolTableRecord
100
AcDbBlockTableRecord
  2
*Paper_Space7
340
1A3
  0
ENDTAB
  0
ENDSEC
  0
SECTION
  2
BLOCKS
  0
BLOCK
  5
20
330
1F
100
AcDbEntity
  8
0
100
AcDbBlockBegin
  2
*Model_Space
 70
     0
 10
0.0
 20
0.0
 30
0.0
  3
*Model_Space
  1

  0
ENDBLK
  5
21
330
1F
100
AcDbEntity
  8
0
100
AcDbBlockEnd
  0
BLOCK
  5
1C
330
1B
100
AcDbEntity
 67
     1
  8
0
100
AcDbBlockBegin
  2
*Paper_Space
 70
     0
 10
0.0
 20
0.0
 30
0.0
  3
*Paper_Space
  1

  0
ENDBLK
  5
1D
330
1B
100
AcDbEntity
 67
     1
  8
0
100
AcDbBlockEnd
  0
BLOCK
  5
24
330
23
100
AcDbEntity
  8
0
100
AcDbBlockBegin
  2
*Paper_Space0
 70
     0
 10
0.0
 20
0.0
 30
0.0
  3
*Paper_Space0
  1

  0
LINE
  5
BB
330
23
100
AcDbEntity
  8
0
  6
Continuous
 62
     7
370
    25
100
AcDbLine
 10
-10.5
 20
1.0
 30
0.0
 11
-10.5
 21
0.0
 31
0.0
  0
LINE
  5
BC
330
23
100
AcDbEntity
  8
0
  6
Continuous
 62
     7
370
    25
100
AcDbLine
 10
-10.5
 20
1.0
 30
0.0
 11
10.5
 21
1.0
 31
0.0
  0
LINE
  5
BD
330
23
100
AcDbEntity
  8
0
  6
Continuous
 62
     7
370
    25
100
AcDbLine
 10
10.5
 20
1.0
 30
0.0
 11
10.5
 21
0.0
 31
0.0
  0
LINE
  5
BE
330
23
100
AcDbEntity
  8
0
  6
Continuous
 62
     7
370
    25
100
AcDbLine
 10
-10.5
 20
0.0
 30
0.0
 11
10.5
 21
0.0
 31
0.0
  0
LINE
  5
BF
330
23
100
AcDbEntity
  8
0
  6
Continuous
 62
     7
370
    25
100
AcDbLine
 10
10.5
 20
-62.0
 30
0.0
 11
-10.5
 21
-62.0
 31
0.0
  0
LINE
  5
C0
330
23
100
AcDbEntity
  8
0
  6
Continuous
 62
     7
370
    25
100
AcDbLine
 10
10.5
 20
-61.0
 30
0.0
 11
-10.5
 21
-61.0
 31
0.0
  0
LINE
  5
C1
330
23
100
AcDbEntity
  8
0
  6
Continuous
 62
     7
370
    25
100
AcDbLine
 10
-10.5
 20
-62.0
 30
0.0
 11
-10.5
 21
-61.0
 31
0.0
  0
LINE
  5
C2
330
23
100
AcDbEntity
  8
0
  6
Continuous
 62
     7
370
    25
100
AcDbLine
 10
10.5
 20
-62.0
 30
0.0
 11
10.5
 21
-61.0
 31
0.0
  0
LINE
  5
C3
330
23
100
AcDbEntity
  8
0
  6
Continuous
 62
     7
370
    25
100
AcDbLine
 10
-10.0
 20
-61.0
 30
0.0
 11
-10.0
 21
0.0
 31
0.0
  0
LINE
  5
C4
330
23
100
AcDbEntity
  8
0
  6
Continuous
 62
     7
370
    25
100
AcDbLine
 10
10.0
 20
-61.0
 30
0.0
 11
10.0
 21
0.0
 31
0.0
  0
VIEWPORT
  5
1E2
330
23
100
AcDbEntity
  8
0
100
AcDbViewport
 10
0.0
 20
0.0
 30
0.0
 40
8.4
 41
6.4
 68
     1
 69
     1
 12
-29.911000146
 22
-0.0032904191
 13
0.0
 23
0.0
 14
0.5
 24
0.5
 15
0.5
 25
0.5
 16
0.0
 26
0.0
 36
1.0
 17
0.0
 27
0.0
 37
0.0
 42
50.0
 43
0.0
 44
0.0
 45
51.8866446288
 50
0.0
 51
0.0
 72
   100
 90
   557152
  1

281
     0
 71
     1
 74
     0
110
0.0
120
0.0
130
0.0
111
1.0
121
0.0
131
0.0
112
0.0
122
1.0
132
0.0
 79
     0
146
0.0
  0
ENDBLK
  5
25
330
23
100
AcDbEntity
  8
0
100
AcDbBlockEnd
  0
BLOCK
  5
C7
330
C5
100
AcDbEntity
  8
0
100
AcDbBlockBegin
  2
*Paper_Space1
 70
     0
 10
0.0
 20
0.0
 30
0.0
  3
*Paper_Space1
  1

  0
LINE
  5
C9
330
C5
100
AcDbEntity
  8
0
  6
Continuous
 62
     7
100
AcDbLine
 10
0.0
 20
0.0
 30
0.0
 11
-0.2347208122
 21
0.0
 31
0.0
  0
LINE
  5
CA
330
C5
100
AcDbEntity
  8
0
  6
Continuous
 62
     7
100
AcDbLine
 10
0.0
 20
0.0
 30
0.0
 11
0.0
 21
0.4694416244
 31
0.0
  0
POINT
  5
CB
330
C5
100
AcDbEntity
  8
0
  6
Continuous
 62
     7
100
AcDbPoint
 10
0.0
 20
0.0
 30
0.0
  0
LINE
  5
D4
330
C5
100
AcDbEntity
  8
0
  6
Continuous
 62
     7
370
    25
100
AcDbLine
 10
-9.5
 20
9.5
 30
0.0
 11
-9.5
 21
-9.5
 31
0.0
  0
LINE
  5
D5
330
C5
100
AcDbEntity
  8
0
  6
Continuous
 62
     7
370
    25
100
AcDbLine
 10
-9.5
 20
-9.5
 30
0.0
 11
9.5
 21
-9.5
 31
0.0
  0
LINE
  5
D6
330
C5
100
AcDbEntity
  8
0
  6
Continuous
 62
     7
370
    25
100
AcDbLine
 10
9.5
 20
-9.5
 30
0.0
 11
9.5
 21
9.5
 31
0.0
  0
LINE
  5
D7
330
C5
100
AcDbEntity
  8
0
  6
Continuous
 62
     7
370
    25
100
AcDbLine
 10
9.5
 20
9.5
 30
0.0
 11
-9.5
 21
9.5
 31
0.0
  0
LINE
  5
D8
330
C5
100
AcDbEntity
  8
0
  6
Continuous
 62
     7
370
    25
100
AcDbLine
 10
10.5
 20
-10.5
 30
0.0
 11
10.5
 21
10.5
 31
0.0
  0
LINE
  5
D9
330
C5
100
AcDbEntity
  8
0
  6
Continuous
 62
     7
370
    25
100
AcDbLine
 10
10.5
 20
10.5
 30
0.0
 11
-10.5
 21
10.5
 31
0.0
  0
LINE
  5
DA
330
C5
100
AcDbEntity
  8
0
  6
Continuous
 62
     7
370
    25
100
AcDbLine
 10
-10.5
 20
10.5
 30
0.0
 11
-10.5
 21
-10.5
 31
0.0
  0
LINE
  5
DB
330
C5
100
AcDbEntity
  8
0
  6
Continuous
 62
     7
370
    25
100
AcDbLine
 10
-10.5
 20
-10.5
 30
0.0
 11
10.5
 21
-10.5
 31
0.0
  0
VIEWPORT
  5
1E4
330
C5
100
AcDbEntity
  8
0
100
AcDbViewport
 10
0.0
 20
0.0
 30
0.0
 40
8.4
 41
6.4
 68
     1
 69
     1
 12
-29.911000146
 22
-0.0032904191
 13
0.0
 23
0.0
 14
0.5
 24
0.5
 15
0.5
 25
0.5
 16
0.0
 26
0.0
 36
1.0
 17
0.0
 27
0.0
 37
0.0
 42
50.0
 43
0.0
 44
0.0
 45
51.8866446288
 50
0.0
 51
0.0
 72
   100
 90
   557152
  1

281
     0
 71
     1
 74
     0
110
0.0
120
0.0
130
0.0
111
1.0
121
0.0
131
0.0
112
0.0
122
1.0
132
0.0
 79
     0
146
0.0
  0
ENDBLK
  5
C8
330
C5
100
AcDbEntity
  8
0
100
AcDbBlockEnd
  0
BLOCK
  5
DE
330
DC
100
AcDbEntity
  8
0
100
AcDbBlockBegin
  2
*Paper_Space2
 70
     0
 10
0.0
 20
0.0
 30
0.0
  3
*Paper_Space2
  1

  0
LINE
  5
EA
330
DC
100
AcDbEntity
  8
0
  6
Continuous
 62
     7
370
    25
100
AcDbLine
 10
-1.0
 20
-10.5
 30
0.0
 11
-1.0
 21
10.5
 31
0.0
  0
LINE
  5
EB
330
DC
100
AcDbEntity
  8
0
  6
Continuous
 62
     7
370
    25
100
AcDbLine
 10
-1.0
 20
10.5
 30
0.0
 11
0.0
 21
10.5
 31
0.0
  0
LINE
  5
EC
330
DC
100
AcDbEntity
  8
0
  6
Continuous
 62
     7
370
    25
100
AcDbLine
 10
0.0
 20
-10.5
 30
0.0
 11
0.0
 21
10.5
 31
0.0
  0
LINE
  5
ED
330
DC
100
AcDbEntity
  8
0
  6
Continuous
 62
     7
370
    25
100
AcDbLine
 10
-1.0
 20
-10.5
 30
0.0
 11
0.0
 21
-10.5
 31
0.0
  0
LINE
  5
EE
330
DC
100
AcDbEntity
  8
0
  6
Continuous
 62
     7
370
    25
100
AcDbLine
 10
62.0
 20
10.5
 30
0.0
 11
62.0
 21
-10.5
 31
0.0
  0
LINE
  5
EF
330
DC
100
AcDbEntity
  8
0
  6
Continuous
 62
     7
370
    25
100
AcDbLine
 10
62.0
 20
10.5
 30
0.0
 11
61.0
 21
10.5
 31
0.0
  0
LINE
  5
F0
330
DC
100
AcDbEntity
  8
0
  6
Continuous
 62
     7
370
    25
100
AcDbLine
 10
62.0
 20
-10.5
 30
0.0
 11
61.0
 21
-10.5
 31
0.0
  0
LINE
  5
F1
330
DC
100
AcDbEntity
  8
0
  6
Continuous
 62
     7
370
    25
100
AcDbLine
 10
61.0
 20
10.5
 30
0.0
 11
61.0
 21
-10.5
 31
0.0
  0
LINE
  5
F2
330
DC
100
AcDbEntity
  8
0
  6
Continuous
 62
     7
370
    25
100
AcDbLine
 10
61.0
 20
10.0
 30
0.0
 11
0.0
 21
10.0
 31
0.0
  0
LINE
  5
F3
330
DC
100
AcDbEntity
  8
0
  6
Continuous
 62
     7
370
    25
100
AcDbLine
 10
61.0
 20
-10.0
 30
0.0
 11
0.0
 21
-10.0
 31
0.0
  0
VIEWPORT
  5
1E6
330
DC
100
AcDbEntity
  8
0
100
AcDbViewport
 10
0.0
 20
0.0
 30
0.0
 40
8.4
 41
6.4
 68
     1
 69
     1
 12
-29.911000146
 22
-0.0032904191
 13
0.0
 23
0.0
 14
0.5
 24
0.5
 15
0.5
 25
0.5
 16
0.0
 26
0.0
 36
1.0
 17
0.0
 27
0.0
 37
0.0
 42
50.0
 43
0.0
 44
0.0
 45
51.8866446288
 50
0.0
 51
0.0
 72
   100
 90
   557152
  1

281
     0
 71
     1
 74
     0
110
0.0
120
0.0
130
0.0
111
1.0
121
0.0
131
0.0
112
0.0
122
1.0
132
0.0
 79
     0
146
0.0
  0
ENDBLK
  5
DF
330
DC
100
AcDbEntity
  8
0
100
AcDbBlockEnd
  0
BLOCK
  5
F6
330
F4
100
AcDbEntity
  8
0
100
AcDbBlockBegin
  2
*Paper_Space3
 70
     0
 10
0.0
 20
0.0
 30
0.0
  3
*Paper_Space3
  1

  0
LINE
  5
102
330
F4
100
AcDbEntity
  8
0
  6
Continuous
 62
     7
370
    25
100
AcDbLine
 10
1.0
 20
10.5
 30
0.0
 11
0.0
 21
10.5
 31
0.0
  0
LINE
  5
103
330
F4
100
AcDbEntity
  8
0
  6
Continuous
 62
     7
370
    25
100
AcDbLine
 10
1.0
 20
10.5
 30
0.0
 11
1.0
 21
-10.5
 31
0.0
  0
LINE
  5
104
330
F4
100
AcDbEntity
  8
0
  6
Continuous
 62
     7
370
    25
100
AcDbLine
 10
0.0
 20
10.5
 30
0.0
 11
0.0
 21
-10.5
 31
0.0
  0
LINE
  5
105
330
F4
100
AcDbEntity
  8
0
  6
Continuous
 62
     7
370
    25
100
AcDbLine
 10
1.0
 20
-10.5
 30
0.0
 11
0.0
 21
-10.5
 31
0.0
  0
LINE
  5
106
330
F4
100
AcDbEntity
  8
0
  6
Continuous
 62
     7
370
    25
100
AcDbLine
 10
-62.0
 20
-10.5
 30
0.0
 11
-62.0
 21
10.5
 31
0.0
  0
LINE
  5
107
330
F4
100
AcDbEntity
  8
0
  6
Continuous
 62
     7
370
    25
100
AcDbLine
 10
-62.0
 20
10.5
 30
0.0
 11
-61.0
 21
10.5
 31
0.0
  0
LINE
  5
108
330
F4
100
AcDbEntity
  8
0
  6
Continuous
 62
     7
370
    25
100
AcDbLine
 10
-61.0
 20
-10.5
 30
0.0
 11
-61.0
 21
10.5
 31
0.0
  0
LINE
  5
109
330
F4
100
AcDbEntity
  8
0
  6
Continuous
 62
     7
370
    25
100
AcDbLine
 10
-62.0
 20
-10.5
 30
0.0
 11
-61.0
 21
-10.5
 31
0.0
  0
LINE
  5
10A
330
F4
100
AcDbEntity
  8
0
  6
Continuous
 62
     7
370
    25
100
AcDbLine
 10
-61.0
 20
-10.0
 30
0.0
 11
0.0
 21
-10.0
 31
0.0
  0
LINE
  5
10B
330
F4
100
AcDbEntity
  8
0
  6
Continuous
 62
     7
370
    25
100
AcDbLine
 10
-61.0
 20
10.0
 30
0.0
 11
0.0
 21
10.0
 31
0.0
  0
VIEWPORT
  5
1E8
330
F4
100
AcDbEntity
  8
0
100
AcDbViewport
 10
0.0
 20
0.0
 30
0.0
 40
8.4
 41
6.4
 68
     1
 69
     1
 12
-29.911000146
 22
-0.0032904191
 13
0.0
 23
0.0
 14
0.5
 24
0.5
 15
0.5
 25
0.5
 16
0.0
 26
0.0
 36
1.0
 17
0.0
 27
0.0
 37
0.0
 42
50.0
 43
0.0
 44
0.0
 45
51.8866446288
 50
0.0
 51
0.0
 72
   100
 90
   557152
  1

281
     0
 71
     1
 74
     0
110
0.0
120
0.0
130
0.0
111
1.0
121
0.0
131
0.0
112
0.0
122
1.0
132
0.0
 79
     0
146
0.0
  0
ENDBLK
  5
F7
330
F4
100
AcDbEntity
  8
0
100
AcDbBlockEnd
  0
BLOCK
  5
10E
330
10C
100
AcDbEntity
  8
0
100
AcDbBlockBegin
  2
*Paper_Space4
 70
     0
 10
0.0
 20
0.0
 30
0.0
  3
*Paper_Space4
  1

  0
LINE
  5
11A
330
10C
100
AcDbEntity
  8
0
  6
Continuous
 62
     7
370
    25
100
AcDbLine
 10
10.5
 20
-1.0
 30
0.0
 11
10.5
 21
0.0
 31
0.0
  0
LINE
  5
11B
330
10C
100
AcDbEntity
  8
0
  6
Continuous
 62
     7
370
    25
100
AcDbLine
 10
10.5
 20
-1.0
 30
0.0
 11
-10.5
 21
-1.0
 31
0.0
  0
LINE
  5
11C
330
10C
100
AcDbEntity
  8
0
  6
Continuous
 62
     7
370
    25
100
AcDbLine
 10
-10.5
 20
-1.0
 30
0.0
 11
-10.5
 21
0.0
 31
0.0
  0
LINE
  5
11D
330
10C
100
AcDbEntity
  8
0
  6
Continuous
 62
     7
370
    25
100
AcDbLine
 10
10.5
 20
0.0
 30
0.0
 11
-10.5
 21
0.0
 31
0.0
  0
LINE
  5
11E
330
10C
100
AcDbEntity
  8
0
  6
Continuous
 62
     7
370
    25
100
AcDbLine
 10
-10.5
 20
62.0
 30
0.0
 11
-10.5
 21
61.0
 31
0.0
  0
LINE
  5
11F
330
10C
100
AcDbEntity
  8
0
  6
Continuous
 62
     7
370
    25
100
AcDbLine
 10
-10.5
 20
62.0
 30
0.0
 11
10.5
 21
62.0
 31
0.0
  0
LINE
  5
120
330
10C
100
AcDbEntity
  8
0
  6
Continuous
 62
     7
370
    25
100
AcDbLine
 10
10.5
 20
62.0
 30
0.0
 11
10.5
 21
61.0
 31
0.0
  0
LINE
  5
121
330
10C
100
AcDbEntity
  8
0
  6
Continuous
 62
     7
370
    25
100
AcDbLine
 10
-10.5
 20
61.0
 30
0.0
 11
10.5
 21
61.0
 31
0.0
  0
LINE
  5
122
330
10C
100
AcDbEntity
  8
0
  6
Continuous
 62
     7
370
    25
100
AcDbLine
 10
10.0
 20
61.0
 30
0.0
 11
10.0
 21
0.0
 31
0.0
  0
LINE
  5
123
330
10C
100
AcDbEntity
  8
0
  6
Continuous
 62
     7
370
    25
100
AcDbLine
 10
-10.0
 20
61.0
 30
0.0
 11
-10.0
 21
0.0
 31
0.0
  0
VIEWPORT
  5
1EA
330
10C
100
AcDbEntity
  8
0
100
AcDbViewport
 10
0.0
 20
0.0
 30
0.0
 40
8.4
 41
6.4
 68
     1
 69
     1
 12
-29.911000146
 22
-0.0032904191
 13
0.0
 23
0.0
 14
0.5
 24
0.5
 15
0.5
 25
0.5
 16
0.0
 26
0.0
 36
1.0
 17
0.0
 27
0.0
 37
0.0
 42
50.0
 43
0.0
 44
0.0
 45
51.8866446288
 50
0.0
 51
0.0
 72
   100
 90
   557152
  1

281
     0
 71
     1
 74
     0
110
0.0
120
0.0
130
0.0
111
1.0
121
0.0
131
0.0
112
0.0
122
1.0
132
0.0
 79
     0
146
0.0
  0
ENDBLK
  5
10F
330
10C
100
AcDbEntity
  8
0
100
AcDbBlockEnd
  0
BLOCK
  5
126
330
124
100
AcDbEntity
  8
0
100
AcDbBlockBegin
  2
*Paper_Space5
 70
     0
 10
0.0
 20
0.0
 30
0.0
  3
*Paper_Space5
  1

  0
LINE
  5
128
330
124
100
AcDbEntity
  8
0
  6
Continuous
 62
     7
100
AcDbLine
 10
0.0
 20
0.0
 30
0.0
 11
0.165972678
 21
-0.0958139875
 31
0.0
  0
LINE
  5
129
330
124
100
AcDbEntity
  8
0
  6
Continuous
 62
     7
100
AcDbLine
 10
0.0
 20
0.0
 30
0.0
 11
0.0
 21
0.3833182451
 31
0.0
  0
POINT
  5
12A
330
124
100
AcDbEntity
  8
0
  6
Continuous
 62
     7
100
AcDbPoint
 10
0.0
 20
0.0
 30
0.0
  0
LINE
  5
147
330
124
100
AcDbEntity
  8
0
  6
Continuous
 62
     7
370
    25
100
AcDbLine
 10
-50.5581348548
 20
-13.6735752224
 30
0.0
 11
-50.5581348548
 21
-29.1878506483
 31
0.0
  0
LINE
  5
148
330
124
100
AcDbEntity
  8
0
  6
Continuous
 62
     7
370
    25
100
AcDbLine
 10
-50.5581348548
 20
-29.1878506483
 30
0.0
 11
-37.1231060123
 21
-36.9437277106
 31
0.0
  0
LINE
  5
149
330
124
100
AcDbEntity
  8
0
  6
Continuous
 62
     7
370
    25
100
AcDbLine
 10
-37.1231060123
 20
-36.9437277106
 30
0.0
 11
-37.1231060123
 21
-21.4294522847
 31
0.0
  0
LINE
  5
14A
330
124
100
AcDbEntity
  8
0
  6
Continuous
 62
     7
370
    25
100
AcDbLine
 10
-37.1231060123
 20
-21.4294522847
 30
0.0
 11
-50.5581348548
 21
-13.6735752224
 31
0.0
  0
LINE
  5
14B
330
124
100
AcDbEntity
  8
0
  6
Continuous
 62
     7
370
    25
100
AcDbLine
 10
-51.265241636
 20
-12.4488303546
 30
0.0
 11
-51.265241636
 21
-29.5961874042
 31
0.0
  0
LINE
  5
14C
330
124
100
AcDbEntity
  8
0
  6
Continuous
 62
     7
370
    25
100
AcDbLine
 10
-36.4159992311
 20
-21.0211155288
 30
0.0
 11
-51.265241636
 21
-12.4488303546
 31
0.0
  0
LINE
  5
14D
330
124
100
AcDbEntity
  8
0
  6
Continuous
 62
     7
370
    25
100
AcDbLine
 10
-36.4159992311
 20
-38.1684725784
 30
0.0
 11
-36.4159992311
 21
-21.0211155288
 31
0.0
  0
LINE
  5
14E
330
124
100
AcDbEntity
  8
0
  6
Continuous
 62
     7
370
    25
100
AcDbLine
 10
-51.265241636
 20
-29.5961874042
 30
0.0
 11
-36.4159992311
 21
-38.1684725784
 31
0.0
  0
LINE
  5
14F
330
124
100
AcDbEntity
  8
0
  6
Continuous
 62
     7
370
    25
100
AcDbLine
 10
-36.4159992311
 20
-21.0211155288
 30
0.0
 11
-35.7088924499
 21
-20.6129114729
 31
0.0
  0
LINE
  5
150
330
124
100
AcDbEntity
  8
0
  6
Continuous
 62
     7
370
    25
100
AcDbLine
 10
-51.265241636
 20
-12.4488303546
 30
0.0
 11
-50.5581348548
 21
-12.0406262987
 31
0.0
  0
LINE
  5
151
330
124
100
AcDbEntity
  8
0
  6
Continuous
 62
     7
370
    25
100
AcDbLine
 10
-35.7088924499
 20
-20.6129114729
 30
0.0
 11
-50.5581348548
 21
-12.0406262987
 31
0.0
  0
LINE
  5
152
330
124
100
AcDbEntity
  8
0
  6
Continuous
 62
     7
370
    25
100
AcDbLine
 10
-36.4159992311
 20
-38.1684725784
 30
0.0
 11
-35.7088924499
 21
-37.7602685225
 31
0.0
  0
LINE
  5
153
330
124
100
AcDbEntity
  8
0
  6
Continuous
 62
     7
370
    25
100
AcDbLine
 10
-35.7088924499
 20
-37.7602685225
 30
0.0
 11
-35.7088924499
 21
-20.6129114729
 31
0.0
  0
LINE
  5
154
330
124
100
AcDbEntity
  8
0
  6
Continuous
 62
     7
370
    25
100
AcDbLine
 10
-35.7088924499
 20
-20.6129778229
 30
0.0
 11
7.0710678119
 21
4.0833675597
 31
0.0
  0
LINE
  5
155
330
124
100
AcDbEntity
  8
0
  6
Continuous
 62
     7
370
    25
100
AcDbLine
 10
7.0710678119
 20
-12.247448678
 30
0.0
 11
7.0710678119
 21
4.0833675597
 31
0.0
  0
LINE
  5
156
330
124
100
AcDbEntity
  8
0
  6
Continuous
 62
     7
370
    25
100
AcDbLine
 10
-35.7088924499
 20
-36.9437940606
 30
0.0
 11
7.0710678119
 21
-12.247448678
 31
0.0
  0
LINE
  5
157
330
124
100
AcDbEntity
  8
0
  6
Continuous
 62
     7
370
    25
100
AcDbLine
 10
-49.8509706066
 20
-12.4488635297
 30
0.0
 11
-7.0710678119
 21
12.247448678
 31
0.0
  0
LINE
  5
158
330
124
100
AcDbEntity
  8
0
  6
Continuous
 62
     7
370
    25
100
AcDbLine
 10
7.0710678119
 20
4.0833675597
 30
0.0
 11
-7.0710678119
 21
12.247448678
 31
0.0
  0
LINE
  5
159
330
124
100
AcDbEntity
  8
0
  6
Continuous
 62
     7
370
    25
100
AcDbLine
 10
-37.1231060123
 20
-21.4319735859
 30
0.0
 11
-50.5581348548
 21
-29.1878506483
 31
0.0
  0
LINE
  5
15A
330
124
100
AcDbEntity
  8
0
  6
Continuous
 62
     7
370
    25
100
AcDbLine
 10
-7.4246212025
 20
12.04334665
 30
0.0
 11
-7.4246212025
 21
12.8598211119
 31
0.0
  0
LINE
  5
15B
330
124
100
AcDbEntity
  8
0
  6
Continuous
 62
     7
370
    25
100
AcDbLine
 10
-7.4246212025
 20
12.8598211119
 30
0.0
 11
7.4246212025
 21
4.2875359377
 31
0.0
  0
LINE
  5
15C
330
124
100
AcDbEntity
  8
0
  6
Continuous
 62
     7
370
    25
100
AcDbLine
 10
7.4246212025
 20
4.2875359377
 30
0.0
 11
7.4246212025
 21
-12.8598211119
 31
0.0
  0
LINE
  5
15D
330
124
100
AcDbEntity
  8
0
  6
Continuous
 62
     7
370
    25
100
AcDbLine
 10
7.4246212025
 20
-12.8598211119
 30
0.0
 11
6.7174569542
 21
-12.4515838809
 31
0.0
  0
LINE
  5
15E
330
124
100
AcDbEntity
  8
0
  6
Continuous
 62
     7
370
    25
100
AcDbLine
 10
-6.7175144213
 20
13.2680251678
 30
0.0
 11
-7.4246212025
 21
12.8598211119
 31
0.0
  0
LINE
  5
15F
330
124
100
AcDbEntity
  8
0
  6
Continuous
 62
     7
370
    25
100
AcDbLine
 10
-6.7175144213
 20
13.2680251678
 30
0.0
 11
8.1317279836
 21
4.6957399936
 31
0.0
  0
LINE
  5
160
330
124
100
AcDbEntity
  8
0
  6
Continuous
 62
     7
370
    25
100
AcDbLine
 10
8.1317279836
 20
4.6957399936
 30
0.0
 11
7.4246212025
 21
4.2875359377
 31
0.0
  0
LINE
  5
161
330
124
100
AcDbEntity
  8
0
  6
Continuous
 62
     7
370
    25
100
AcDbLine
 10
8.1317279836
 20
4.6957399936
 30
0.0
 11
8.1317279836
 21
-12.451617056
 31
0.0
  0
LINE
  5
162
330
124
100
AcDbEntity
  8
0
  6
Continuous
 62
     7
370
    25
100
AcDbLine
 10
8.1317279836
 20
-12.451617056
 30
0.0
 11
7.4246212025
 21
-12.8598211119
 31
0.0
  0
VIEWPORT
  5
1EC
330
124
100
AcDbEntity
  8
0
100
AcDbViewport
 10
0.0
 20
0.0
 30
0.0
 40
8.4
 41
6.4
 68
     1
 69
     1
 12
-29.911000146
 22
-0.0032904191
 13
0.0
 23
0.0
 14
0.5
 24
0.5
 15
0.5
 25
0.5
 16
0.0
 26
0.0
 36
1.0
 17
0.0
 27
0.0
 37
0.0
 42
50.0
 43
0.0
 44
0.0
 45
51.8866446288
 50
0.0
 51
0.0
 72
   100
 90
   557152
  1

281
     0
 71
     1
 74
     0
110
0.0
120
0.0
130
0.0
111
1.0
121
0.0
131
0.0
112
0.0
122
1.0
132
0.0
 79
     0
146
0.0
  0
ENDBLK
  5
127
330
124
100
AcDbEntity
  8
0
100
AcDbBlockEnd
  0
BLOCK
  5
165
330
163
100
AcDbEntity
  8
0
100
AcDbBlockBegin
  2
*Paper_Space6
 70
     0
 10
0.0
 20
0.0
 30
0.0
  3
*Paper_Space6
  1

  0
LINE
  5
167
330
163
100
AcDbEntity
  8
0
  6
Continuous
 62
     7
100
AcDbLine
 10
0.0
 20
0.0
 30
0.0
 11
0.2075913398
 21
-0.056418878
 31
0.0
  0
LINE
  5
168
330
163
100
AcDbEntity
  8
0
  6
Continuous
 62
     7
100
AcDbLine
 10
0.0
 20
0.0
 30
0.0
 11
0.0
 21
0.40239001
 31
0.0
  0
POINT
  5
169
330
163
100
AcDbEntity
  8
0
  6
Continuous
 62
     7
100
AcDbPoint
 10
0.0
 20
0.0
 30
0.0
  0
LINE
  5
186
330
163
100
AcDbEntity
  8
0
  6
Continuous
 62
     7
370
    25
100
AcDbLine
 10
-37.3370862696
 20
-17.8149930657
 30
0.0
 11
-37.3370862696
 21
-34.101171779
 31
0.0
  0
LINE
  5
187
330
163
100
AcDbEntity
  8
0
  6
Continuous
 62
     7
370
    25
100
AcDbLine
 10
-37.3370862696
 20
-34.101171779
 30
0.0
 11
-20.5331419577
 21
-38.668123778
 31
0.0
  0
LINE
  5
188
330
163
100
AcDbEntity
  8
0
  6
Continuous
 62
     7
370
    25
100
AcDbLine
 10
-20.5331419577
 20
-38.668123778
 30
0.0
 11
-20.5331419577
 21
-22.3819450647
 31
0.0
  0
LINE
  5
189
330
163
100
AcDbEntity
  8
0
  6
Continuous
 62
     7
370
    25
100
AcDbLine
 10
-20.5331419577
 20
-22.3819450647
 30
0.0
 11
-37.3370862696
 21
-17.8149930657
 31
0.0
  0
LINE
  5
18A
330
163
100
AcDbEntity
  8
0
  6
Continuous
 62
     7
370
    25
100
AcDbLine
 10
-38.2215043913
 20
-16.7174598703
 30
0.0
 11
-38.2215043913
 21
-34.7179731851
 31
0.0
  0
LINE
  5
18B
330
163
100
AcDbEntity
  8
0
  6
Continuous
 62
     7
370
    25
100
AcDbLine
 10
-19.6487238361
 20
-21.7651436587
 30
0.0
 11
-38.2215043913
 21
-16.7174598703
 31
0.0
  0
LINE
  5
18C
330
163
100
AcDbEntity
  8
0
  6
Continuous
 62
     7
370
    25
100
AcDbLine
 10
-19.6487238361
 20
-39.7656569734
 30
0.0
 11
-19.6487238361
 21
-21.7651436587
 31
0.0
  0
LINE
  5
18D
330
163
100
AcDbEntity
  8
0
  6
Continuous
 62
     7
370
    25
100
AcDbLine
 10
-38.2215043913
 20
-34.7179731851
 30
0.0
 11
-19.6487238361
 21
-39.7656569734
 31
0.0
  0
LINE
  5
18E
330
163
100
AcDbEntity
  8
0
  6
Continuous
 62
     7
370
    25
100
AcDbLine
 10
-19.6487238361
 20
-21.7651436587
 30
0.0
 11
-19.1820284471
 21
-21.3096346519
 31
0.0
  0
LINE
  5
18F
330
163
100
AcDbEntity
  8
0
  6
Continuous
 62
     7
370
    25
100
AcDbLine
 10
-38.2215043913
 20
-16.7174598703
 30
0.0
 11
-37.7548090023
 21
-16.2619508635
 31
0.0
  0
LINE
  5
190
330
163
100
AcDbEntity
  8
0
  6
Continuous
 62
     7
370
    25
100
AcDbLine
 10
-19.1820284471
 20
-21.3096346519
 30
0.0
 11
-37.7548090023
 21
-16.2619508635
 31
0.0
  0
LINE
  5
191
330
163
100
AcDbEntity
  8
0
  6
Continuous
 62
     7
370
    25
100
AcDbLine
 10
-19.6487238361
 20
-39.7656569734
 30
0.0
 11
-19.1820284471
 21
-39.3101479666
 31
0.0
  0
LINE
  5
192
330
163
100
AcDbEntity
  8
0
  6
Continuous
 62
     7
370
    25
100
AcDbLine
 10
-19.1820284471
 20
-39.3101479666
 30
0.0
 11
-19.1820284471
 21
-21.3096346519
 31
0.0
  0
LINE
  5
193
330
163
100
AcDbEntity
  8
0
  6
Continuous
 62
     7
370
    25
100
AcDbLine
 10
-19.2807686183
 20
-21.2827991891
 30
0.0
 11
8.8441812168
 21
6.1680140602
 31
0.0
  0
LINE
  5
194
330
163
100
AcDbEntity
  8
0
  6
Continuous
 62
     7
370
    25
100
AcDbLine
 10
8.8441812168
 20
-10.9753319539
 30
0.0
 11
8.8441812168
 21
6.1680140602
 31
0.0
  0
LINE
  5
195
330
163
100
AcDbEntity
  8
0
  6
Continuous
 62
     7
370
    25
100
AcDbLine
 10
-19.1820284471
 20
-38.329771769
 30
0.0
 11
8.8441812168
 21
-10.9753319539
 31
0.0
  0
LINE
  5
196
330
163
100
AcDbEntity
  8
0
  6
Continuous
 62
     7
370
    25
100
AcDbLine
 10
-36.9691310519
 20
-16.4754812954
 30
0.0
 11
-8.8441812168
 21
10.9753319539
 31
0.0
  0
LINE
  5
197
330
163
100
AcDbEntity
  8
0
  6
Continuous
 62
     7
370
    25
100
AcDbLine
 10
8.8441812168
 20
6.1680140602
 30
0.0
 11
-8.8441812168
 21
10.9753319539
 31
0.0
  0
LINE
  5
198
330
163
100
AcDbEntity
  8
0
  6
Continuous
 62
     7
370
    25
100
AcDbLine
 10
-24.2852684639
 20
-21.3621974787
 30
0.0
 11
-37.3370862696
 21
-34.101171779
 31
0.0
  0
LINE
  5
199
330
163
100
AcDbEntity
  8
0
  6
Continuous
 62
     7
370
    25
100
AcDbLine
 10
-9.2863902776
 20
10.5437223539
 30
0.0
 11
-9.2863902776
 21
11.5240985516
 31
0.0
  0
LINE
  5
19A
330
163
100
AcDbEntity
  8
0
  6
Continuous
 62
     7
370
    25
100
AcDbLine
 10
-9.2863902776
 20
11.5240985516
 30
0.0
 11
9.2863902776
 21
6.4764147632
 31
0.0
  0
LINE
  5
19B
330
163
100
AcDbEntity
  8
0
  6
Continuous
 62
     7
370
    25
100
AcDbLine
 10
9.2863902776
 20
6.4764147632
 30
0.0
 11
9.2863902776
 21
-11.5240985516
 31
0.0
  0
LINE
  5
19C
330
163
100
AcDbEntity
  8
0
  6
Continuous
 62
     7
370
    25
100
AcDbLine
 10
9.2863902776
 20
-11.5240985516
 30
0.0
 11
8.5007123271
 21
-11.3105681197
 31
0.0
  0
LINE
  5
19D
330
163
100
AcDbEntity
  8
0
  6
Continuous
 62
     7
370
    25
100
AcDbLine
 10
-8.8196948887
 20
11.9796075584
 30
0.0
 11
-9.2863902776
 21
11.5240985516
 31
0.0
  0
LINE
  5
19E
330
163
100
AcDbEntity
  8
0
  6
Continuous
 62
     7
370
    25
100
AcDbLine
 10
-8.8196948887
 20
11.9796075584
 30
0.0
 11
9.7530856665
 21
6.93192377
 31
0.0
  0
LINE
  5
19F
330
163
100
AcDbEntity
  8
0
  6
Continuous
 62
     7
370
    25
100
AcDbLine
 10
9.7530856665
 20
6.93192377
 30
0.0
 11
9.2863902776
 21
6.4764147632
 31
0.0
  0
LINE
  5
1A0
330
163
100
AcDbEntity
  8
0
  6
Continuous
 62
     7
370
    25
100
AcDbLine
 10
9.7530856665
 20
6.93192377
 30
0.0
 11
9.7530856665
 21
-11.0685895447
 31
0.0
  0
LINE
  5
1A1
330
163
100
AcDbEntity
  8
0
  6
Continuous
 62
     7
370
    25
100
AcDbLine
 10
9.7530856665
 20
-11.0685895447
 30
0.0
 11
9.2863902776
 21
-11.5240985516
 31
0.0
  0
VIEWPORT
  5
1EE
330
163
100
AcDbEntity
  8
0
100
AcDbViewport
 10
0.0
 20
0.0
 30
0.0
 40
8.4
 41
6.4
 68
     1
 69
     1
 12
-29.911000146
 22
-0.0032904191
 13
0.0
 23
0.0
 14
0.5
 24
0.5
 15
0.5
 25
0.5
 16
0.0
 26
0.0
 36
1.0
 17
0.0
 27
0.0
 37
0.0
 42
50.0
 43
0.0
 44
0.0
 45
51.8866446288
 50
0.0
 51
0.0
 72
   100
 90
   557152
  1

281
     0
 71
     1
 74
     0
110
0.0
120
0.0
130
0.0
111
1.0
121
0.0
131
0.0
112
0.0
122
1.0
132
0.0
 79
     0
146
0.0
  0
ENDBLK
  5
166
330
163
100
AcDbEntity
  8
0
100
AcDbBlockEnd
  0
BLOCK
  5
1A4
330
1A2
100
AcDbEntity
  8
0
100
AcDbBlockBegin
  2
*Paper_Space7
 70
     0
 10
0.0
 20
0.0
 30
0.0
  3
*Paper_Space7
  1

  0
LINE
  5
1A6
330
1A2
100
AcDbEntity
  8
0
  6
Continuous
 62
     7
100
AcDbLine
 10
0.0
 20
0.0
 30
0.0
 11
0.2195612152
 21
-0.027662113
 31
0.0
  0
LINE
  5
1A7
330
1A2
100
AcDbEntity
  8
0
  6
Continuous
 62
     7
100
AcDbLine
 10
0.0
 20
0.0
 30
0.0
 11
0.0
 21
0.442593808
 31
0.0
  0
POINT
  5
1A8
330
1A2
100
AcDbEntity
  8
0
  6
Continuous
 62
     7
100
AcDbPoint
 10
0.0
 20
0.0
 30
0.0
  0
LINE
  5
1C5
330
1A2
100
AcDbEntity
  8
0
  6
Continuous
 62
     7
370
    25
100
AcDbLine
 10
-30.8067465056
 20
-9.2556248627
 30
0.0
 11
-30.8067465056
 21
-27.1689966533
 31
0.0
  0
LINE
  5
1C6
330
1A2
100
AcDbEntity
  8
0
  6
Continuous
 62
     7
370
    25
100
AcDbLine
 10
-30.8067465056
 20
-27.1689966533
 30
0.0
 11
-13.0338739179
 21
-29.408168126
 31
0.0
  0
LINE
  5
1C7
330
1A2
100
AcDbEntity
  8
0
  6
Continuous
 62
     7
370
    25
100
AcDbLine
 10
-13.0338739179
 20
-29.408168126
 30
0.0
 11
-13.0338739179
 21
-11.4947963354
 31
0.0
  0
LINE
  5
1C8
330
1A2
100
AcDbEntity
  8
0
  6
Continuous
 62
     7
370
    25
100
AcDbLine
 10
-13.0338739179
 20
-11.4947963354
 30
0.0
 11
-30.8067465056
 21
-9.2556248627
 31
0.0
  0
LINE
  5
1C9
330
1A2
100
AcDbEntity
  8
0
  6
Continuous
 62
     7
370
    25
100
AcDbLine
 10
-31.7421608524
 20
-8.194964691
 30
0.0
 11
-31.7421608524
 21
-27.9939545648
 31
0.0
  0
LINE
  5
1CA
330
1A2
100
AcDbEntity
  8
0
  6
Continuous
 62
     7
370
    25
100
AcDbLine
 10
-12.0984595712
 20
-10.669838424
 30
0.0
 11
-31.7421608524
 21
-8.194964691
 31
0.0
  0
LINE
  5
1CB
330
1A2
100
AcDbEntity
  8
0
  6
Continuous
 62
     7
370
    25
100
AcDbLine
 10
-12.0984595712
 20
-30.4688282978
 30
0.0
 11
-12.0984595712
 21
-10.669838424
 31
0.0
  0
LINE
  5
1CC
330
1A2
100
AcDbEntity
  8
0
  6
Continuous
 62
     7
370
    25
100
AcDbLine
 10
-31.7421608524
 20
-27.9939545648
 30
0.0
 11
-12.0984595712
 21
-30.4688282978
 31
0.0
  0
LINE
  5
1CD
330
1A2
100
AcDbEntity
  8
0
  6
Continuous
 62
     7
370
    25
100
AcDbLine
 10
-12.0984595712
 20
-10.669838424
 30
0.0
 11
9.3541434672
 21
8.2495791147
 31
0.0
  0
LINE
  5
1CE
330
1A2
100
AcDbEntity
  8
0
  6
Continuous
 62
     7
370
    25
100
AcDbLine
 10
-31.7421608524
 20
-8.194964691
 30
0.0
 11
-31.3886074618
 21
-7.8831599088
 31
0.0
  0
LINE
  5
1CF
330
1A2
100
AcDbEntity
  8
0
  6
Continuous
 62
     7
370
    25
100
AcDbLine
 10
-11.7449061806
 20
-10.3580336418
 30
0.0
 11
-31.3886074618
 21
-7.8831599088
 31
0.0
  0
LINE
  5
1D0
330
1A2
100
AcDbEntity
  8
0
  6
Continuous
 62
     7
370
    25
100
AcDbLine
 10
-12.0984595712
 20
-30.4688282978
 30
0.0
 11
-11.7449061806
 21
-30.1570235156
 31
0.0
  0
LINE
  5
1D1
330
1A2
100
AcDbEntity
  8
0
  6
Continuous
 62
     7
370
    25
100
AcDbLine
 10
-11.7449061806
 20
-30.1570235156
 30
0.0
 11
-11.7449061806
 21
-10.3580336418
 31
0.0
  0
LINE
  5
1D2
330
1A2
100
AcDbEntity
  8
0
  6
Continuous
 62
     7
370
    25
100
AcDbLine
 10
9.3541434672
 20
-10.6066017175
 30
0.0
 11
9.3541434672
 21
8.2495791147
 31
0.0
  0
LINE
  5
1D3
330
1A2
100
AcDbEntity
  8
0
  6
Continuous
 62
     7
370
    25
100
AcDbLine
 10
-11.7449061806
 20
-29.214214474
 30
0.0
 11
9.3541434672
 21
-10.6066017175
 31
0.0
  0
LINE
  5
1D4
330
1A2
100
AcDbEntity
  8
0
  6
Continuous
 62
     7
370
    25
100
AcDbLine
 10
-30.4531931151
 20
-8.0010110389
 30
0.0
 11
-9.3541434672
 21
10.6066017175
 31
0.0
  0
LINE
  5
1D5
330
1A2
100
AcDbEntity
  8
0
  6
Continuous
 62
     7
370
    25
100
AcDbLine
 10
9.3541434672
 20
8.2495791147
 30
0.0
 11
-9.3541434672
 21
10.6066017175
 31
0.0
  0
LINE
  5
1D6
330
1A2
100
AcDbEntity
  8
0
  6
Continuous
 62
     7
370
    25
100
AcDbLine
 10
-13.0338739179
 20
-11.4947963361
 30
0.0
 11
-30.8067465056
 21
-27.1689966533
 31
0.0
  0
LINE
  5
1D7
330
1A2
100
AcDbEntity
  8
0
  6
Continuous
 62
     7
370
    25
100
AcDbLine
 10
-9.8218506406
 20
10.1941227618
 30
0.0
 11
-9.8218506406
 21
11.1369318034
 31
0.0
  0
LINE
  5
1D8
330
1A2
100
AcDbEntity
  8
0
  6
Continuous
 62
     7
370
    25
100
AcDbLine
 10
-9.8218506406
 20
11.1369318034
 30
0.0
 11
9.8218506406
 21
8.6620580704
 31
0.0
  0
LINE
  5
1D9
330
1A2
100
AcDbEntity
  8
0
  6
Continuous
 62
     7
370
    25
100
AcDbLine
 10
9.8218506406
 20
8.6620580704
 30
0.0
 11
9.8218506406
 21
-11.1369318034
 31
0.0
  0
LINE
  5
1DA
330
1A2
100
AcDbEntity
  8
0
  6
Continuous
 62
     7
370
    25
100
AcDbLine
 10
9.8218506406
 20
-11.1369318034
 30
0.0
 11
8.8864362939
 21
-11.0190806733
 31
0.0
  0
LINE
  5
1DB
330
1A2
100
AcDbEntity
  8
0
  6
Continuous
 62
     7
370
    25
100
AcDbLine
 10
-9.4682972501
 20
11.4487365856
 30
0.0
 11
-9.8218506406
 21
11.1369318034
 31
0.0
  0
LINE
  5
1DC
330
1A2
100
AcDbEntity
  8
0
  6
Continuous
 62
     7
370
    25
100
AcDbLine
 10
-9.4682972501
 20
11.4487365856
 30
0.0
 11
10.1754040311
 21
8.9738628526
 31
0.0
  0
LINE
  5
1DD
330
1A2
100
AcDbEntity
  8
0
  6
Continuous
 62
     7
370
    25
100
AcDbLine
 10
10.1754040311
 20
8.9738628526
 30
0.0
 11
9.8218506406
 21
8.6620580704
 31
0.0
  0
LINE
  5
1DE
330
1A2
100
AcDbEntity
  8
0
  6
Continuous
 62
     7
370
    25
100
AcDbLine
 10
10.1754040311
 20
8.9738628526
 30
0.0
 11
10.1754040311
 21
-10.8251270212
 31
0.0
  0
LINE
  5
1DF
330
1A2
100
AcDbEntity
  8
0
  6
Continuous
 62
     7
370
    25
100
AcDbLine
 10
10.1754040311
 20
-10.8251270212
 30
0.0
 11
9.8218506406
 21
-11.1369318034
 31
0.0
  0
VIEWPORT
  5
1F0
330
1A2
100
AcDbEntity
  8
0
100
AcDbViewport
 10
0.0
 20
0.0
 30
0.0
 40
8.4
 41
6.4
 68
     1
 69
     1
 12
-29.911000146
 22
-0.0032904191
 13
0.0
 23
0.0
 14
0.5
 24
0.5
 15
0.5
 25
0.5
 16
0.0
 26
0.0
 36
1.0
 17
0.0
 27
0.0
 37
0.0
 42
50.0
 43
0.0
 44
0.0
 45
51.8866446288
 50
0.0
 51
0.0
 72
   100
 90
   557152
  1

281
     0
 71
     1
 74
     0
110
0.0
120
0.0
130
0.0
111
1.0
121
0.0
131
0.0
112
0.0
122
1.0
132
0.0
 79
     0
146
0.0
  0
ENDBLK
  5
1A5
330
1A2
100
AcDbEntity
  8
0
100
AcDbBlockEnd
  0
ENDSEC
  0
SECTION
  2
ENTITIES
  0
LINE
  5
63
330
1F
100
AcDbEntity
  8
0
  6
Continuous
 62
     7
100
AcDbLine
 10
0.0
 20
0.0
 30
0.0
 11
0.0445279147
 21
-0.0571990429
 31
0.0
  0
LINE
  5
64
330
1F
100
AcDbEntity
  8
0
  6
Continuous
 62
     7
100
AcDbLine
 10
0.0
 20
0.0
 30
0.0
 11
0.0223253583
 21
0.4552894838
 31
0.0
  0
POINT
  5
65
330
1F
100
AcDbEntity
  8
0
  6
Continuous
 62
     7
100
AcDbPoint
 10
0.0
 20
0.0
 30
0.0
  0
LINE
  5
82
330
1F
100
AcDbEntity
  8
0
  6
Continuous
 62
     7
370
    25
100
AcDbLine
 10
-62.1531005495
 20
11.5219692217
 30
0.0
 11
-63.0566885266
 21
-6.9052424783
 31
0.0
  0
LINE
  5
83
330
1F
100
AcDbEntity
  8
0
  6
Continuous
 62
     7
370
    25
100
AcDbLine
 10
-63.0566885266
 20
-6.9052424783
 30
0.0
 11
-59.4522770932
 21
-11.5353466632
 31
0.0
  0
LINE
  5
84
330
1F
100
AcDbEntity
  8
0
  6
Continuous
 62
     7
370
    25
100
AcDbLine
 10
-59.4522770932
 20
-11.5353466632
 30
0.0
 11
-58.5486891161
 21
6.8918650368
 31
0.0
  0
LINE
  5
85
330
1F
100
AcDbEntity
  8
0
  6
Continuous
 62
     7
370
    25
100
AcDbLine
 10
-58.5486891161
 20
6.8918650368
 30
0.0
 11
-62.1531005495
 21
11.5219692217
 31
0.0
  0
LINE
  5
86
330
1F
100
AcDbEntity
  8
0
  6
Continuous
 62
     7
370
    25
100
AcDbLine
 10
-62.2952491525
 20
12.735512163
 30
0.0
 11
-63.2939516535
 21
-7.6314060317
 31
0.0
  0
LINE
  5
87
330
1F
100
AcDbEntity
  8
0
  6
Continuous
 62
     7
370
    25
100
AcDbLine
 10
-58.3114259892
 20
7.6180285902
 30
0.0
 11
-62.2952491525
 21
12.735512163
 31
0.0
  0
LINE
  5
88
330
1F
100
AcDbEntity
  8
0
  6
Continuous
 62
     7
370
    25
100
AcDbLine
 10
-59.3101284902
 20
-12.7488896045
 30
0.0
 11
-58.3114259892
 21
7.6180285902
 31
0.0
  0
LINE
  5
89
330
1F
100
AcDbEntity
  8
0
  6
Continuous
 62
     7
370
    25
100
AcDbLine
 10
-63.2939516535
 20
-7.6314060317
 30
0.0
 11
-59.3101284902
 21
-12.7488896045
 31
0.0
  0
LINE
  5
8A
330
1F
100
AcDbEntity
  8
0
  6
Continuous
 62
     7
370
    25
100
AcDbLine
 10
-58.3114259892
 20
7.6180285902
 30
0.0
 11
-57.3307374598
 21
7.6181364728
 31
0.0
  0
LINE
  5
8B
330
1F
100
AcDbEntity
  8
0
  6
Continuous
 62
     7
370
    25
100
AcDbLine
 10
-62.2952491525
 20
12.735512163
 30
0.0
 11
-61.3145606231
 21
12.7356200456
 31
0.0
  0
LINE
  5
8C
330
1F
100
AcDbEntity
  8
0
  6
Continuous
 62
     7
370
    25
100
AcDbLine
 10
-57.3307374598
 20
7.6181364728
 30
0.0
 11
-61.3145606231
 21
12.7356200456
 31
0.0
  0
LINE
  5
8D
330
1F
100
AcDbEntity
  8
0
  6
Continuous
 62
     7
370
    25
100
AcDbLine
 10
-59.3101284902
 20
-12.7488896045
 30
0.0
 11
-58.3294399608
 21
-12.7487817219
 31
0.0
  0
LINE
  5
8E
330
1F
100
AcDbEntity
  8
0
  6
Continuous
 62
     7
370
    25
100
AcDbLine
 10
-58.3294399608
 20
-12.7487817219
 30
0.0
 11
-57.3307374598
 21
7.6181364728
 31
0.0
  0
LINE
  5
8F
330
1F
100
AcDbEntity
  8
0
  6
Continuous
 62
     7
370
    25
100
AcDbLine
 10
-60.8422397335
 20
12.1288927149
 30
0.0
 11
-1.4214860297
 21
12.1354294131
 31
0.0
  0
LINE
  5
90
330
1F
100
AcDbEntity
  8
0
  6
Continuous
 62
     7
370
    25
100
AcDbLine
 10
2.3726312687
 20
7.2616355342
 30
0.0
 11
-1.4214860297
 21
12.1354294131
 31
0.0
  0
LINE
  5
91
330
1F
100
AcDbEntity
  8
0
  6
Continuous
 62
     7
370
    25
100
AcDbLine
 10
-57.348540821
 20
7.2550657879
 30
0.0
 11
2.3726312687
 21
7.2616355342
 31
0.0
  0
LINE
  5
92
330
1F
100
AcDbEntity
  8
0
  6
Continuous
 62
     7
370
    25
100
AcDbLine
 10
1.4214860297
 20
-12.1354294131
 30
0.0
 11
2.3726312687
 21
7.2616355342
 31
0.0
  0
LINE
  5
93
330
1F
100
AcDbEntity
  8
0
  6
Continuous
 62
     7
370
    25
100
AcDbLine
 10
-58.2996860601
 20
-12.1419991594
 30
0.0
 11
1.4214860297
 21
-12.1354294131
 31
0.0
  0
LINE
  5
94
330
1F
100
AcDbEntity
  8
0
  6
Continuous
 62
     7
370
    25
100
AcDbLine
 10
-59.2252168415
 20
-6.9048209896
 30
0.0
 11
-63.0566885266
 21
-6.9052424783
 31
0.0
  0
LINE
  5
95
330
1F
100
AcDbEntity
  8
0
  6
Continuous
 62
     7
370
    25
100
AcDbLine
 10
-1.5223142319
 20
12.1354183213
 30
0.0
 11
-1.4925603312
 21
12.7422008837
 31
0.0
  0
LINE
  5
96
330
1F
100
AcDbEntity
  8
0
  6
Continuous
 62
     7
370
    25
100
AcDbLine
 10
-1.4925603312
 20
12.7422008837
 30
0.0
 11
2.4912628322
 21
7.624717311
 31
0.0
  0
LINE
  5
97
330
1F
100
AcDbEntity
  8
0
  6
Continuous
 62
     7
370
    25
100
AcDbLine
 10
2.4912628322
 20
7.624717311
 30
0.0
 11
1.4925603312
 21
-12.7422008837
 31
0.0
  0
LINE
  5
98
330
1F
100
AcDbEntity
  8
0
  6
Continuous
 62
     7
370
    25
100
AcDbLine
 10
1.4925603312
 20
-12.7422008837
 30
0.0
 11
1.0202394415
 21
-12.135473553
 31
0.0
  0
LINE
  5
99
330
1F
100
AcDbEntity
  8
0
  6
Continuous
 62
     7
370
    25
100
AcDbLine
 10
3.4719513615
 20
7.6248251936
 30
0.0
 11
2.4912628322
 21
7.624717311
 31
0.0
  0
LINE
  5
9A
330
1F
100
AcDbEntity
  8
0
  6
Continuous
 62
     7
370
    25
100
AcDbLine
 10
3.4719513615
 20
7.6248251936
 30
0.0
 11
2.4732488605
 21
-12.7420930012
 31
0.0
  0
LINE
  5
9B
330
1F
100
AcDbEntity
  8
0
  6
Continuous
 62
     7
370
    25
100
AcDbLine
 10
2.4732488605
 20
-12.7420930012
 30
0.0
 11
1.4925603312
 21
-12.7422008837
 31
0.0
  0
LINE
  5
9C
330
1F
100
AcDbEntity
  8
0
  6
Continuous
 62
     7
370
    25
100
AcDbLine
 10
-0.5118718018
 20
12.7423087663
 30
0.0
 11
-1.4925603312
 21
12.7422008837
 31
0.0
  0
LINE
  5
9D
330
1F
100
AcDbEntity
  8
0
  6
Continuous
 62
     7
370
    25
100
AcDbLine
 10
-0.5118718018
 20
12.7423087663
 30
0.0
 11
3.4719513615
 21
7.6248251936
 31
0.0
  0
LINE
  5
9E
330
1B
100
AcDbEntity
 67
     1
  8
0
  6
Continuous
 62
     7
100
AcDbLine
 10
0.0
 20
0.0
 30
0.0
 11
0.2347208122
 21
0.0
 31
0.0
  0
LINE
  5
9F
330
1B
100
AcDbEntity
 67
     1
  8
0
  6
Continuous
 62
     7
100
AcDbLine
 10
0.0
 20
0.0
 30
0.0
 11
0.0
 21
0.4694416244
 31
0.0
  0
POINT
  5
A0
330
1B
100
AcDbEntity
 67
     1
  8
0
  6
Continuous
 62
     7
100
AcDbPoint
 10
0.0
 20
0.0
 30
0.0
  0
LINE
  5
A9
330
1B
100
AcDbEntity
 67
     1
  8
0
  6
Continuous
 62
     7
370
    25
100
AcDbLine
 10
-10.5
 20
10.5
 30
0.0
 11
-10.5
 21
-10.5
 31
0.0
  0
LINE
  5
AA
330
1B
100
AcDbEntity
 67
     1
  8
0
  6
Continuous
 62
     7
370
    25
100
AcDbLine
 10
10.5
 20
-10.5
 30
0.0
 11
10.5
 21
10.5
 31
0.0
  0
LINE
  5
AB
330
1B
100
AcDbEntity
 67
     1
  8
0
  6
Continuous
 62
     7
370
    25
100
AcDbLine
 10
-10.5
 20
-10.5
 30
0.0
 11
10.5
 21
-10.5
 31
0.0
  0
LINE
  5
AC
330
1B
100
AcDbEntity
 67
     1
  8
0
  6
Continuous
 62
     7
370
    25
100
AcDbLine
 10
-9.5
 20
9.5
 30
0.0
 11
-9.5
 21
-9.5
 31
0.0
  0
LINE
  5
AD
330
1B
100
AcDbEntity
 67
     1
  8
0
  6
Continuous
 62
     7
370
    25
100
AcDbLine
 10
10.5
 20
10.5
 30
0.0
 11
-10.5
 21
10.5
 31
0.0
  0
LINE
  5
AE
330
1B
100
AcDbEntity
 67
     1
  8
0
  6
Continuous
 62
     7
370
    25
100
AcDbLine
 10
9.5
 20
-9.5
 30
0.0
 11
9.5
 21
9.5
 31
0.0
  0
LINE
  5
AF
330
1B
100
AcDbEntity
 67
     1
  8
0
  6
Continuous
 62
     7
370
    25
100
AcDbLine
 10
-9.5
 20
-9.5
 30
0.0
 11
9.5
 21
-9.5
 31
0.0
  0
LINE
  5
B0
330
1B
100
AcDbEntity
 67
     1
  8
0
  6
Continuous
 62
     7
370
    25
100
AcDbLine
 10
9.5
 20
9.5
 30
0.0
 11
-9.5
 21
9.5
 31
0.0
  0
VIEWPORT
  5
1E0
330
1B
100
AcDbEntity
 67
     1
  8
0
100
AcDbViewport
 10
0.0
 20
0.0
 30
0.0
 40
8.4
 41
6.4
 68
     1
 69
     1
 12
-29.911000146
 22
-0.0032904191
 13
0.0
 23
0.0
 14
0.5
 24
0.5
 15
0.5
 25
0.5
 16
0.0
 26
0.0
 36
1.0
 17
0.0
 27
0.0
 37
0.0
 42
50.0
 43
0.0
 44
0.0
 45
51.8866446288
 50
0.0
 51
0.0
 72
   100
 90
   557152
  1

281
     0
 71
     1
 74
     0
110
0.0
120
0.0
130
0.0
111
1.0
121
0.0
131
0.0
112
0.0
122
1.0
132
0.0
 79
     0
146
0.0
  0
ENDSEC
  0
SECTION
  2
OBJECTS
  0
DICTIONARY
  5
C
330
0
100
AcDbDictionary
281
     1
  3
ACAD_GROUP
350
D
  3
ACAD_LAYOUT
350
1A
  3
ACAD_MLINESTYLE
350
17
  3
ACAD_PLOTSETTINGS
350
19
  3
ACAD_PLOTSTYLENAME
350
E
  3
ACAD_SCALELIST
350
47
  3
DWGPROPS
350
1F2
  0
DICTIONARY
  5
D
102
{ACAD_REACTORS
330
C
102
}
330
C
100
AcDbDictionary
281
     1
  0
DICTIONARY
  5
1A
102
{ACAD_REACTORS
330
C
102
}
330
C
100
AcDbDictionary
281
     1
  3
_Back
350
C6
  3
_Bottom
350
10D
  3
_Dimetric
350
1A3
  3
_Front
350
1E
  3
_Isometric
350
125
  3
_Left
350
DD
  3
_Right
350
F5
  3
_Top
350
26
  3
_Trimetric
350
164
  3
Model
350
22
  0
DICTIONARY
  5
17
102
{ACAD_REACTORS
330
C
102
}
330
C
100
AcDbDictionary
281
     1
  3
Standard
350
18
  0
DICTIONARY
  5
19
102
{ACAD_REACTORS
330
C
102
}
330
C
100
AcDbDictionary
281
     1
  0
ACDBDICTIONARYWDFLT
  5
E
102
{ACAD_REACTORS
330
C
102
}
330
C
100
AcDbDictionary
281
     1
  3
Normal
350
F
100
AcDbDictionaryWithDefault
340
F
  0
DICTIONARY
  5
47
102
{ACAD_REACTORS
330
C
102
}
330
C
100
AcDbDictionary
281
     1
  3
A0
350
48
  3
A1
350
49
  3
A2
350
4A
  3
A3
350
4B
  3
A4
350
4C
  3
A5
350
4D
  3
A6
350
4E
  3
A7
350
4F
  3
A8
350
50
  3
A9
350
51
  3
B1
350
52
  3
B2
350
53
  3
B3
350
54
  3
B4
350
55
  3
B5
350
56
  3
B6
350
57
  3
B7
350
58
  0
XRECORD
  5
1F2
102
{ACAD_REACTORS
330
C
102
}
330
C
100
AcDbXrecord
280
     1
  1
DWGPROPS COOKIE
  2

  3

  4

  6

  7

  8
Maddie
  9

300
=
301
=
302
=
303
=
304
=
305
=
306
=
307
=
308
=
309
=
 40
0.0
 41
2461059.547912072
 42
2461059.548060035
  1

 90
        0
  0
LAYOUT
  5
C6
102
{ACAD_REACTORS
330
1A
102
}
330
1A
100
AcDbPlotSettings
  1

  2
none_device
  4
Letter_(8.50_x_11.00_Inches)
  6

 40
6.35
 41
6.35
 42
6.35001
 43
6.35001
 44
215.9
 45
279.4
 46
0.0
 47
0.0
 48
0.0
 49
0.0
140
0.0
141
0.0
142
1.0
143
2.6250001292
 70
   688
 72
     0
 73
     1
 74
     1
  7

 75
     0
147
0.3809523622
148
266.7
149
266.7
100
AcDbLayout
  1
_Back
 70
     1
 71
     3
 10
0.0
 20
0.0
 11
0.0
 21
0.0
 12
0.0
 22
0.0
 32
0.0
 14
0.0
 24
0.0
 34
0.0
 15
0.0
 25
0.0
 35
0.0
146
0.0
 13
0.0
 23
0.0
 33
0.0
 16
1.0
 26
0.0
 36
0.0
 17
0.0
 27
1.0
 37
0.0
 76
     0
330
C5
331
1E4
  0
LAYOUT
  5
10D
102
{ACAD_REACTORS
330
1A
102
}
330
1A
100
AcDbPlotSettings
  1

  2
none_device
  4
Letter_(8.50_x_11.00_Inches)
  6

 40
6.35
 41
6.35
 42
6.35001
 43
6.35001
 44
215.9
 45
279.4
 46
0.0
 47
0.0
 48
0.0
 49
0.0
140
0.0
141
0.0
142
1.0
143
2.6250001292
 70
   688
 72
     0
 73
     1
 74
     1
  7

 75
     0
147
0.3809523622
148
266.7
149
266.7
100
AcDbLayout
  1
_Bottom
 70
     1
 71
     6
 10
0.0
 20
0.0
 11
0.0
 21
0.0
 12
0.0
 22
0.0
 32
0.0
 14
0.0
 24
0.0
 34
0.0
 15
0.0
 25
0.0
 35
0.0
146
0.0
 13
0.0
 23
0.0
 33
0.0
 16
1.0
 26
0.0
 36
0.0
 17
0.0
 27
1.0
 37
0.0
 76
     0
330
10C
331
1EA
  0
LAYOUT
  5
1A3
102
{ACAD_REACTORS
330
1A
102
}
330
1A
100
AcDbPlotSettings
  1

  2
none_device
  4
Letter_(8.50_x_11.00_Inches)
  6

 40
6.35
 41
6.35
 42
6.35001
 43
6.35001
 44
215.9
 45
279.4
 46
0.0
 47
0.0
 48
0.0
 49
0.0
140
0.0
141
0.0
142
1.0
143
2.6250001292
 70
   688
 72
     0
 73
     1
 74
     1
  7

 75
     0
147
0.3809523622
148
266.7
149
266.7
100
AcDbLayout
  1
_Dimetric
 70
     1
 71
     9
 10
0.0
 20
0.0
 11
0.0
 21
0.0
 12
0.0
 22
0.0
 32
0.0
 14
0.0
 24
0.0
 34
0.0
 15
0.0
 25
0.0
 35
0.0
146
0.0
 13
0.0
 23
0.0
 33
0.0
 16
1.0
 26
0.0
 36
0.0
 17
0.0
 27
1.0
 37
0.0
 76
     0
330
1A2
331
1F0
  0
LAYOUT
  5
1E
102
{ACAD_REACTORS
330
1A
102
}
330
1A
100
AcDbPlotSettings
  1

  2
none_device
  4
Letter_(8.50_x_11.00_Inches)
  6

 40
6.35
 41
6.35
 42
6.35001
 43
6.35001
 44
215.9
 45
279.4
 46
0.0
 47
0.0
 48
0.0
 49
0.0
140
0.0
141
0.0
142
1.0
143
2.6250001292
 70
   688
 72
     0
 73
     1
 74
     1
  7

 75
     0
147
0.3809523622
148
266.7
149
266.7
100
AcDbLayout
  1
_Front
 70
     1
 71
     1
 10
-11.1562510658
 20
-11.1562500323
 11
17.7187503553
 21
11.1562510658
 12
0.0
 22
0.0
 32
0.0
 14
-10.5
 24
-10.5
 34
0.0
 15
10.5
 25
10.5
 35
0.0
146
0.0
 13
0.0
 23
0.0
 33
0.0
 16
1.0
 26
0.0
 36
0.0
 17
0.0
 27
1.0
 37
0.0
 76
     0
330
1B
331
1E0
  0
LAYOUT
  5
125
102
{ACAD_REACTORS
330
1A
102
}
330
1A
100
AcDbPlotSettings
  1

  2
none_device
  4
Letter_(8.50_x_11.00_Inches)
  6

 40
6.35
 41
6.35
 42
6.35001
 43
6.35001
 44
215.9
 45
279.4
 46
0.0
 47
0.0
 48
0.0
 49
0.0
140
0.0
141
0.0
142
1.0
143
2.6250001292
 70
   688
 72
     0
 73
     1
 74
     1
  7

 75
     0
147
0.3809523622
148
266.7
149
266.7
100
AcDbLayout
  1
_Isometric
 70
     1
 71
     7
 10
0.0
 20
0.0
 11
0.0
 21
0.0
 12
0.0
 22
0.0
 32
0.0
 14
0.0
 24
0.0
 34
0.0
 15
0.0
 25
0.0
 35
0.0
146
0.0
 13
0.0
 23
0.0
 33
0.0
 16
1.0
 26
0.0
 36
0.0
 17
0.0
 27
1.0
 37
0.0
 76
     0
330
124
331
1EC
  0
LAYOUT
  5
DD
102
{ACAD_REACTORS
330
1A
102
}
330
1A
100
AcDbPlotSettings
  1

  2
none_device
  4
Letter_(8.50_x_11.00_Inches)
  6

 40
6.35
 41
6.35
 42
6.35001
 43
6.35001
 44
215.9
 45
279.4
 46
0.0
 47
0.0
 48
0.0
 49
0.0
140
0.0
141
0.0
142
1.0
143
2.6250001292
 70
   688
 72
     0
 73
     1
 74
     1
  7

 75
     0
147
0.3809523622
148
266.7
149
266.7
100
AcDbLayout
  1
_Left
 70
     1
 71
     4
 10
0.0
 20
0.0
 11
0.0
 21
0.0
 12
0.0
 22
0.0
 32
0.0
 14
0.0
 24
0.0
 34
0.0
 15
0.0
 25
0.0
 35
0.0
146
0.0
 13
0.0
 23
0.0
 33
0.0
 16
1.0
 26
0.0
 36
0.0
 17
0.0
 27
1.0
 37
0.0
 76
     0
330
DC
331
1E6
  0
LAYOUT
  5
F5
102
{ACAD_REACTORS
330
1A
102
}
330
1A
100
AcDbPlotSettings
  1

  2
none_device
  4
Letter_(8.50_x_11.00_Inches)
  6

 40
6.35
 41
6.35
 42
6.35001
 43
6.35001
 44
215.9
 45
279.4
 46
0.0
 47
0.0
 48
0.0
 49
0.0
140
0.0
141
0.0
142
1.0
143
2.6250001292
 70
   688
 72
     0
 73
     1
 74
     1
  7

 75
     0
147
0.3809523622
148
266.7
149
266.7
100
AcDbLayout
  1
_Right
 70
     1
 71
     5
 10
0.0
 20
0.0
 11
0.0
 21
0.0
 12
0.0
 22
0.0
 32
0.0
 14
0.0
 24
0.0
 34
0.0
 15
0.0
 25
0.0
 35
0.0
146
0.0
 13
0.0
 23
0.0
 33
0.0
 16
1.0
 26
0.0
 36
0.0
 17
0.0
 27
1.0
 37
0.0
 76
     0
330
F4
331
1E8
  0
LAYOUT
  5
26
102
{ACAD_REACTORS
330
1A
102
}
330
1A
100
AcDbPlotSettings
  1

  2
none_device
  4
Letter_(8.50_x_11.00_Inches)
  6

 40
6.35
 41
6.35
 42
6.35001
 43
6.35001
 44
215.9
 45
279.4
 46
0.0
 47
0.0
 48
0.0
 49
0.0
140
0.0
141
0.0
142
1.0
143
2.6250001292
 70
   688
 72
     0
 73
     1
 74
     1
  7

 75
     0
147
0.3809523622
148
266.7
149
266.7
100
AcDbLayout
  1
_Top
 70
     1
 71
     2
 10
0.0
 20
0.0
 11
0.0
 21
0.0
 12
0.0
 22
0.0
 32
0.0
 14
0.0
 24
0.0
 34
0.0
 15
0.0
 25
0.0
 35
0.0
146
0.0
 13
0.0
 23
0.0
 33
0.0
 16
1.0
 26
0.0
 36
0.0
 17
0.0
 27
1.0
 37
0.0
 76
     0
330
23
331
1E2
  0
LAYOUT
  5
164
102
{ACAD_REACTORS
330
1A
102
}
330
1A
100
AcDbPlotSettings
  1

  2
none_device
  4
Letter_(8.50_x_11.00_Inches)
  6

 40
6.35
 41
6.35
 42
6.35001
 43
6.35001
 44
215.9
 45
279.4
 46
0.0
 47
0.0
 48
0.0
 49
0.0
140
0.0
141
0.0
142
1.0
143
2.6250001292
 70
   688
 72
     0
 73
     1
 74
     1
  7

 75
     0
147
0.3809523622
148
266.7
149
266.7
100
AcDbLayout
  1
_Trimetric
 70
     1
 71
     8
 10
0.0
 20
0.0
 11
0.0
 21
0.0
 12
0.0
 22
0.0
 32
0.0
 14
0.0
 24
0.0
 34
0.0
 15
0.0
 25
0.0
 35
0.0
146
0.0
 13
0.0
 23
0.0
 33
0.0
 16
1.0
 26
0.0
 36
0.0
 17
0.0
 27
1.0
 37
0.0
 76
     0
330
163
331
1EE
  0
LAYOUT
  5
22
102
{ACAD_REACTORS
330
1A
102
}
330
1A
100
AcDbPlotSettings
  1

  2
none_device
  4
ANSI_A_(11.00_x_8.50_Inches)
  6

 40
6.35
 41
19.05
 42
6.35000508
 43
19.05000254
 44
279.4
 45
215.9
 46
257.2689700607
 47
88.9136306831
 48
0.0
 49
0.0
140
0.0
141
0.0
142
0.1631072075
143
1.0
 70
  1696
 72
     0
 73
     0
 74
     0
  7

 75
     0
147
0.5913241897
148
-39.4088153714
149
0.0
100
AcDbLayout
  1
Model
 70
     1
 71
     0
 10
0.0
 20
0.0
 11
12.0
 21
9.0
 12
0.0
 22
0.0
 32
0.0
 14
-63.2939516535
 24
-12.7488896045
 34
0.0
 15
3.4719513615
 25
12.7423087663
 35
0.0
146
0.0
 13
0.0
 23
0.0
 33
0.0
 16
1.0
 26
0.0
 36
0.0
 17
0.0
 27
1.0
 37
0.0
 76
     0
330
1F
331
29
  0
MLINESTYLE
  5
18
102
{ACAD_REACTORS
330
17
102
}
330
17
100
AcDbMlineStyle
  2
Standard
 70
     0
  3

 62
   256
 51
90.0
 52
90.0
 71
     2
 49
0.5
 62
   256
  6
BYLAYER
 49
-0.5
 62
   256
  6
BYLAYER
  0
ACDBPLACEHOLDER
  5
F
102
{ACAD_REACTORS
330
E
102
}
330
E
  0
SCALE
  5
48
102
{ACAD_REACTORS
330
47
102
}
330
47
100
AcDbScale
 70
     0
300
1:1
140
1.0
141
1.0
290
     1
  0
SCALE
  5
49
102
{ACAD_REACTORS
330
47
102
}
330
47
100
AcDbScale
 70
     0
300
1/128" = 1'-0"
140
0.0078125
141
12.0
290
     0
  0
SCALE
  5
4A
102
{ACAD_REACTORS
330
47
102
}
330
47
100
AcDbScale
 70
     0
300
1/64" = 1'-0"
140
0.015625
141
12.0
290
     0
  0
SCALE
  5
4B
102
{ACAD_REACTORS
330
47
102
}
330
47
100
AcDbScale
 70
     0
300
1/32" = 1'-0"
140
0.03125
141
12.0
290
     0
  0
SCALE
  5
4C
102
{ACAD_REACTORS
330
47
102
}
330
47
100
AcDbScale
 70
     0
300
1/16" = 1'-0"
140
0.0625
141
12.0
290
     0
  0
SCALE
  5
4D
102
{ACAD_REACTORS
330
47
102
}
330
47
100
AcDbScale
 70
     0
300
3/32" = 1'-0"
140
0.09375
141
12.0
290
     0
  0
SCALE
  5
4E
102
{ACAD_REACTORS
330
47
102
}
330
47
100
AcDbScale
 70
     0
300
1/8" = 1'-0"
140
0.125
141
12.0
290
     0
  0
SCALE
  5
4F
102
{ACAD_REACTORS
330
47
102
}
330
47
100
AcDbScale
 70
     0
300
3/16" = 1'-0"
140
0.1875
141
12.0
290
     0
  0
SCALE
  5
50
102
{ACAD_REACTORS
330
47
102
}
330
47
100
AcDbScale
 70
     0
300
1/4" = 1'-0"
140
0.25
141
12.0
290
     0
  0
SCALE
  5
51
102
{ACAD_REACTORS
330
47
102
}
330
47
100
AcDbScale
 70
     0
300
3/8" = 1'-0"
140
0.375
141
12.0
290
     0
  0
SCALE
  5
52
102
{ACAD_REACTORS
330
47
102
}
330
47
100
AcDbScale
 70
     0
300
1/2" = 1'-0"
140
0.5
141
12.0
290
     0
  0
SCALE
  5
53
102
{ACAD_REACTORS
330
47
102
}
330
47
100
AcDbScale
 70
     0
300
3/4" = 1'-0"
140
0.75
141
12.0
290
     0
  0
SCALE
  5
54
102
{ACAD_REACTORS
330
47
102
}
330
47
100
AcDbScale
 70
     0
300
1" = 1'-0"
140
1.0
141
12.0
290
     0
  0
SCALE
  5
55
102
{ACAD_REACTORS
330
47
102
}
330
47
100
AcDbScale
 70
     0
300
1-1/2" = 1'-0"
140
1.5
141
12.0
290
     0
  0
SCALE
  5
56
102
{ACAD_REACTORS
330
47
102
}
330
47
100
AcDbScale
 70
     0
300
3" = 1'-0"
140
3.0
141
12.0
290
     0
  0
SCALE
  5
57
102
{ACAD_REACTORS
330
47
102
}
330
47
100
AcDbScale
 70
     0
300
6" = 1'-0"
140
6.0
141
12.0
290
     0
  0
SCALE
  5
58
102
{ACAD_REACTORS
330
47
102
}
330
47
100
AcDbScale
 70
     0
300
1'-0" = 1'-0"
140
12.0
141
12.0
290
     0
  0
ENDSEC
  0
EOF
