  0
SECTION
  2
HEADER
  9
$ACADVER
  1
AC1015
  9
$ACADMAINTVER
 70
     6
  9
$DWGCODEPAGE
  3
ANSI_1252
  9
$INSBASE
 10
0.0
 20
0.0
 30
0.0
  9
$EXTMIN
 10
-16.7930138176
 20
-14.7983202611
 30
0.0
  9
$EXTMAX
 10
19.9637553366
 20
30.7413928523
 30
0.0
  9
$LIMMIN
 10
0.0
 20
0.0
  9
$LIMMAX
 10
12.0
 20
9.0
  9
$ORTHOMODE
 70
     0
  9
$REGENMODE
 70
     1
  9
$FILLMODE
 70
     1
  9
$QTEXTMODE
 70
     0
  9
$MIRRTEXT
 70
     1
  9
$LTSCALE
 40
1.0
  9
$ATTMODE
 70
     1
  9
$TEXTSIZE
 40
0.125
  9
$TRACEWID
 40
0.05
  9
$TEXTSTYLE
  7
Standard
  9
$CLAYER
  8
0
  9
$CELTYPE
  6
ByLayer
  9
$CECOLOR
 62
   256
  9
$CELTSCALE
 40
1.0
  9
$DISPSILH
 70
     0
  9
$DIMSCALE
 40
1.0
  9
$DIMASZ
 40
0.13
  9
$DIMEXO
 40
0.0
  9
$DIMDLI
 40
0.38
  9
$DIMRND
 40
0.0
  9
$DIMDLE
 40
0.0
  9
$DIMEXE
 40
0.125
  9
$DIMTP
 40
0.0
  9
$DIMTM
 40
0.0
  9
$DIMTXT
 40
0.125
  9
$DIMCEN
 40
0.09
  9
$DIMTSZ
 40
0.0
  9
$DIMTOL
 70
     0
  9
$DIMLIM
 70
     0
  9
$DIMTIH
 70
     1
  9
$DIMTOH
 70
     1
  9
$DIMSE1
 70
     0
  9
$DIMSE2
 70
     0
  9
$DIMTAD
 70
     0
  9
$DIMZIN
 70
     1
  9
$DIMBLK
  1

  9
$DIMASO
 70
     1
  9
$DIMSHO
 70
     1
  9
$DIMPOST
  1

  9
$DIMAPOST
  1

  9
$DIMALT
 70
     0
  9
$DIMALTD
 70
     2
  9
$DIMALTF
 40
25.4
  9
$DIMLFAC
 40
1.0
  9
$DIMTOFL
 70
     0
  9
$DIMTVP
 40
0.0
  9
$DIMTIX
 70
     0
  9
$DIMSOXD
 70
     0
  9
$DIMSAH
 70
     0
  9
$DIMBLK1
  1

  9
$DIMBLK2
  1

  9
$DIMSTYLE
  2
Standard
  9
$DIMCLRD
 70
     0
  9
$DIMCLRE
 70
     0
  9
$DIMCLRT
 70
     0
  9
$DIMTFAC
 40
1.0
  9
$DIMGAP
 40
0.06
  9
$DIMJUST
 70
     0
  9
$DIMSD1
 70
     0
  9
$DIMSD2
 70
     0
  9
$DIMTOLJ
 70
     1
  9
$DIMTZIN
 70
     1
  9
$DIMALTZ
 70
     0
  9
$DIMALTTZ
 70
     0
  9
$DIMUPT
 70
     0
  9
$DIMDEC
 70
     2
  9
$DIMTDEC
 70
     2
  9
$DIMALTU
 70
     2
  9
$DIMALTTD
 70
     2
  9
$DIMTXSTY
  7
Standard
  9
$DIMAUNIT
 70
     0
  9
$DIMADEC
 70
     2
  9
$DIMALTRND
 40
0.0
  9
$DIMAZIN
 70
     0
  9
$DIMDSEP
 70
    46
  9
$DIMATFIT
 70
     3
  9
$DIMFRAC
 70
     0
  9
$DIMLDRBLK
  1

  9
$DIMLUNIT
 70
     2
  9
$DIMLWD
 70
    -2
  9
$DIMLWE
 70
    -2
  9
$DIMTMOVE
 70
     0
  9
$LUNITS
 70
     2
  9
$LUPREC
 70
     2
  9
$SKETCHINC
 40
0.1
  9
$FILLETRAD
 40
0.0
  9
$AUNITS
 70
     0
  9
$AUPREC
 70
     2
  9
$MENU
  1
.
  9
$ELEVATION
 40
0.0
  9
$PELEVATION
 40
0.0
  9
$THICKNESS
 40
0.0
  9
$LIMCHECK
 70
     0
  9
$CHAMFERA
 40
0.0
  9
$CHAMFERB
 40
0.0
  9
$CHAMFERC
 40
0.0
  9
$CHAMFERD
 40
0.0
  9
$SKPOLY
 70
     0
  9
$TDCREATE
 40
2461059.759088403
  9
$TDUCREATE
 40
2461059.55075507
  9
$TDUPDATE
 40
2461059.759415776
  9
$TDUUPDATE
 40
2461059.551082442
  9
$TDINDWG
 40
0.0000000116
  9
$TDUSRTIMER
 40
0.0000000116
  9
$USRTIMER
 70
     1
  9
$ANGBASE
 50
0.0
  9
$ANGDIR
 70
     0
  9
$PDMODE
 70
     0
  9
$PDSIZE
 40
-1.0
  9
$PLINEWID
 40
0.0
  9
$SPLFRAME
 70
     0
  9
$SPLINETYPE
 70
     6
  9
$SPLINESEGS
 70
     8
  9
$HANDSEED
  5
24A
  9
$SURFTAB1
 70
     6
  9
$SURFTAB2
 70
     6
  9
$SURFTYPE
 70
     6
  9
$SURFU
 70
     6
  9
$SURFV
 70
     6
  9
$UCSBASE
  2

  9
$UCSNAME
  2

  9
$UCSORG
 10
0.0
 20
0.0
 30
0.0
  9
$UCSXDIR
 10
1.0
 20
0.0
 30
0.0
  9
$UCSYDIR
 10
0.0
 20
1.0
 30
0.0
  9
$UCSORTHOREF
  2

  9
$UCSORTHOVIEW
 70
     0
  9
$UCSORGTOP
 10
0.0
 20
0.0
 30
0.0
  9
$UCSORGBOTTOM
 10
0.0
 20
0.0
 30
0.0
  9
$UCSORGLEFT
 10
0.0
 20
0.0
 30
0.0
  9
$UCSORGRIGHT
 10
0.0
 20
0.0
 30
0.0
  9
$UCSORGFRONT
 10
0.0
 20
0.0
 30
0.0
  9
$UCSORGBACK
 10
0.0
 20
0.0
 30
0.0
  9
$PUCSBASE
  2

  9
$PUCSNAME
  2

  9
$PUCSORG
 10
0.0
 20
0.0
 30
0.0
  9
$PUCSXDIR
 10
1.0
 20
0.0
 30
0.0
  9
$PUCSYDIR
 10
0.0
 20
1.0
 30
0.0
  9
$PUCSORTHOREF
  2

  9
$PUCSORTHOVIEW
 70
     0
  9
$PUCSORGTOP
 10
0.0
 20
0.0
 30
0.0
  9
$PUCSORGBOTTOM
 10
0.0
 20
0.0
 30
0.0
  9
$PUCSORGLEFT
 10
0.0
 20
0.0
 30
0.0
  9
$PUCSORGRIGHT
 10
0.0
 20
0.0
 30
0.0
  9
$PUCSORGFRONT
 10
0.0
 20
0.0
 30
0.0
  9
$PUCSORGBACK
 10
0.0
 20
0.0
 30
0.0
  9
$USERI1
 70
     0
  9
$USERI2
 70
     0
  9
$USERI3
 70
     0
  9
$USERI4
 70
     0
  9
$USERI5
 70
     0
  9
$USERR1
 40
0.0
  9
$USERR2
 40
0.0
  9
$USERR3
 40
0.0
  9
$USERR4
 40
0.0
  9
$USERR5
 40
0.0
  9
$WORLDVIEW
 70
     1
  9
$SHADEDGE
 70
     3
  9
$SHADEDIF
 70
    70
  9
$TILEMODE
 70
     1
  9
$MAXACTVP
 70
    64
  9
$PINSBASE
 10
0.0
 20
0.0
 30
0.0
  9
$PLIMCHECK
 70
     0
  9
$PEXTMIN
 10
-10.5
 20
-10.5
 30
0.0
  9
$PEXTMAX
 10
10.5
 20
34.5
 30
0.0
  9
$PLIMMIN
 10
-11.9062522838
 20
-11.9062500692
  9
$PLIMMAX
 10
49.9687507613
 20
35.9062522838
  9
$UNITMODE
 70
     0
  9
$VISRETAIN
 70
     1
  9
$PLINEGEN
 70
     0
  9
$PSLTSCALE
 70
     1
  9
$TREEDEPTH
 70
  3020
  9
$CMLSTYLE
  2
Standard
  9
$CMLJUST
 70
     0
  9
$CMLSCALE
 40
1.0
  9
$PROXYGRAPHICS
 70
     1
  9
$MEASUREMENT
 70
     0
  9
$CELWEIGHT
370
    -1
  9
$ENDCAPS
280
     0
  9
$JOINSTYLE
280
     0
  9
$LWDISPLAY
290
     1
  9
$INSUNITS
 70
     1
  9
$HYPERLINKBASE
  1

  9
$STYLESHEET
  1

  9
$XEDIT
290
     1
  9
$CEPSNTYPE
380
     0
  9
$PSTYLEMODE
290
     1
  9
$FINGERPRINTGUID
  2
{778d1ad4-b3a9-4244-ab4f-905a4d845c31}
  9
$VERSIONGUID
  2
{FAEB1C32-E019-11D5-929B-00C0DF256EC4}
  9
$EXTNAMES
290
     1
  9
$PSVPSCALE
 40
0.0
  9
$OLESTARTUP
290
     0
  0
ENDSEC
  0
SECTION
  2
CLASSES
  0
CLASS
  1
ACDBDICTIONARYWDFLT
  2
AcDbDictionaryWithDefault
  3
ObjectDBX Classes
 90
        0
280
     0
281
     0
  0
CLASS
  1
VISUALSTYLE
  2
AcDbVisualStyle
  3
ObjectDBX Classes
 90
     4095
280
     0
281
     0
  0
CLASS
  1
MATERIAL
  2
AcDbMaterial
  3
ObjectDBX Classes
 90
     1153
280
     0
281
     0
  0
CLASS
  1
SCALE
  2
AcDbScale
  3
ObjectDBX Classes
 90
     1153
280
     0
281
     0
  0
CLASS
  1
TABLESTYLE
  2
AcDbTableStyle
  3
ObjectDBX Classes
 90
     4095
280
     0
281
     0
  0
CLASS
  1
MLEADERSTYLE
  2
AcDbMLeaderStyle
  3
ACDB_MLEADERSTYLE_CLASS
 90
     4095
280
     0
281
     0
  0
CLASS
  1
SUN
  2
AcDbSun
  3
SCENEOE
 90
     1153
280
     0
281
     0
  0
CLASS
  1
ACDBPLACEHOLDER
  2
AcDbPlaceHolder
  3
ObjectDBX Classes
 90
        0
280
     0
281
     0
  0
CLASS
  1
LAYOUT
  2
AcDbLayout
  3
ObjectDBX Classes
 90
        0
280
     0
281
     0
  0
ENDSEC
  0
SECTION
  2
TABLES
  0
TABLE
  2
VPORT
  5
8
330
0
100
AcDbSymbolTable
 70
     1
  0
VPORT
  5
29
330
8
100
AcDbSymbolTableRecord
100
AcDbViewportTableRecord
  2
*Active
 70
     0
 10
0.0
 20
0.0
 11
1.0
 21
1.0
 12
1.5853707595
 22
7.9715362956
 13
0.0
 23
0.0
 14
0.5
 24
0.5
 15
0.5
 25
0.5
 16
0.0
 26
0.0
 36
1.0
 17
0.0
 27
0.0
 37
0.0
 40
46.4505073757
 41
0.8071365988
 42
50.0
 43
0.0
 44
0.0
 50
0.0
 51
0.0
 71
     0
 72
   100
 73
     1
 74
     3
 75
     0
 76
     0
 77
     0
 78
     0
281
     0
 65
     1
110
0.0
120
0.0
130
0.0
111
1.0
121
0.0
131
0.0
112
0.0
122
1.0
132
0.0
 79
     0
146
0.0
  0
ENDTAB
  0
TABLE
  2
LTYPE
  5
5
330
0
100
AcDbSymbolTable
 70
     6
  0
LTYPE
  5
14
330
5
100
AcDbSymbolTableRecord
100
AcDbLinetypeTableRecord
  2
ByBlock
 70
     0
  3

 72
    65
 73
     0
 40
0.0
  0
LTYPE
  5
15
330
5
100
AcDbSymbolTableRecord
100
AcDbLinetypeTableRecord
  2
ByLayer
 70
     0
  3

 72
    65
 73
     0
 40
0.0
  0
LTYPE
  5
16
330
5
100
AcDbSymbolTableRecord
100
AcDbLinetypeTableRecord
  2
Continuous
 70
     0
  3
Solid line
 72
    65
 73
     0
 40
0.0
  0
LTYPE
  5
5E
330
5
100
AcDbSymbolTableRecord
100
AcDbLinetypeTableRecord
  2
HIDDEN
 70
     0
  3
Hidden __ __ __ __ __ __ __ __ __ __ __ __ __ __
 72
    65
 73
     2
 40
0.075
 49
0.05
 74
     0
 49
-0.025
 74
     0
  0
LTYPE
  5
5F
330
5
100
AcDbSymbolTableRecord
100
AcDbLinetypeTableRecord
  2
PHANTOM
 70
     0
  3
Phantom ______  __  __  ______  __  __  ______
 72
    65
 73
     6
 40
0.5
 49
0.25
 74
     0
 49
-0.05
 74
     0
 49
0.05
 74
     0
 49
-0.05
 74
     0
 49
0.05
 74
     0
 49
-0.05
 74
     0
  0
LTYPE
  5
60
330
5
100
AcDbSymbolTableRecord
100
AcDbLinetypeTableRecord
  2
CENTER
 70
     0
  3
Center ____ _ ____ _ ____ _ ____ _ ____ _ ____
 72
    65
 73
     4
 40
0.4
 49
0.25
 74
     0
 49
-0.05
 74
     0
 49
0.05
 74
     0
 49
-0.05
 74
     0
  0
LTYPE
  5
61
330
5
100
AcDbSymbolTableRecord
100
AcDbLinetypeTableRecord
  2
CENTERX2
 70
     0
  3
Center (2x) ________  __  ________  __  _____
 72
    65
 73
     4
 40
0.8
 49
0.5
 74
     0
 49
-0.1
 74
     0
 49
0.1
 74
     0
 49
-0.1
 74
     0
  0
LTYPE
  5
62
330
5
100
AcDbSymbolTableRecord
100
AcDbLinetypeTableRecord
  2
DOT2
 70
     0
  3
Dot (.5x) ........................................
 72
    65
 73
     2
 40
0.025
 49
0.0
 74
     0
 49
-0.025
 74
     0
  0
ENDTAB
  0
TABLE
  2
LAYER
  5
2
330
0
100
AcDbSymbolTable
 70
     1
  0
LAYER
  5
10
330
2
100
AcDbSymbolTableRecord
100
AcDbLayerTableRecord
  2
0
 70
     0
 62
     7
  6
Continuous
370
    -3
390
F
  0
ENDTAB
  0
TABLE
  2
STYLE
  5
3
330
0
100
AcDbSymbolTable
 70
     1
  0
STYLE
  5
11
330
3
100
AcDbSymbolTableRecord
100
AcDbTextStyleTableRecord
  2
Standard
 70
     0
 40
0.0
 41
1.0
 50
0.0
 71
     0
 42
0.125
  3
txt
  4

  0
ENDTAB
  0
TABLE
  2
VIEW
  5
6
330
0
100
AcDbSymbolTable
 70
     0
  0
ENDTAB
  0
TABLE
  2
UCS
  5
7
330
0
100
AcDbSymbolTable
 70
     0
  0
ENDTAB
  0
TABLE
  2
APPID
  5
9
330
0
100
AcDbSymbolTable
 70
     1
  0
APPID
  5
12
330
9
100
AcDbSymbolTableRecord
100
AcDbRegAppTableRecord
  2
ACAD
 70
     0
  0
ENDTAB
  0
TABLE
  2
DIMSTYLE
  5
A
330
0
100
AcDbSymbolTable
 70
     1
100
AcDbDimStyleTable
  0
DIMSTYLE
105
27
330
A
100
AcDbSymbolTableRecord
100
AcDbDimStyleTableRecord
  2
Standard
 70
     0
178
     0
340
11
  0
ENDTAB
  0
TABLE
  2
BLOCK_RECORD
  5
1
330
0
100
AcDbSymbolTable
 70
     8
  0
BLOCK_RECORD
  5
1F
330
1
100
AcDbSymbolTableRecord
100
AcDbBlockTableRecord
  2
*Model_Space
340
22
  0
BLOCK_RECORD
  5
1B
330
1
100
AcDbSymbolTableRecord
100
AcDbBlockTableRecord
  2
*Paper_Space
340
1E
  0
BLOCK_RECORD
  5
23
330
1
100
AcDbSymbolTableRecord
100
AcDbBlockTableRecord
  2
*Paper_Space0
340
26
  0
BLOCK_RECORD
  5
E6
330
1
100
AcDbSymbolTableRecord
100
AcDbBlockTableRecord
  2
*Paper_Space1
340
E7
  0
BLOCK_RECORD
  5
109
330
1
100
AcDbSymbolTableRecord
100
AcDbBlockTableRecord
  2
*Paper_Space2
340
10A
  0
BLOCK_RECORD
  5
121
330
1
100
AcDbSymbolTableRecord
100
AcDbBlockTableRecord
  2
*Paper_Space3
340
122
  0
BLOCK_RECORD
  5
139
330
1
100
AcDbSymbolTableRecord
100
AcDbBlockTableRecord
  2
*Paper_Space4
340
13A
  0
BLOCK_RECORD
  5
14B
330
1
100
AcDbSymbolTableRecord
100
AcDbBlockTableRecord
  2
*Paper_Space5
340
14C
  0
BLOCK_RECORD
  5
19A
330
1
100
AcDbSymbolTableRecord
100
AcDbBlockTableRecord
  2
*Paper_Space6
340
19B
  0
BLOCK_RECORD
  5
1E9
330
1
100
AcDbSymbolTableRecord
100
AcDbBlockTableRecord
  2
*Paper_Space7
340
1EA
  0
ENDTAB
  0
ENDSEC
  0
SECTION
  2
BLOCKS
  0
BLOCK
  5
20
330
1F
100
AcDbEntity
  8
0
100
AcDbBlockBegin
  2
*Model_Space
 70
     0
 10
0.0
 20
0.0
 30
0.0
  3
*Model_Space
  1

  0
ENDBLK
  5
21
330
1F
100
AcDbEntity
  8
0
100
AcDbBlockEnd
  0
BLOCK
  5
1C
330
1B
100
AcDbEntity
 67
     1
  8
0
100
AcDbBlockBegin
  2
*Paper_Space
 70
     0
 10
0.0
 20
0.0
 30
0.0
  3
*Paper_Space
  1

  0
ENDBLK
  5
1D
330
1B
100
AcDbEntity
 67
     1
  8
0
100
AcDbBlockEnd
  0
BLOCK
  5
24
330
23
100
AcDbEntity
  8
0
100
AcDbBlockBegin
  2
*Paper_Space0
 70
     0
 10
0.0
 20
0.0
 30
0.0
  3
*Paper_Space0
  1

  0
LINE
  5
DF
330
23
100
AcDbEntity
  8
0
  6
Continuous
 62
     7
370
    25
100
AcDbLine
 10
10.0
 20
22.0
 30
0.0
 11
-10.0
 21
22.0
 31
0.0
  0
LINE
  5
E0
330
23
100
AcDbEntity
  8
0
  6
Continuous
 62
     7
370
    25
100
AcDbLine
 10
10.5
 20
-1.0
 30
0.0
 11
-10.5
 21
-1.0
 31
0.0
  0
LINE
  5
E1
330
23
100
AcDbEntity
  8
0
  6
Continuous
 62
     7
370
    25
100
AcDbLine
 10
-10.5
 20
-1.0
 30
0.0
 11
-10.5
 21
0.0
 31
0.0
  0
LINE
  5
E2
330
23
100
AcDbEntity
  8
0
  6
Continuous
 62
     7
370
    25
100
AcDbLine
 10
10.5
 20
0.0
 30
0.0
 11
-10.5
 21
0.0
 31
0.0
  0
LINE
  5
E3
330
23
100
AcDbEntity
  8
0
  6
Continuous
 62
     7
370
    25
100
AcDbLine
 10
10.5
 20
-1.0
 30
0.0
 11
10.5
 21
0.0
 31
0.0
  0
LINE
  5
E4
330
23
100
AcDbEntity
  8
0
  6
Continuous
 62
     7
370
    25
100
AcDbLine
 10
-10.0
 20
22.0
 30
0.0
 11
-10.0
 21
0.0
 31
0.0
  0
LINE
  5
E5
330
23
100
AcDbEntity
  8
0
  6
Continuous
 62
     7
370
    25
100
AcDbLine
 10
10.0
 20
22.0
 30
0.0
 11
10.0
 21
0.0
 31
0.0
  0
VIEWPORT
  5
239
330
23
100
AcDbEntity
  8
0
100
AcDbViewport
 10
0.0
 20
0.0
 30
0.0
 40
8.4
 41
6.4
 68
     1
 69
     1
 12
1.5853707595
 22
7.9715362956
 13
0.0
 23
0.0
 14
0.5
 24
0.5
 15
0.5
 25
0.5
 16
0.0
 26
0.0
 36
1.0
 17
0.0
 27
0.0
 37
0.0
 42
50.0
 43
0.0
 44
0.0
 45
46.4505073757
 50
0.0
 51
0.0
 72
   100
 90
   557152
  1

281
     0
 71
     1
 74
     0
110
0.0
120
0.0
130
0.0
111
1.0
121
0.0
131
0.0
112
0.0
122
1.0
132
0.0
 79
     0
146
0.0
  0
ENDBLK
  5
25
330
23
100
AcDbEntity
  8
0
100
AcDbBlockEnd
  0
BLOCK
  5
E8
330
E6
100
AcDbEntity
  8
0
100
AcDbBlockBegin
  2
*Paper_Space1
 70
     0
 10
0.0
 20
0.0
 30
0.0
  3
*Paper_Space1
  1

  0
LINE
  5
EA
330
E6
100
AcDbEntity
  8
0
  6
Continuous
 62
     7
100
AcDbLine
 10
0.0
 20
0.0
 30
0.0
 11
-0.2347208122
 21
0.0
 31
0.0
  0
LINE
  5
EB
330
E6
100
AcDbEntity
  8
0
  6
Continuous
 62
     7
100
AcDbLine
 10
0.0
 20
0.0
 30
0.0
 11
0.0
 21
0.4694416244
 31
0.0
  0
POINT
  5
EC
330
E6
100
AcDbEntity
  8
0
  6
Continuous
 62
     7
100
AcDbPoint
 10
0.0
 20
0.0
 30
0.0
  0
LINE
  5
FB
330
E6
100
AcDbEntity
  8
0
  6
Continuous
 62
     7
370
    25
100
AcDbLine
 10
10.0
 20
-10.0
 30
0.0
 11
10.0
 21
34.0
 31
0.0
  0
LINE
  5
FC
330
E6
100
AcDbEntity
  8
0
  6
Continuous
 62
     7
370
    25
100
AcDbLine
 10
10.0
 20
-10.0
 30
0.0
 11
-10.0
 21
-10.0
 31
0.0
  0
LINE
  5
FD
330
E6
100
AcDbEntity
  8
0
  6
Continuous
 62
     7
370
    25
100
AcDbLine
 10
10.0
 20
34.0
 30
0.0
 11
-10.0
 21
34.0
 31
0.0
  0
LINE
  5
FE
330
E6
100
AcDbEntity
  8
0
  6
Continuous
 62
     7
370
    25
100
AcDbLine
 10
-10.0
 20
-10.0
 30
0.0
 11
-10.0
 21
34.0
 31
0.0
  0
LINE
  5
FF
330
E6
100
AcDbEntity
  8
0
  6
Continuous
 62
     7
370
    25
100
AcDbLine
 10
-10.5
 20
13.5
 30
0.0
 11
-10.5
 21
34.5
 31
0.0
  0
LINE
  5
100
330
E6
100
AcDbEntity
  8
0
  6
Continuous
 62
     7
370
    25
100
AcDbLine
 10
-10.5
 20
34.5
 30
0.0
 11
10.5
 21
34.5
 31
0.0
  0
LINE
  5
101
330
E6
100
AcDbEntity
  8
0
  6
Continuous
 62
     7
370
    25
100
AcDbLine
 10
10.5
 20
34.5
 30
0.0
 11
10.5
 21
13.5
 31
0.0
  0
LINE
  5
102
330
E6
100
AcDbEntity
  8
0
  6
Continuous
 62
     7
370
    25
100
AcDbLine
 10
10.5
 20
13.5
 30
0.0
 11
10.0
 21
13.5
 31
0.0
  0
LINE
  5
103
330
E6
100
AcDbEntity
  8
0
  6
Continuous
 62
     7
370
    25
100
AcDbLine
 10
-10.0
 20
13.5
 30
0.0
 11
-10.5
 21
13.5
 31
0.0
  0
LINE
  5
104
330
E6
100
AcDbEntity
  8
0
  6
Continuous
 62
     7
370
    25
100
AcDbLine
 10
-10.5
 20
10.5
 30
0.0
 11
-10.0
 21
10.5
 31
0.0
  0
LINE
  5
105
330
E6
100
AcDbEntity
  8
0
  6
Continuous
 62
     7
370
    25
100
AcDbLine
 10
10.0
 20
10.5
 30
0.0
 11
10.5
 21
10.5
 31
0.0
  0
LINE
  5
106
330
E6
100
AcDbEntity
  8
0
  6
Continuous
 62
     7
370
    25
100
AcDbLine
 10
10.5
 20
10.5
 30
0.0
 11
10.5
 21
-10.5
 31
0.0
  0
LINE
  5
107
330
E6
100
AcDbEntity
  8
0
  6
Continuous
 62
     7
370
    25
100
AcDbLine
 10
10.5
 20
-10.5
 30
0.0
 11
-10.5
 21
-10.5
 31
0.0
  0
LINE
  5
108
330
E6
100
AcDbEntity
  8
0
  6
Continuous
 62
     7
370
    25
100
AcDbLine
 10
-10.5
 20
-10.5
 30
0.0
 11
-10.5
 21
10.5
 31
0.0
  0
VIEWPORT
  5
23B
330
E6
100
AcDbEntity
  8
0
100
AcDbViewport
 10
0.0
 20
0.0
 30
0.0
 40
8.4
 41
6.4
 68
     1
 69
     1
 12
1.5853707595
 22
7.9715362956
 13
0.0
 23
0.0
 14
0.5
 24
0.5
 15
0.5
 25
0.5
 16
0.0
 26
0.0
 36
1.0
 17
0.0
 27
0.0
 37
0.0
 42
50.0
 43
0.0
 44
0.0
 45
46.4505073757
 50
0.0
 51
0.0
 72
   100
 90
   557152
  1

281
     0
 71
     1
 74
     0
110
0.0
120
0.0
130
0.0
111
1.0
121
0.0
131
0.0
112
0.0
122
1.0
132
0.0
 79
     0
146
0.0
  0
ENDBLK
  5
E9
330
E6
100
AcDbEntity
  8
0
100
AcDbBlockEnd
  0
BLOCK
  5
10B
330
109
100
AcDbEntity
  8
0
100
AcDbBlockBegin
  2
*Paper_Space2
 70
     0
 10
0.0
 20
0.0
 30
0.0
  3
*Paper_Space2
  1

  0
LINE
  5
117
330
109
100
AcDbEntity
  8
0
  6
Continuous
 62
     7
370
    25
100
AcDbLine
 10
1.0
 20
34.5
 30
0.0
 11
1.0
 21
13.5
 31
0.0
  0
LINE
  5
118
330
109
100
AcDbEntity
  8
0
  6
Continuous
 62
     7
370
    25
100
AcDbLine
 10
1.0
 20
13.5
 30
0.0
 11
0.0
 21
13.5
 31
0.0
  0
LINE
  5
119
330
109
100
AcDbEntity
  8
0
  6
Continuous
 62
     7
370
    25
100
AcDbLine
 10
1.0
 20
34.5
 30
0.0
 11
0.0
 21
34.5
 31
0.0
  0
LINE
  5
11A
330
109
100
AcDbEntity
  8
0
  6
Continuous
 62
     7
370
    25
100
AcDbLine
 10
0.0
 20
34.5
 30
0.0
 11
0.0
 21
13.5
 31
0.0
  0
LINE
  5
11B
330
109
100
AcDbEntity
  8
0
  6
Continuous
 62
     7
370
    25
100
AcDbLine
 10
1.0
 20
10.5
 30
0.0
 11
0.0
 21
10.5
 31
0.0
  0
LINE
  5
11C
330
109
100
AcDbEntity
  8
0
  6
Continuous
 62
     7
370
    25
100
AcDbLine
 10
1.0
 20
10.5
 30
0.0
 11
1.0
 21
-10.5
 31
0.0
  0
LINE
  5
11D
330
109
100
AcDbEntity
  8
0
  6
Continuous
 62
     7
370
    25
100
AcDbLine
 10
1.0
 20
-10.5
 30
0.0
 11
0.0
 21
-10.5
 31
0.0
  0
LINE
  5
11E
330
109
100
AcDbEntity
  8
0
  6
Continuous
 62
     7
370
    25
100
AcDbLine
 10
0.0
 20
10.5
 30
0.0
 11
0.0
 21
-10.5
 31
0.0
  0
ARC
  5
11F
330
109
100
AcDbEntity
  8
0
  6
Continuous
 62
     7
370
    25
100
AcDbCircle
 10
0.0
 20
12.0
 30
0.0
 40
1.999999999999998
100
AcDbArc
 50
90.0
 51
270.0
  0
ARC
  5
120
330
109
100
AcDbEntity
  8
0
  6
Continuous
 62
     7
370
    25
100
AcDbCircle
 10
0.0
 20
12.0
 30
0.0
 40
21.99999999999994
100
AcDbArc
 50
90.0
 51
270.0
  0
VIEWPORT
  5
23D
330
109
100
AcDbEntity
  8
0
100
AcDbViewport
 10
0.0
 20
0.0
 30
0.0
 40
8.4
 41
6.4
 68
     1
 69
     1
 12
1.5853707595
 22
7.9715362956
 13
0.0
 23
0.0
 14
0.5
 24
0.5
 15
0.5
 25
0.5
 16
0.0
 26
0.0
 36
1.0
 17
0.0
 27
0.0
 37
0.0
 42
50.0
 43
0.0
 44
0.0
 45
46.4505073757
 50
0.0
 51
0.0
 72
   100
 90
   557152
  1

281
     0
 71
     1
 74
     0
110
0.0
120
0.0
130
0.0
111
1.0
121
0.0
131
0.0
112
0.0
122
1.0
132
0.0
 79
     0
146
0.0
  0
ENDBLK
  5
10C
330
109
100
AcDbEntity
  8
0
100
AcDbBlockEnd
  0
BLOCK
  5
123
330
121
100
AcDbEntity
  8
0
100
AcDbBlockBegin
  2
*Paper_Space3
 70
     0
 10
0.0
 20
0.0
 30
0.0
  3
*Paper_Space3
  1

  0
LINE
  5
12F
330
121
100
AcDbEntity
  8
0
  6
Continuous
 62
     7
370
    25
100
AcDbLine
 10
-1.0
 20
13.5
 30
0.0
 11
0.0
 21
13.5
 31
0.0
  0
LINE
  5
130
330
121
100
AcDbEntity
  8
0
  6
Continuous
 62
     7
370
    25
100
AcDbLine
 10
-1.0
 20
13.5
 30
0.0
 11
-1.0
 21
34.5
 31
0.0
  0
LINE
  5
131
330
121
100
AcDbEntity
  8
0
  6
Continuous
 62
     7
370
    25
100
AcDbLine
 10
-1.0
 20
34.5
 30
0.0
 11
0.0
 21
34.5
 31
0.0
  0
LINE
  5
132
330
121
100
AcDbEntity
  8
0
  6
Continuous
 62
     7
370
    25
100
AcDbLine
 10
0.0
 20
13.5
 30
0.0
 11
0.0
 21
34.5
 31
0.0
  0
LINE
  5
133
330
121
100
AcDbEntity
  8
0
  6
Continuous
 62
     7
370
    25
100
AcDbLine
 10
-1.0
 20
-10.5
 30
0.0
 11
0.0
 21
-10.5
 31
0.0
  0
LINE
  5
134
330
121
100
AcDbEntity
  8
0
  6
Continuous
 62
     7
370
    25
100
AcDbLine
 10
-1.0
 20
-10.5
 30
0.0
 11
-1.0
 21
10.5
 31
0.0
  0
LINE
  5
135
330
121
100
AcDbEntity
  8
0
  6
Continuous
 62
     7
370
    25
100
AcDbLine
 10
0.0
 20
-10.5
 30
0.0
 11
0.0
 21
10.5
 31
0.0
  0
LINE
  5
136
330
121
100
AcDbEntity
  8
0
  6
Continuous
 62
     7
370
    25
100
AcDbLine
 10
-1.0
 20
10.5
 30
0.0
 11
0.0
 21
10.5
 31
0.0
  0
ARC
  5
137
330
121
100
AcDbEntity
  8
0
  6
Continuous
 62
     7
370
    25
100
AcDbCircle
 10
0.0
 20
12.0
 30
0.0
 40
21.99999999999994
100
AcDbArc
 50
270.0
 51
90.0
  0
ARC
  5
138
330
121
100
AcDbEntity
  8
0
  6
Continuous
 62
     7
370
    25
100
AcDbCircle
 10
0.0
 20
12.0
 30
0.0
 40
1.999999999999998
100
AcDbArc
 50
270.0
 51
90.0
  0
VIEWPORT
  5
23F
330
121
100
AcDbEntity
  8
0
100
AcDbViewport
 10
0.0
 20
0.0
 30
0.0
 40
8.4
 41
6.4
 68
     1
 69
     1
 12
1.5853707595
 22
7.9715362956
 13
0.0
 23
0.0
 14
0.5
 24
0.5
 15
0.5
 25
0.5
 16
0.0
 26
0.0
 36
1.0
 17
0.0
 27
0.0
 37
0.0
 42
50.0
 43
0.0
 44
0.0
 45
46.4505073757
 50
0.0
 51
0.0
 72
   100
 90
   557152
  1

281
     0
 71
     1
 74
     0
110
0.0
120
0.0
130
0.0
111
1.0
121
0.0
131
0.0
112
0.0
122
1.0
132
0.0
 79
     0
146
0.0
  0
ENDBLK
  5
124
330
121
100
AcDbEntity
  8
0
100
AcDbBlockEnd
  0
BLOCK
  5
13B
330
139
100
AcDbEntity
  8
0
100
AcDbBlockBegin
  2
*Paper_Space4
 70
     0
 10
0.0
 20
0.0
 30
0.0
  3
*Paper_Space4
  1

  0
LINE
  5
144
330
139
100
AcDbEntity
  8
0
  6
Continuous
 62
     7
370
    25
100
AcDbLine
 10
-10.0
 20
-22.0
 30
0.0
 11
10.0
 21
-22.0
 31
0.0
  0
LINE
  5
145
330
139
100
AcDbEntity
  8
0
  6
Continuous
 62
     7
370
    25
100
AcDbLine
 10
-10.5
 20
1.0
 30
0.0
 11
-10.5
 21
0.0
 31
0.0
  0
LINE
  5
146
330
139
100
AcDbEntity
  8
0
  6
Continuous
 62
     7
370
    25
100
AcDbLine
 10
-10.5
 20
1.0
 30
0.0
 11
10.5
 21
1.0
 31
0.0
  0
LINE
  5
147
330
139
100
AcDbEntity
  8
0
  6
Continuous
 62
     7
370
    25
100
AcDbLine
 10
10.5
 20
1.0
 30
0.0
 11
10.5
 21
0.0
 31
0.0
  0
LINE
  5
148
330
139
100
AcDbEntity
  8
0
  6
Continuous
 62
     7
370
    25
100
AcDbLine
 10
-10.5
 20
0.0
 30
0.0
 11
10.5
 21
0.0
 31
0.0
  0
LINE
  5
149
330
139
100
AcDbEntity
  8
0
  6
Continuous
 62
     7
370
    25
100
AcDbLine
 10
-10.0
 20
0.0
 30
0.0
 11
-10.0
 21
-22.0
 31
0.0
  0
LINE
  5
14A
330
139
100
AcDbEntity
  8
0
  6
Continuous
 62
     7
370
    25
100
AcDbLine
 10
10.0
 20
0.0
 30
0.0
 11
10.0
 21
-22.0
 31
0.0
  0
VIEWPORT
  5
241
330
139
100
AcDbEntity
  8
0
100
AcDbViewport
 10
0.0
 20
0.0
 30
0.0
 40
8.4
 41
6.4
 68
     1
 69
     1
 12
1.5853707595
 22
7.9715362956
 13
0.0
 23
0.0
 14
0.5
 24
0.5
 15
0.5
 25
0.5
 16
0.0
 26
0.0
 36
1.0
 17
0.0
 27
0.0
 37
0.0
 42
50.0
 43
0.0
 44
0.0
 45
46.4505073757
 50
0.0
 51
0.0
 72
   100
 90
   557152
  1

281
     0
 71
     1
 74
     0
110
0.0
120
0.0
130
0.0
111
1.0
121
0.0
131
0.0
112
0.0
122
1.0
132
0.0
 79
     0
146
0.0
  0
ENDBLK
  5
13C
330
139
100
AcDbEntity
  8
0
100
AcDbBlockEnd
  0
BLOCK
  5
14D
330
14B
100
AcDbEntity
  8
0
100
AcDbBlockBegin
  2
*Paper_Space5
 70
     0
 10
0.0
 20
0.0
 30
0.0
  3
*Paper_Space5
  1

  0
LINE
  5
14F
330
14B
100
AcDbEntity
  8
0
  6
Continuous
 62
     7
100
AcDbLine
 10
0.0
 20
0.0
 30
0.0
 11
0.165972678
 21
-0.0958139875
 31
0.0
  0
LINE
  5
150
330
14B
100
AcDbEntity
  8
0
  6
Continuous
 62
     7
100
AcDbLine
 10
0.0
 20
0.0
 30
0.0
 11
0.0
 21
0.3833182451
 31
0.0
  0
POINT
  5
151
330
14B
100
AcDbEntity
  8
0
  6
Continuous
 62
     7
100
AcDbPoint
 10
0.0
 20
0.0
 30
0.0
  0
LWPOLYLINE
  5
161
330
14B
100
AcDbEntity
  8
0
  6
Continuous
 62
     7
370
    25
100
AcDbPolyline
 90
      121
 70
   128
 43
0.0
 10
7.4246212025
 20
-12.0387066143
 10
7.4782855604
 20
-12.0062110965
 10
7.8852242222
 20
-11.7528272889
 10
8.2916049018
 20
-11.4874709118
 10
8.6971490863
 20
-11.2103238273
 10
9.101578836
 20
-10.921575978
 10
9.5046169748
 20
-10.6214252574
 10
9.9059872805
 20
-10.3100773738
 10
10.3054146741
 20
-9.9877457093
 10
10.7026254079
 20
-9.6546511742
 10
11.0973472535
 20
-9.3110220546
 10
11.4893096883
 20
-8.957093857
 10
11.8782440808
 20
-8.5931091458
 10
12.2638838748
 20
-8.2193173782
 10
12.6459647721
 20
-7.8359747323
 10
13.0242249135
 20
-7.443343932
 10
13.3984050583
 20
-7.0416940668
 10
13.7682487623
 20
-6.6313004075
 10
14.133502553
 20
-6.2124442175
 10
14.4939161037
 20
-5.7854125597
 10
14.8492424049
 20
-5.3504981005
 10
15.1992379338
 20
-4.9079989084
 10
15.5436628209
 20
-4.4582182503
 10
15.8822810147
 20
-4.0014643833
 10
16.214860443
 20
-3.5380503438
 10
16.5411731726
 20
-3.0682937327
 10
16.860995565
 20
-2.5925164975
 10
17.1741084299
 20
-2.1110447123
 10
17.4802971755
 20
-1.6242083538
 10
17.7793519552
 20
-1.1323410752
 10
18.0710678119
 20
-0.6357799779
 10
18.355244818
 20
-0.1348653801
 10
18.6316882128
 20
0.3700594165
 10
18.9002085359
 20
0.8786483615
 10
19.1606217569
 20
1.3905528936
 10
19.4127494014
 20
1.9054221789
 10
19.6564186739
 20
2.4229033518
 10
19.8914625755
 20
2.9426417564
 10
20.1177200189
 20
3.4642811901
 10
20.3350359387
 20
3.9874641473
 10
20.5432613972
 20
4.5118320644
 10
20.7422536872
 20
5.0370255659
 10
20.9318764292
 20
5.5626847105
 10
21.1119996655
 20
6.0884492375
 10
21.2824999483
 20
6.6139588143
 10
21.4432604255
 20
7.1388532828
 10
21.5941709198
 20
7.6627729066
 10
21.7351280046
 20
8.1853586173
 10
21.8660350751
 20
8.7062522609
 10
21.986802414
 20
9.2250968427
 10
22.0973472535
 20
9.7415367727
 10
22.1975938316
 20
10.2552181087
 10
22.2874734444
 20
10.7657887992
 10
22.3669244929
 20
11.2728989246
 10
22.4358925252
 20
11.7762009369
 10
22.4943302742
 20
12.275349898
 10
22.5421976894
 20
12.7700037162
 10
22.5794619651
 20
13.2598233804
 10
22.6060975621
 20
13.7444731928
 10
22.6220862256
 20
14.2236209985
 10
22.627416998
 20
14.6969384136
 10
22.6220862256
 20
15.1641010499
 10
22.6060975621
 20
15.6247887376
 10
22.5794619651
 20
16.0786857443
 10
22.5421976894
 20
16.5254809917
 10
22.4943302742
 20
16.9648682686
 10
22.4358925252
 20
17.3965464409
 10
22.3669244929
 20
17.820219658
 10
22.2874734444
 20
18.2355975554
 10
22.1975938316
 20
18.6423954538
 10
22.0973472535
 20
19.0403345544
 10
21.986802414
 20
19.4291421294
 10
21.8660350751
 20
19.8085517097
 10
21.7351280046
 20
20.1783032668
 10
21.5941709198
 20
20.5381433915
 10
21.4432604255
 20
20.8878254674
 10
21.2824999483
 20
21.2271098398
 10
21.1119996655
 20
21.5557639801
 10
20.9318764292
 20
21.8735626453
 10
20.7422536872
 20
22.180288032
 10
20.5432613972
 20
22.4757299259
 10
20.3350359387
 20
22.7596858459
 10
20.1177200189
 20
23.0319611829
 10
19.8914625755
 20
23.2923693329
 10
19.6564186739
 20
23.5407318251
 10
19.4127494014
 20
23.7768784444
 10
19.1606217569
 20
24.0006473475
 10
18.9002085359
 20
24.2118851746
 10
18.6316882128
 20
24.4104471537
 10
18.355244818
 20
24.5961972004
 10
18.0710678119
 20
24.7690080109
 10
17.7793519552
 20
24.9287611492
 10
17.4802971755
 20
25.0753471286
 10
17.1741084299
 20
25.2086654863
 10
16.860995565
 20
25.3286248527
 10
16.5411731726
 20
25.4351430135
 10
16.214860443
 20
25.5281469665
 10
15.8822810147
 20
25.6075729714
 10
15.5436628209
 20
25.6733665937
 10
15.1992379338
 20
25.7254827417
 10
14.8492424049
 20
25.7638856976
 10
14.4939161037
 20
25.7885491418
 10
14.133502553
 20
25.7994561714
 10
13.7682487623
 20
25.7965993112
 10
13.3984050583
 20
25.779980519
 10
13.0242249135
 20
25.7496111847
 10
12.6459647721
 20
25.7055121219
 10
12.2638838748
 20
25.6477135538
 10
11.8782440808
 20
25.5762550926
 10
11.4893096883
 20
25.4911857125
 10
11.0973472535
 20
25.3925637158
 10
10.7026254079
 20
25.280456693
 10
10.3054146741
 20
25.1549414767
 10
9.9059872805
 20
25.0161040888
 10
9.5046169748
 20
24.8640396814
 10
9.101578836
 20
24.698852472
 10
8.6971490863
 20
24.5206556715
 10
8.2916049018
 20
24.3295714072
 10
7.8852242222
 20
24.1257306387
 10
7.4782855604
 20
23.9092730682
 10
7.4246212025
 20
23.8798090373
  0
LWPOLYLINE
  5
162
330
14B
100
AcDbEntity
  8
0
  6
Continuous
 62
     7
370
    25
100
AcDbPolyline
 90
       34
 70
   128
 43
0.0
 10
7.3885709115
 20
4.3083473277
 10
7.4274186037
 20
4.3417792245
 10
7.5421986278
 20
4.4486313847
 10
7.6535841435
 20
4.5646182011
 10
7.7607726157
 20
4.6889039862
 10
7.862991749
 20
4.820593258
 10
7.9595050522
 20
4.9587371923
 10
8.0496171447
 20
5.1023404588
 10
8.1326787669
 20
5.2503683928
 10
8.2080914577
 20
5.4017544495
 10
8.2753118672
 20
5.555407889
 10
8.3338556707
 20
5.7102216348
 10
8.3833010586
 20
5.8650802501
 10
8.423291776
 20
6.0188679752
 10
8.4535396888
 20
6.170476766
 10
8.4738268599
 20
6.3188142777
 10
8.48400712
 20
6.462811735
 10
8.48400712
 20
6.6014316331
 10
8.4738268599
 20
6.7336752123
 10
8.4535396888
 20
6.8585896547
 10
8.423291776
 20
6.9752749488
 10
8.3833010586
 20
7.0828903744
 10
8.3338556707
 20
7.18066056
 10
8.2753118672
 20
7.267881069
 10
8.2080914577
 20
7.3439234757
 10
8.1326787669
 20
7.4082398929
 10
8.0496171447
 20
7.4603669192
 10
7.9595050522
 20
7.4999289783
 10
7.862991749
 20
7.5266410246
 10
7.7607726157
 20
7.5403105972
 10
7.6535841435
 20
7.5408392066
 10
7.5421986278
 20
7.528223044
 10
7.4274186037
 20
7.5025530092
 10
7.4246212025
 20
7.5017756944
  0
LWPOLYLINE
  5
163
330
14B
100
AcDbEntity
  8
0
  6
Continuous
 62
     7
370
    25
100
AcDbPolyline
 90
       31
 70
   128
 43
0.0
 10
3.9280382471
 20
32.9336052741
 10
3.6372163315
 20
33.0928422674
 10
3.3381615518
 20
33.2394282468
 10
3.0319728062
 20
33.3727466046
 10
2.7188599412
 20
33.4927059709
 10
2.3990375488
 20
33.5992241317
 10
2.0727248192
 20
33.6922280847
 10
1.7401453909
 20
33.7716540897
 10
1.4015271972
 20
33.837447712
 10
1.0571023101
 20
33.8895638599
 10
0.7071067812
 20
33.9279668158
 10
0.3517804799
 20
33.9526302601
 10
-0.0086330707
 20
33.9635372896
 10
-0.3738868614
 20
33.9606804294
 10
-0.7437305654
 20
33.9440616373
 10
-1.1179107103
 20
33.913692303
 10
-1.4961708516
 20
33.8695932401
 10
-1.8782517489
 20
33.811794672
 10
-2.2638915429
 20
33.7403362109
 10
-2.6528259354
 20
33.6552668308
 10
-3.0447883702
 20
33.556644834
 10
-3.4395102158
 20
33.4445378113
 10
-3.8367209496
 20
33.319022595
 10
-4.2361483432
 20
33.180185207
 10
-4.637518649
 20
33.0281207997
 10
-5.0405567878
 20
32.8629335902
 10
-5.4449865374
 20
32.6847367898
 10
-5.8505307219
 20
32.4936525255
 10
-6.2569114016
 20
32.2898117569
 10
-6.6638500634
 20
32.0733541864
 10
-6.7133427188
 20
32.0461882686
  0
SPLINE
  5
164
330
14B
100
AcDbEntity
  8
0
  6
Continuous
 62
     7
370
    25
100
AcDbSpline
210
0.0
220
0.0
230
1.0
 70
     8
 71
     3
 72
    28
 73
    24
 74
     0
 42
0.00000001
 43
0.00000001
 40
0.0
 40
0.0
 40
0.0
 40
0.0
 40
0.0234526310489149
 40
0.0471592099891271
 40
0.0711192960862477
 40
0.0953322895257865
 40
0.119797303712625
 40
0.1445111277626195
 40
0.1694712929560549
 40
0.2158804647879755
 40
0.2631504448632783
 40
0.3112894034337205
 40
0.3770877697280398
 40
0.4443799562544807
 40
0.5132215594124474
 40
0.5836350714378714
 40
0.6409821211227127
 40
0.6992160716608595
 40
0.7583604852600065
 40
0.8184930241839509
 40
0.8795871847678419
 40
0.9403037447104126
 40
1.0
 40
1.0
 40
1.0
 40
1.0
 10
-6.717514421282333
 20
-3.879199181762572
 30
0.0
 10
-6.6378772979841
 20
-3.832808348508779
 30
0.0
 10
-6.47774073110091
 20
-3.73952435651559
 30
0.0
 10
-6.236303730525633
 20
-3.593302597160287
 30
0.0
 10
-5.992408490533403
 20
-3.441409640830193
 30
0.0
 10
-5.746129306734377
 20
-3.283344128336473
 30
0.0
 10
-5.497554179782287
 20
-3.119126589516288
 30
0.0
 10
-5.246780417332182
 20
-2.948647072800605
 30
0.0
 10
-4.922308743391678
 20
-2.721773679226778
 30
0.0
 10
-4.52273895565844
 20
-2.431192022449726
 30
0.0
 10
-4.047288195837243
 20
-2.06783524466336
 30
0.0
 10
-3.50991019662264
 20
-1.63667187702545
 30
0.0
 10
-2.910616492083415
 20
-1.128200585822177
 30
0.0
 10
-2.250510226175282
 20
-0.5318953002663835
 30
0.0
 10
-1.584709355650162
 20
0.1079705492615751
 30
0.0
 10
-0.9614647040637794
 20
0.744862572376752
 30
0.0
 10
-0.3821986756346102
 20
1.370291646076386
 30
0.0
 10
0.1524273853532701
 20
1.976404880468619
 30
0.0
 10
0.6848719503945272
 20
2.610407708458734
 30
0.0
 10
1.214047207278487
 20
3.272411993138052
 30
0.0
 10
1.734415378932409
 20
3.95766606454819
 30
0.0
 10
2.240719477317162
 20
4.656322187509047
 30
0.0
 10
2.563951011169094
 20
5.132182164262646
 30
0.0
 10
2.724197344794527
 20
5.368096079235989
 30
0.0
  0
SPLINE
  5
165
330
14B
100
AcDbEntity
  8
0
  6
Continuous
 62
     7
370
    25
100
AcDbSpline
210
0.0
220
0.0
230
1.0
 70
     8
 71
     3
 72
     9
 73
     5
 74
     0
 42
0.00000001
 43
0.00000001
 40
0.0
 40
0.0
 40
0.0
 40
0.0
 40
0.5180897151720888
 40
0.9999999999999999
 40
0.9999999999999999
 40
0.9999999999999999
 40
0.9999999999999999
 10
5.209648248050141
 20
9.677682968656136
 30
0.0
 10
5.354990439178087
 20
9.978105669462542
 30
0.0
 10
5.635525232422677
 20
10.5579718432325
 30
0.0
 10
5.888497636691065
 20
11.14474143981317
 30
0.0
 10
6.010407640085645
 20
11.42751174322972
 30
0.0
  0
SPLINE
  5
16A
330
14B
100
AcDbEntity
  8
0
  6
Continuous
 62
     7
370
    25
100
AcDbSpline
210
0.0
220
0.0
230
1.0
 70
     8
 71
     3
 72
    16
 73
    12
 74
     0
 42
0.00000001
 43
0.00000001
 40
0.0
 40
0.0
 40
0.0
 40
0.0
 40
0.1266147980096787
 40
0.2621377630148981
 40
0.3839416098421857
 40
0.5002852434748368
 40
0.6103808284641146
 40
0.7155889737597553
 40
0.8148435277627438
 40
0.9094429564062182
 40
1.0
 40
1.0
 40
1.0
 40
1.0
 10
-5.468681079649667
 20
15.84042899997774
 30
0.0
 10
-5.511010810335285
 20
15.86280103969737
 30
0.0
 10
-5.598648441049687
 20
15.90911913630512
 30
0.0
 10
-5.743130762448471
 20
15.94595859501781
 30
0.0
 10
-5.89205878371431
 20
15.96158532917864
 30
0.0
 10
-6.038189005550824
 20
15.95606655744261
 30
0.0
 10
-6.182436606044201
 20
15.93355209251733
 30
0.0
 10
-6.323027243124272
 20
15.89631009919351
 30
0.0
 10
-6.459105021290414
 20
15.84694202458437
 30
0.0
 10
-6.589986027995974
 20
15.78838298966038
 30
0.0
 10
-6.675628256845416
 20
15.74089988016754
 30
0.0
 10
-6.717514489379864
 20
15.71767665732065
 30
0.0
  0
LINE
  5
179
330
14B
100
AcDbEntity
  8
0
  6
Continuous
 62
     7
370
    25
100
AcDbLine
 10
18.0701738709
 20
24.7695241559
 30
0.0
 11
3.9280382471
 21
32.9336052741
 31
0.0
  0
LINE
  5
17A
330
14B
100
AcDbEntity
  8
0
  6
Continuous
 62
     7
370
    25
100
AcDbLine
 10
6.0104076401
 20
9.2154144113
 30
0.0
 11
-5.467968184
 21
15.8417397292
 31
0.0
  0
LINE
  5
17B
330
14B
100
AcDbEntity
  8
0
  6
Continuous
 62
     7
370
    25
100
AcDbLine
 10
6.7175144213
 20
6.3289543175
 30
0.0
 11
7.4246212025
 21
6.7371583734
 31
0.0
  0
LINE
  5
17C
330
14B
100
AcDbEntity
  8
0
  6
Continuous
 62
     7
370
    25
100
AcDbLine
 10
6.7175144213
 20
6.3289543175
 30
0.0
 11
6.7175144213
 21
23.4763113671
 31
0.0
  0
LINE
  5
17D
330
14B
100
AcDbEntity
  8
0
  6
Continuous
 62
     7
370
    25
100
AcDbLine
 10
6.7175144213
 20
23.4763113671
 30
0.0
 11
7.4246212025
 21
23.884515423
 31
0.0
  0
LINE
  5
17E
330
14B
100
AcDbEntity
  8
0
  6
Continuous
 62
     7
370
    25
100
AcDbLine
 10
7.4246212025
 20
6.7371583734
 30
0.0
 11
7.4246212025
 21
23.884515423
 31
0.0
  0
LINE
  5
17F
330
14B
100
AcDbEntity
  8
0
  6
Continuous
 62
     7
370
    25
100
AcDbLine
 10
-7.4246212025
 20
30.8237486421
 30
0.0
 11
-7.4246212025
 21
15.3096792789
 31
0.0
  0
LINE
  5
180
330
14B
100
AcDbEntity
  8
0
  6
Continuous
 62
     7
370
    25
100
AcDbLine
 10
-7.4246212025
 20
15.3096792789
 30
0.0
 11
6.0104076401
 21
7.5538022166
 31
0.0
  0
LINE
  5
181
330
14B
100
AcDbEntity
  8
0
  6
Continuous
 62
     7
370
    25
100
AcDbLine
 10
6.0104076401
 20
7.5538022166
 30
0.0
 11
6.0104076401
 21
23.0678715798
 31
0.0
  0
LINE
  5
182
330
14B
100
AcDbEntity
  8
0
  6
Continuous
 62
     7
370
    25
100
AcDbLine
 10
6.0104076401
 20
23.0678715798
 30
0.0
 11
-7.4246212025
 21
30.8237486421
 31
0.0
  0
LINE
  5
183
330
14B
100
AcDbEntity
  8
0
  6
Continuous
 62
     7
370
    25
100
AcDbLine
 10
-8.1317279836
 20
32.0485965412
 30
0.0
 11
-8.1317279836
 21
14.9012394916
 31
0.0
  0
LINE
  5
184
330
14B
100
AcDbEntity
  8
0
  6
Continuous
 62
     7
370
    25
100
AcDbLine
 10
6.7175144213
 20
23.4763113671
 30
0.0
 11
-8.1317279836
 21
32.0485965412
 31
0.0
  0
LINE
  5
185
330
14B
100
AcDbEntity
  8
0
  6
Continuous
 62
     7
370
    25
100
AcDbLine
 10
-8.1317279836
 20
14.9012394916
 30
0.0
 11
6.7175144213
 21
6.3289543175
 31
0.0
  0
LINE
  5
186
330
14B
100
AcDbEntity
  8
0
  6
Continuous
 62
     7
370
    25
100
AcDbLine
 10
-8.1317279836
 20
32.0485965412
 30
0.0
 11
-7.4246212025
 21
32.4568005971
 31
0.0
  0
LINE
  5
187
330
14B
100
AcDbEntity
  8
0
  6
Continuous
 62
     7
370
    25
100
AcDbLine
 10
7.4246212025
 20
23.884515423
 30
0.0
 11
-7.4246212025
 21
32.4568005971
 31
0.0
  0
LINE
  5
188
330
14B
100
AcDbEntity
  8
0
  6
Continuous
 62
     7
370
    25
100
AcDbLine
 10
-7.4246212025
 20
15.3096792789
 30
0.0
 11
-6.7175144303
 21
15.7178833296
 31
0.0
  0
LINE
  5
189
330
14B
100
AcDbEntity
  8
0
  6
Continuous
 62
     7
370
    25
100
AcDbLine
 10
-6.7175144213
 20
15.7178833348
 30
0.0
 11
6.0104076401
 21
8.3702103284
 31
0.0
  0
LINE
  5
18A
330
14B
100
AcDbEntity
  8
0
  6
Continuous
 62
     7
370
    25
100
AcDbLine
 10
-7.4246212025
 20
-4.2874153683
 30
0.0
 11
-6.7175144213
 21
-3.8792113123
 31
0.0
  0
LINE
  5
18B
330
14B
100
AcDbEntity
  8
0
  6
Continuous
 62
     7
370
    25
100
AcDbLine
 10
-7.4246212025
 20
11.2268843188
 30
0.0
 11
-7.4246212025
 21
-4.2874153683
 31
0.0
  0
LINE
  5
18C
330
14B
100
AcDbEntity
  8
0
  6
Continuous
 62
     7
370
    25
100
AcDbLine
 10
6.7175144213
 20
-13.2680251678
 30
0.0
 11
7.4246212025
 21
-12.8598211119
 31
0.0
  0
LINE
  5
18D
330
14B
100
AcDbEntity
  8
0
  6
Continuous
 62
     7
370
    25
100
AcDbLine
 10
6.7175144213
 20
-13.2680251678
 30
0.0
 11
6.7175144213
 21
3.8793318818
 31
0.0
  0
LINE
  5
18E
330
14B
100
AcDbEntity
  8
0
  6
Continuous
 62
     7
370
    25
100
AcDbLine
 10
6.7175144213
 20
3.8793318818
 30
0.0
 11
7.4246212025
 21
4.2875359377
 31
0.0
  0
LINE
  5
18F
330
14B
100
AcDbEntity
  8
0
  6
Continuous
 62
     7
370
    25
100
AcDbLine
 10
7.4246212025
 20
-12.8598211119
 30
0.0
 11
7.4246212025
 21
4.2875359377
 31
0.0
  0
LINE
  5
190
330
14B
100
AcDbEntity
  8
0
  6
Continuous
 62
     7
370
    25
100
AcDbLine
 10
-7.4246212025
 20
-4.2874153683
 30
0.0
 11
6.0104076401
 21
-12.0432924306
 31
0.0
  0
LINE
  5
191
330
14B
100
AcDbEntity
  8
0
  6
Continuous
 62
     7
370
    25
100
AcDbLine
 10
6.0104076401
 20
3.4710072564
 30
0.0
 11
-7.4246212025
 21
11.2268843188
 31
0.0
  0
LINE
  5
192
330
14B
100
AcDbEntity
  8
0
  6
Continuous
 62
     7
370
    25
100
AcDbLine
 10
-8.1317279836
 20
12.451617056
 30
0.0
 11
-8.1317279836
 21
-4.6957399936
 31
0.0
  0
LINE
  5
193
330
14B
100
AcDbEntity
  8
0
  6
Continuous
 62
     7
370
    25
100
AcDbLine
 10
6.7175144213
 20
3.8793318818
 30
0.0
 11
-8.1317279836
 21
12.451617056
 31
0.0
  0
LINE
  5
194
330
14B
100
AcDbEntity
  8
0
  6
Continuous
 62
     7
370
    25
100
AcDbLine
 10
-8.1317279836
 20
-4.6957399936
 30
0.0
 11
6.7175144213
 21
-13.2680251678
 31
0.0
  0
LINE
  5
195
330
14B
100
AcDbEntity
  8
0
  6
Continuous
 62
     7
370
    25
100
AcDbLine
 10
6.0104076401
 20
-12.0432924306
 30
0.0
 11
6.0104076401
 21
3.4710072564
 31
0.0
  0
LINE
  5
196
330
14B
100
AcDbEntity
  8
0
  6
Continuous
 62
     7
370
    25
100
AcDbLine
 10
-8.1317279836
 20
12.451617056
 30
0.0
 11
-7.4246212025
 21
12.8598211119
 31
0.0
  0
LINE
  5
197
330
14B
100
AcDbEntity
  8
0
  6
Continuous
 62
     7
370
    25
100
AcDbLine
 10
7.4246212025
 20
4.2875359377
 30
0.0
 11
-7.4246212025
 21
12.8598211119
 31
0.0
  0
LINE
  5
198
330
14B
100
AcDbEntity
  8
0
  6
Continuous
 62
     7
370
    25
100
AcDbLine
 10
-6.7175144213
 20
-3.8792113123
 30
0.0
 11
6.0104076401
 21
-11.2268843188
 31
0.0
  0
ARC
  5
199
330
14B
100
AcDbEntity
  8
0
  6
Continuous
 62
     7
370
    25
100
AcDbCircle
 10
-8.8800926715
 20
14.9212338176
 30
0.0
 40
3.243265161845032
100
AcDbArc
 50
310.9708536022
 51
336.3193671695
  0
VIEWPORT
  5
243
330
14B
100
AcDbEntity
  8
0
100
AcDbViewport
 10
0.0
 20
0.0
 30
0.0
 40
8.4
 41
6.4
 68
     1
 69
     1
 12
1.5853707595
 22
7.9715362956
 13
0.0
 23
0.0
 14
0.5
 24
0.5
 15
0.5
 25
0.5
 16
0.0
 26
0.0
 36
1.0
 17
0.0
 27
0.0
 37
0.0
 42
50.0
 43
0.0
 44
0.0
 45
46.4505073757
 50
0.0
 51
0.0
 72
   100
 90
   557152
  1

281
     0
 71
     1
 74
     0
110
0.0
120
0.0
130
0.0
111
1.0
121
0.0
131
0.0
112
0.0
122
1.0
132
0.0
 79
     0
146
0.0
  0
ENDBLK
  5
14E
330
14B
100
AcDbEntity
  8
0
100
AcDbBlockEnd
  0
BLOCK
  5
19C
330
19A
100
AcDbEntity
  8
0
100
AcDbBlockBegin
  2
*Paper_Space6
 70
     0
 10
0.0
 20
0.0
 30
0.0
  3
*Paper_Space6
  1

  0
LINE
  5
19E
330
19A
100
AcDbEntity
  8
0
  6
Continuous
 62
     7
100
AcDbLine
 10
0.0
 20
0.0
 30
0.0
 11
0.2075913398
 21
-0.056418878
 31
0.0
  0
LINE
  5
19F
330
19A
100
AcDbEntity
  8
0
  6
Continuous
 62
     7
100
AcDbLine
 10
0.0
 20
0.0
 30
0.0
 11
0.0
 21
0.40239001
 31
0.0
  0
POINT
  5
1A0
330
19A
100
AcDbEntity
  8
0
  6
Continuous
 62
     7
100
AcDbPoint
 10
0.0
 20
0.0
 30
0.0
  0
LWPOLYLINE
  5
1B0
330
19A
100
AcDbEntity
  8
0
  6
Continuous
 62
     7
370
    25
100
AcDbPolyline
 90
      119
 70
   128
 43
0.0
 10
9.2863902776
 20
-10.5262237776
 10
9.3815301048
 20
-10.4250191701
 10
9.6497441771
 20
-10.130945873
 10
9.9174061568
 20
-9.8245271636
 10
10.1843326017
 20
-9.5059730461
 10
10.4503405739
 20
-9.1755018413
 10
10.7152477646
 20
-8.833340038
 10
10.9788726198
 20
-8.4797221365
 10
11.2410344641
 20
-8.114890489
 10
11.5015536249
 20
-7.7390951329
 10
11.7602515555
 20
-7.3525936195
 10
12.016950957
 20
-6.9556508377
 10
12.2714759007
 20
-6.5485388322
 10
12.5236519478
 20
-6.1315366172
 10
12.7733062695
 20
-5.7049299853
 10
13.0202677651
 20
-5.2690113113
 10
13.2643671796
 20
-4.8240793521
 10
13.5054372194
 20
-4.3704390419
 10
13.7433126672
 20
-3.908401283
 10
13.977830495
 20
-3.438282733
 10
14.208829976
 20
-2.9604055878
 10
14.4361527948
 20
-2.4750973604
 10
14.6596431555
 20
-1.9826906568
 10
14.8791478891
 20
-1.4835229481
 10
15.0945165581
 20
-0.9779363388
 10
15.3056015594
 20
-0.4662773328
 10
15.5122582259
 20
0.0511034045
 10
15.7143449255
 20
0.5738512861
 10
15.9117231581
 20
1.1016080467
 10
16.1042576505
 20
1.6340119882
 10
16.2918164492
 20
2.1706982276
 10
16.4742710106
 20
2.7112989469
 10
16.6514962897
 20
3.2554436453
 10
16.823370825
 20
3.8027593934
 10
16.9897768223
 20
4.3528710881
 10
17.1506002353
 20
4.9054017105
 10
17.3057308436
 20
5.4599725836
 10
17.4550623284
 20
6.0162036323
 10
17.5984923454
 20
6.5737136435
 10
17.7359225949
 20
7.1321205279
 10
17.867258889
 20
7.6910415811
 10
17.9924112164
 20
8.2500937466
 10
18.1112938039
 20
8.808893878
 10
18.2238251753
 20
9.3670590017
 10
18.3299282073
 20
9.924206579
 10
18.4295301821
 20
10.4799547689
 10
18.5225628375
 20
11.0339226893
 10
18.6089624136
 20
11.5857306783
 10
18.6886696965
 20
12.1350005542
 10
18.7616300587
 20
12.681355875
 10
18.8277934968
 20
13.2244221959
 10
18.8871146658
 20
13.7638273265
 10
18.9395529098
 20
14.2992015854
 10
18.9850722904
 20
14.8301780539
 10
19.0236416108
 20
15.3563928271
 10
19.0552344375
 20
15.8774852638
 10
19.0798291183
 20
16.3930982332
 10
19.0974087974
 20
16.90287836
 10
19.1079614265
 20
17.4064762663
 10
19.1114797732
 20
17.9035468113
 10
19.1079614265
 20
18.3937493276
 10
19.0974087974
 20
18.876747855
 10
19.0798291183
 20
19.3522113704
 10
19.0552344375
 20
19.8198140148
 10
19.0236416108
 20
20.2792353167
 10
18.9850722904
 20
20.7301604118
 10
18.9395529098
 20
21.1722802585
 10
18.8871146658
 20
21.6052918498
 10
18.8277934968
 20
22.0288984214
 10
18.7616300587
 20
22.4428096545
 10
18.6886696965
 20
22.8467418749
 10
18.6089624136
 20
23.2404182476
 10
18.5225628375
 20
23.6235689666
 10
18.4295301821
 20
23.9959314395
 10
18.3299282073
 20
24.3572504677
 10
18.2238251753
 20
24.7072784211
 10
18.1112938039
 20
25.0457754081
 10
17.9924112164
 20
25.3725094397
 10
17.867258889
 20
25.6872565888
 10
17.7359225949
 20
25.9898011433
 10
17.5984923454
 20
26.2799357544
 10
17.4550623284
 20
26.5574615783
 10
17.3057308436
 20
26.8221884126
 10
17.1506002353
 20
27.0739348269
 10
16.9897768223
 20
27.3125282866
 10
16.823370825
 20
27.5378052718
 10
16.6514962897
 20
27.7496113888
 10
16.4742710106
 20
27.9478014764
 10
16.2918164492
 20
28.1322397048
 10
16.1042576505
 20
28.3027996695
 10
15.9117231581
 20
28.459364477
 10
15.7143449255
 20
28.6018268258
 10
15.5122582259
 20
28.7300890792
 10
15.3056015594
 20
28.8440633327
 10
15.0945165581
 20
28.943671474
 10
14.8791478891
 20
29.0288452367
 10
14.6596431555
 20
29.0995262469
 10
14.4361527948
 20
29.1556660634
 10
14.208829976
 20
29.1972262108
 10
13.977830495
 20
29.2241782059
 10
13.7433126672
 20
29.236503577
 10
13.5054372194
 20
29.234193877
 10
13.2643671796
 20
29.2172506888
 10
13.0202677651
 20
29.1856856245
 10
12.7733062695
 20
29.1395203172
 10
12.5236519478
 20
29.0787864062
 10
12.2714759007
 20
29.0035255156
 10
12.016950957
 20
28.9137892254
 10
11.7602515555
 20
28.8096390363
 10
11.5015536249
 20
28.6911463278
 10
11.2410344641
 20
28.5583923088
 10
10.9788726198
 20
28.4114679623
 10
10.7152477646
 20
28.2504739829
 10
10.4503405739
 20
28.0755207077
 10
10.1843326017
 20
27.8867280412
 10
9.9174061568
 20
27.6842253722
 10
9.6497441771
 20
27.4681514861
 10
9.3815301048
 20
27.238654469
 10
9.196552929
 20
27.0728458464
  0
LWPOLYLINE
  5
1B1
330
19A
100
AcDbEntity
  8
0
  6
Continuous
 62
     7
370
    25
100
AcDbPolyline
 90
       30
 70
   128
 43
0.0
 10
9.1243145476
 20
6.5204634737
 10
9.1551308289
 20
6.569437586
 10
9.2286460433
 20
6.6954475877
 10
9.2993911797
 20
6.8300092388
 10
9.366856518
 20
6.9721530196
 10
9.4305559687
 20
7.1208547809
 10
9.4900305759
 20
7.275043123
 10
9.5448518237
 20
7.4336071154
 10
9.5946247237
 20
7.595404301
 10
9.638990661
 20
7.7592689272
 10
9.6776299781
 20
7.9240203458
 10
9.7102642777
 20
8.0884715189
 10
9.7366584291
 20
8.2514375721
 10
9.7566222617
 20
8.4117443312
 10
9.7700119356
 20
8.5682367824
 10
9.776730978
 20
8.719787394
 10
9.776730978
 20
8.8653042403
 10
9.7700119356
 20
9.0037388692
 10
9.7566222617
 20
9.1340938559
 10
9.7366584291
 20
9.2554299898
 10
9.7102642777
 20
9.3668730413
 10
9.6776299781
 20
9.4676200606
 10
9.638990661
 20
9.5569451631
 10
9.5946247237
 20
9.6342047595
 10
9.5448518237
 20
9.6988421926
 10
9.4900305759
 20
9.7503917481
 10
9.4305559687
 20
9.7884820104
 10
9.366856518
 20
9.8128385382
 10
9.2993911797
 20
9.8232858423
 10
9.2863902776
 20
9.8236881042
  0
LWPOLYLINE
  5
1B2
330
19A
100
AcDbEntity
  8
0
  6
Continuous
 62
     7
370
    25
100
AcDbPolyline
 90
       23
 70
   128
 43
0.0
 10
-3.074347
 20
33.9195750127
 10
-3.2522096388
 20
33.9629839571
 10
-3.4795324575
 20
34.0045441045
 10
-3.7105319385
 20
34.0314960995
 10
-3.9450497664
 20
34.0438214707
 10
-4.1829252142
 20
34.0415117707
 10
-4.423995254
 20
34.0245685825
 10
-4.6680946685
 20
33.9930035182
 10
-4.9150561641
 20
33.9468382108
 10
-5.1647104857
 20
33.8861042999
 10
-5.4168865328
 20
33.8108434093
 10
-5.6714114765
 20
33.7211071191
 10
-5.9281108781
 20
33.61695693
 10
-6.1868088086
 20
33.4984642215
 10
-6.4473279694
 20
33.3657102025
 10
-6.7094898138
 20
33.218785856
 10
-6.973114669
 20
33.0577918765
 10
-7.2380218597
 20
32.8828386014
 10
-7.5040298318
 20
32.6940459348
 10
-7.7709562768
 20
32.4915432659
 10
-8.0386182565
 20
32.2754693797
 10
-8.3068323288
 20
32.0459723627
 10
-8.4918095046
 20
31.8801637401
  0
SPLINE
  5
1B3
330
19A
100
AcDbEntity
  8
0
  6
Continuous
 62
     7
370
    25
100
AcDbSpline
210
0.0
220
0.0
230
1.0
 70
     8
 71
     3
 72
    33
 73
    29
 74
     0
 42
0.00000001
 43
0.00000001
 40
0.0
 40
0.0
 40
0.0
 40
0.0
 40
0.0184585504921322
 40
0.0371169723745618
 40
0.0559749187643336
 40
0.0750319175734318
 40
0.0942872710012248
 40
0.1137384518998216
 40
0.1333835172468204
 40
0.1699101670615404
 40
0.207114321775023
 40
0.2450024118386867
 40
0.2967894571390772
 40
0.3497522236676434
 40
0.4039344689432516
 40
0.4593538956309783
 40
0.5044892755367406
 40
0.5503226967048293
 40
0.5968727039287699
 40
0.6442004218139272
 40
0.6922849904732018
 40
0.7400723660163122
 40
0.788415356793353
 40
0.8373422121878703
 40
0.886925064887876
 40
0.9430642730689619
 40
0.999690713729921
 40
0.9999999999999999
 40
0.9999999999999999
 40
0.9999999999999999
 40
0.9999999999999999
 10
-8.401972155942197
 20
-5.859613357179518
 30
0.0
 10
-8.34941110120507
 20
-5.80787409334098
 30
0.0
 10
-8.243719854349724
 20
-5.703835326732863
 30
0.0
 10
-8.084369756339767
 20
-5.5411211237626
 30
0.0
 10
-7.923397203233457
 20
-5.372359709396322
 30
0.0
 10
-7.76085123064991
 20
-5.197027615986751
 30
0.0
 10
-7.596789919631422
 20
-5.015149754396485
 30
0.0
 10
-7.431277493908892
 20
-4.826614417365906
 30
0.0
 10
-7.217123934502265
 20
-4.576065817129234
 30
0.0
 10
-6.953405098231316
 20
-4.255772189317652
 30
0.0
 10
-6.639604292849124
 20
-3.856185673653009
 30
0.0
 10
-6.284931080322573
 20
-3.383054713157651
 30
0.0
 10
-5.889393066284269
 20
-2.826405690684584
 30
0.0
 10
-5.453718363669066
 20
-2.175230891116099
 30
0.0
 10
-5.014285087116613
 20
-1.478110924740865
 30
0.0
 10
-4.602939558277321
 20
-0.7857369366278336
 30
0.0
 10
-4.220619110250489
 20
-0.1070766833593515
 30
0.0
 10
-3.867765261264075
 20
0.549607711949089
 30
0.0
 10
-3.516336409184988
 20
1.2354662232387
 30
0.0
 10
-3.167121965610492
 20
1.950670420475166
 30
0.0
 10
-2.823504975846328
 20
2.689656688740802
 30
0.0
 10
-2.486799152694877
 20
3.450414433921721
 30
0.0
 10
-2.158044119013147
 20
4.230939192894057
 30
0.0
 10
-1.836068263879577
 20
5.035533601713072
 30
0.0
 10
-1.508597744408069
 20
5.896445431213221
 30
0.0
 10
-1.181196101817153
 20
6.815407815584592
 30
0.0
 10
-0.9588228303711944
 20
7.461149940421212
 30
0.0
 10
-0.8549801313401675
 20
7.791174488869554
 30
0.0
 10
-0.8544160370045115
 20
7.792967248304201
 30
0.0
  0
SPLINE
  5
1B4
330
19A
100
AcDbEntity
  8
0
  6
Continuous
 62
     7
370
    25
100
AcDbSpline
210
0.0
220
0.0
230
1.0
 70
     8
 71
     3
 72
    25
 73
    21
 74
     0
 42
0.00000001
 43
0.00000001
 40
0.0
 40
0.0
 40
0.0
 40
0.0
 40
0.0065393955161797
 40
0.0649913587676955
 40
0.1237241191096138
 40
0.1828435955414526
 40
0.2422031456296932
 40
0.301388204167155
 40
0.3604774746721248
 40
0.4195773785311639
 40
0.4787781888423426
 40
0.5379400553087872
 40
0.5956093302062454
 40
0.6529315906286177
 40
0.7100060962802581
 40
0.7668965927850017
 40
0.8280176951788397
 40
0.8884113637109456
 40
0.9481732790310891
 40
1.0
 40
1.0
 40
1.0
 40
1.0
 10
0.4960908824680029
 20
12.74185586666021
 30
0.0
 10
0.5046198938705042
 20
12.77881786778077
 30
0.0
 10
0.5893849212529454
 20
13.14616232181392
 30
0.0
 10
0.731815962337081
 20
13.84530957343298
 30
0.0
 10
0.9217256069363112
 20
14.83864675763796
 30
0.0
 10
1.089087528048106
 20
15.83190424717431
 30
0.0
 10
1.235381724801082
 20
16.82011893781776
 30
0.0
 10
1.359098368647553
 20
17.7982749319336
 30
0.0
 10
1.460195561483032
 20
18.7629471222615
 30
0.0
 10
1.538677418724274
 20
19.71350898978626
 30
0.0
 10
1.594189263287649
 20
20.64793946598047
 30
0.0
 10
1.626261757536003
 20
21.55625925476539
 30
0.0
 10
1.635473211266219
 20
22.43467702707458
 30
0.0
 10
1.622751871024393
 20
23.28110333245441
 30
0.0
 10
1.588611206231483
 20
24.10075605785523
 30
0.0
 10
1.531720332130269
 20
24.91318681667009
 30
0.0
 10
1.450817198536206
 20
25.71265217640325
 30
0.0
 10
1.344084812710992
 20
26.49208626529645
 30
0.0
 10
1.222752777263395
 20
27.20322576814289
 30
0.0
 10
1.126258881257995
 20
27.63718613673567
 30
0.0
 10
1.081442828389306
 20
27.83873661429832
 30
0.0
  0
SPLINE
  5
1B7
330
19A
100
AcDbEntity
  8
0
  6
Continuous
 62
     7
370
    25
100
AcDbSpline
210
0.0
220
0.0
230
1.0
 70
     8
 71
     3
 72
    15
 73
    11
 74
     0
 42
0.00000001
 43
0.00000001
 40
0.0
 40
0.0
 40
0.0
 40
0.0
 40
0.0253618103042874
 40
0.1862518448109842
 40
0.3399295135986847
 40
0.4853541691358492
 40
0.6243230323360635
 40
0.7554278293884181
 40
0.8803836968360513
 40
1.0
 40
1.0
 40
1.0
 40
1.0
 10
-7.749147559143858
 20
14.98095169861403
 30
0.0
 10
-7.753853488224602
 20
14.98277656540738
 30
0.0
 10
-7.788412849812838
 20
14.99617800650003
 30
0.0
 10
-7.857585910277576
 20
14.99837681818489
 30
0.0
 10
-7.953508669469201
 20
14.98884299023785
 30
0.0
 10
-8.048843001676639
 20
14.95924584684552
 30
0.0
 10
-8.141601484743486
 20
14.91489693475833
 30
0.0
 10
-8.231421734288226
 20
14.85784962944029
 30
0.0
 10
-8.31780216293207
 20
14.79138724138224
 30
0.0
 10
-8.374326875726231
 20
14.7382712355975
 30
0.0
 10
-8.401972200887041
 20
14.71229305404513
 30
0.0
  0
LINE
  5
1C8
330
19A
100
AcDbEntity
  8
0
  6
Continuous
 62
     7
370
    25
100
AcDbLine
 10
14.6140154336
 20
29.112257119
 30
0.0
 11
-3.074347
 21
33.9195750127
 31
0.0
  0
LINE
  5
1C9
330
19A
100
AcDbEntity
  8
0
  6
Continuous
 62
     7
370
    25
100
AcDbLine
 10
7.935276767
 20
10.7200445457
 30
0.0
 11
-7.7486724827
 21
14.9826058854
 31
0.0
  0
LINE
  5
1CA
330
19A
100
AcDbEntity
  8
0
  6
Continuous
 62
     7
370
    25
100
AcDbLine
 10
8.8196948887
 20
8.5924076585
 30
0.0
 11
9.2863902776
 21
9.0479166653
 31
0.0
  0
LINE
  5
1CB
330
19A
100
AcDbEntity
  8
0
  6
Continuous
 62
     7
370
    25
100
AcDbLine
 10
8.8196948887
 20
8.5924076585
 30
0.0
 11
8.8196948887
 21
26.5929209732
 31
0.0
  0
LINE
  5
1CC
330
19A
100
AcDbEntity
  8
0
  6
Continuous
 62
     7
370
    25
100
AcDbLine
 10
8.8196948887
 20
26.5929209732
 30
0.0
 11
9.2863902776
 21
27.04842998
 31
0.0
  0
LINE
  5
1CD
330
19A
100
AcDbEntity
  8
0
  6
Continuous
 62
     7
370
    25
100
AcDbLine
 10
9.2863902776
 20
9.0479166653
 30
0.0
 11
9.2863902776
 21
27.04842998
 31
0.0
  0
LINE
  5
1CE
330
19A
100
AcDbEntity
  8
0
  6
Continuous
 62
     7
370
    25
100
AcDbLine
 10
-8.8686675449
 20
30.5429634087
 30
0.0
 11
-8.8686675449
 21
14.2570010104
 31
0.0
  0
LINE
  5
1CF
330
19A
100
AcDbEntity
  8
0
  6
Continuous
 62
     7
370
    25
100
AcDbLine
 10
-8.8686675449
 20
14.2570010104
 30
0.0
 11
7.935276767
 21
9.6900490114
 31
0.0
  0
LINE
  5
1D0
330
19A
100
AcDbEntity
  8
0
  6
Continuous
 62
     7
370
    25
100
AcDbLine
 10
7.935276767
 20
9.6900490114
 30
0.0
 11
7.935276767
 21
25.9760114097
 31
0.0
  0
LINE
  5
1D1
330
19A
100
AcDbEntity
  8
0
  6
Continuous
 62
     7
370
    25
100
AcDbLine
 10
7.935276767
 20
25.9760114097
 30
0.0
 11
-8.8686675449
 21
30.5429634087
 31
0.0
  0
LINE
  5
1D2
330
19A
100
AcDbEntity
  8
0
  6
Continuous
 62
     7
370
    25
100
AcDbLine
 10
-9.7530856665
 20
31.6406047616
 30
0.0
 11
-9.7530856665
 21
13.6400914469
 31
0.0
  0
LINE
  5
1D3
330
19A
100
AcDbEntity
  8
0
  6
Continuous
 62
     7
370
    25
100
AcDbLine
 10
8.8196948887
 20
26.5929209732
 30
0.0
 11
-9.7530856665
 21
31.6406047616
 31
0.0
  0
LINE
  5
1D4
330
19A
100
AcDbEntity
  8
0
  6
Continuous
 62
     7
370
    25
100
AcDbLine
 10
-9.7530856665
 20
13.6400914469
 30
0.0
 11
8.8196948887
 21
8.5924076585
 31
0.0
  0
LINE
  5
1D5
330
19A
100
AcDbEntity
  8
0
  6
Continuous
 62
     7
370
    25
100
AcDbLine
 10
-9.7530856665
 20
31.6406047616
 30
0.0
 11
-9.2863902776
 21
32.0961137684
 31
0.0
  0
LINE
  5
1D6
330
19A
100
AcDbEntity
  8
0
  6
Continuous
 62
     7
370
    25
100
AcDbLine
 10
9.2863902776
 20
27.04842998
 30
0.0
 11
-9.2863902776
 21
32.0961137684
 31
0.0
  0
LINE
  5
1D7
330
19A
100
AcDbEntity
  8
0
  6
Continuous
 62
     7
370
    25
100
AcDbLine
 10
-8.8686675449
 20
-6.3151350981
 30
0.0
 11
-8.4019721559
 21
-5.8596260913
 31
0.0
  0
LINE
  5
1D8
330
19A
100
AcDbEntity
  8
0
  6
Continuous
 62
     7
370
    25
100
AcDbLine
 10
-8.8686675449
 20
9.9710690835
 30
0.0
 11
-8.8686675449
 21
-6.3151350981
 31
0.0
  0
LINE
  5
1D9
330
19A
100
AcDbEntity
  8
0
  6
Continuous
 62
     7
370
    25
100
AcDbLine
 10
-8.8686675449
 20
14.2570010104
 30
0.0
 11
-8.4019721619
 21
14.7125100114
 31
0.0
  0
LINE
  5
1DA
330
19A
100
AcDbEntity
  8
0
  6
Continuous
 62
     7
370
    25
100
AcDbLine
 10
-8.4019721559
 20
14.7125100172
 30
0.0
 11
7.935276767
 21
10.2723958249
 31
0.0
  0
LINE
  5
1DB
330
19A
100
AcDbEntity
  8
0
  6
Continuous
 62
     7
370
    25
100
AcDbLine
 10
8.8196948887
 20
-11.9796075584
 30
0.0
 11
9.2863902776
 21
-11.5240985516
 31
0.0
  0
LINE
  5
1DC
330
19A
100
AcDbEntity
  8
0
  6
Continuous
 62
     7
370
    25
100
AcDbLine
 10
8.8196948887
 20
-11.9796075584
 30
0.0
 11
8.8196948887
 21
6.0209057564
 31
0.0
  0
LINE
  5
1DD
330
19A
100
AcDbEntity
  8
0
  6
Continuous
 62
     7
370
    25
100
AcDbLine
 10
8.8196948887
 20
6.0209057564
 30
0.0
 11
9.2863902776
 21
6.4764147632
 31
0.0
  0
LINE
  5
1DE
330
19A
100
AcDbEntity
  8
0
  6
Continuous
 62
     7
370
    25
100
AcDbLine
 10
9.2863902776
 20
-11.5240985516
 30
0.0
 11
9.2863902776
 21
6.4764147632
 31
0.0
  0
LINE
  5
1DF
330
19A
100
AcDbEntity
  8
0
  6
Continuous
 62
     7
370
    25
100
AcDbLine
 10
-8.8686675449
 20
-6.3151350981
 30
0.0
 11
7.935276767
 21
-10.8820870971
 31
0.0
  0
LINE
  5
1E0
330
19A
100
AcDbEntity
  8
0
  6
Continuous
 62
     7
370
    25
100
AcDbLine
 10
7.935276767
 20
5.4041170845
 30
0.0
 11
-8.8686675449
 21
9.9710690835
 31
0.0
  0
LINE
  5
1E1
330
19A
100
AcDbEntity
  8
0
  6
Continuous
 62
     7
370
    25
100
AcDbLine
 10
-9.7530856665
 20
11.0685895447
 30
0.0
 11
-9.7530856665
 21
-6.93192377
 31
0.0
  0
LINE
  5
1E2
330
19A
100
AcDbEntity
  8
0
  6
Continuous
 62
     7
370
    25
100
AcDbLine
 10
8.8196948887
 20
6.0209057564
 30
0.0
 11
-9.7530856665
 21
11.0685895447
 31
0.0
  0
LINE
  5
1E3
330
19A
100
AcDbEntity
  8
0
  6
Continuous
 62
     7
370
    25
100
AcDbLine
 10
-9.7530856665
 20
-6.93192377
 30
0.0
 11
8.8196948887
 21
-11.9796075584
 31
0.0
  0
LINE
  5
1E4
330
19A
100
AcDbEntity
  8
0
  6
Continuous
 62
     7
370
    25
100
AcDbLine
 10
7.935276767
 20
-10.8820870971
 30
0.0
 11
7.935276767
 21
5.4041170845
 31
0.0
  0
LINE
  5
1E5
330
19A
100
AcDbEntity
  8
0
  6
Continuous
 62
     7
370
    25
100
AcDbLine
 10
-9.7530856665
 20
11.0685895447
 30
0.0
 11
-9.2863902776
 21
11.5240985516
 31
0.0
  0
LINE
  5
1E6
330
19A
100
AcDbEntity
  8
0
  6
Continuous
 62
     7
370
    25
100
AcDbLine
 10
9.2863902776
 20
6.4764147632
 30
0.0
 11
-9.2863902776
 21
11.5240985516
 31
0.0
  0
LINE
  5
1E7
330
19A
100
AcDbEntity
  8
0
  6
Continuous
 62
     7
370
    25
100
AcDbLine
 10
-8.4019721559
 20
-5.8596260913
 30
0.0
 11
7.935276767
 21
-10.2997402837
 31
0.0
  0
ARC
  5
1E8
330
19A
100
AcDbEntity
  8
0
  6
Continuous
 62
     7
370
    25
100
AcDbCircle
 10
-12.4359747511
 20
13.6727224766
 30
0.0
 40
4.526650688349617
100
AcDbArc
 50
328.7997959304
 51
353.3346256568
  0
VIEWPORT
  5
245
330
19A
100
AcDbEntity
  8
0
100
AcDbViewport
 10
0.0
 20
0.0
 30
0.0
 40
8.4
 41
6.4
 68
     1
 69
     1
 12
1.5853707595
 22
7.9715362956
 13
0.0
 23
0.0
 14
0.5
 24
0.5
 15
0.5
 25
0.5
 16
0.0
 26
0.0
 36
1.0
 17
0.0
 27
0.0
 37
0.0
 42
50.0
 43
0.0
 44
0.0
 45
46.4505073757
 50
0.0
 51
0.0
 72
   100
 90
   557152
  1

281
     0
 71
     1
 74
     0
110
0.0
120
0.0
130
0.0
111
1.0
121
0.0
131
0.0
112
0.0
122
1.0
132
0.0
 79
     0
146
0.0
  0
ENDBLK
  5
19D
330
19A
100
AcDbEntity
  8
0
100
AcDbBlockEnd
  0
BLOCK
  5
1EB
330
1E9
100
AcDbEntity
  8
0
100
AcDbBlockBegin
  2
*Paper_Space7
 70
     0
 10
0.0
 20
0.0
 30
0.0
  3
*Paper_Space7
  1

  0
LINE
  5
1ED
330
1E9
100
AcDbEntity
  8
0
  6
Continuous
 62
     7
100
AcDbLine
 10
0.0
 20
0.0
 30
0.0
 11
0.2195612152
 21
-0.027662113
 31
0.0
  0
LINE
  5
1EE
330
1E9
100
AcDbEntity
  8
0
  6
Continuous
 62
     7
100
AcDbLine
 10
0.0
 20
0.0
 30
0.0
 11
0.0
 21
0.442593808
 31
0.0
  0
POINT
  5
1EF
330
1E9
100
AcDbEntity
  8
0
  6
Continuous
 62
     7
100
AcDbPoint
 10
0.0
 20
0.0
 30
0.0
  0
LWPOLYLINE
  5
1FF
330
1E9
100
AcDbEntity
  8
0
  6
Continuous
 62
     7
370
    25
100
AcDbPolyline
 90
      117
 70
   128
 43
0.0
 10
9.8218506406
 20
-10.156590718
 10
9.9644120121
 20
-10.0044554061
 10
10.1671841043
 20
-9.775941529
 10
10.3693989791
 20
-9.5337815519
 10
10.5709180484
 20
-9.2781414393
 10
10.7716032013
 20
-9.0091963942
 10
10.971316898
 20
-8.7271307379
 10
11.1699222648
 20
-8.4321377842
 10
11.3672831876
 20
-8.1244197067
 10
11.5632644049
 20
-7.8041873998
 10
11.7577316012
 20
-7.4716603347
 10
11.9505514981
 20
-7.127066409
 10
12.1415919467
 20
-6.7706417901
 10
12.3307220174
 20
-6.4026307536
 10
12.5178120898
 20
-6.023285516
 10
12.7027339417
 20
-5.6328660614
 10
12.885360837
 20
-5.2316399639
 10
13.0655676123
 20
-4.8198822037
 10
13.2432307629
 20
-4.3978749792
 10
13.4182285273
 20
-3.965907513
 10
13.5904409708
 20
-3.5242758539
 10
13.7597500676
 20
-3.0732826743
 10
13.9260397817
 20
-2.6132370624
 10
14.0891961465
 20
-2.1444543105
 10
14.2491073427
 20
-1.6672556988
 10
14.4056637751
 20
-1.1819682754
 10
14.5587581479
 20
-0.6889246321
 10
14.7082855377
 20
-0.1884626764
 10
14.854143466
 20
0.3190746001
 10
14.996231969
 20
0.8333393567
 10
15.1344536664
 20
1.353979142
 10
15.2687138279
 20
1.8806371356
 10
15.3989204384
 20
2.4129523923
 10
15.5249842606
 20
2.9505600899
 10
15.6468188968
 20
3.4930917788
 10
15.7643408476
 20
4.040175635
 10
15.8774695693
 20
4.5914367146
 10
15.9861275291
 20
5.1464972107
 10
16.0902402583
 20
5.7049767125
 10
16.1897364033
 20
6.2664924662
 10
16.2845477743
 20
6.8306596368
 10
16.3746093924
 20
7.3970915725
 10
16.4598595338
 20
7.9654000689
 10
16.5402397724
 20
8.5351956359
 10
16.6156950195
 20
9.1060877641
 10
16.6861735619
 20
9.6776851925
 10
16.7516270971
 20
10.2495961767
 10
16.8120107666
 20
10.8214287577
 10
16.8672831863
 20
11.3927910297
 10
16.9174064754
 20
11.9632914098
 10
16.9623462818
 20
12.5325389054
 10
17.002071806
 20
13.1001433828
 10
17.0365558221
 20
13.6657158341
 10
17.0657746966
 20
14.2288686444
 10
17.0897084043
 20
14.7892158567
 10
17.1083405421
 20
15.3463734371
 10
17.1216583406
 20
15.8999595376
 10
17.1296526723
 20
16.4495947579
 10
17.1323180585
 20
16.9949024056
 10
17.1296526723
 20
17.5355087539
 10
17.1216583406
 20
18.0710432984
 10
17.1083405421
 20
18.6011390104
 10
17.0897084043
 20
19.1254325887
 10
17.0657746966
 20
19.6435647088
 10
17.0365558221
 20
20.1551802687
 10
17.002071806
 20
20.6599286328
 10
16.9623462818
 20
21.1574638716
 10
16.9174064754
 20
21.6474449995
 10
16.8672831863
 20
22.1295362077
 10
16.8120107666
 20
22.6034070951
 10
16.7516270971
 20
23.0687328943
 10
16.6861735619
 20
23.5251946941
 10
16.6156950195
 20
23.9724796585
 10
16.5402397724
 20
24.4102812407
 10
16.4598595338
 20
24.8382993933
 10
16.3746093924
 20
25.2562407742
 10
16.2845477743
 20
25.6638189471
 10
16.1897364033
 20
26.0607545783
 10
16.0902402583
 20
26.4467756279
 10
15.9861275291
 20
26.8216175365
 10
15.8774695693
 20
27.1850234061
 10
15.7643408476
 20
27.5367441765
 10
15.6468188968
 20
27.8765387958
 10
15.5249842606
 20
28.2041743858
 10
15.3989204384
 20
28.5194264014
 10
15.2687138279
 20
28.8220787845
 10
15.1344536664
 20
29.1119241125
 10
14.996231969
 20
29.3887637398
 10
14.854143466
 20
29.6524079343
 10
14.7082855377
 20
29.9026760074
 10
14.5587581479
 20
30.139396438
 10
14.4056637751
 20
30.3624069897
 10
14.2491073427
 20
30.5715548222
 10
14.0891961465
 20
30.7666965959
 10
13.9260397817
 20
30.9476985705
 10
13.7597500676
 20
31.1144366963
 10
13.5904409708
 20
31.2667966993
 10
13.4182285273
 20
31.4046741595
 10
13.2432307629
 20
31.5279745827
 10
13.0655676123
 20
31.6366134648
 10
12.885360837
 20
31.7305163502
 10
12.7027339417
 20
31.8096188826
 10
12.5178120898
 20
31.8738668491
 10
12.3307220174
 20
31.9232162172
 10
12.1415919467
 20
31.9576331654
 10
11.9505514981
 20
31.9770941061
 10
11.7577316012
 20
31.9815857017
 10
11.5632644049
 20
31.9711048738
 10
11.3672831876
 20
31.9456588055
 10
11.1699222648
 20
31.9052649363
 10
10.971316898
 20
31.8499509502
 10
10.7716032013
 20
31.7797547564
 10
10.5709180484
 20
31.6947244641
 10
10.3693989791
 20
31.5949183487
 10
10.1671841043
 20
31.4804048124
 10
9.9644120121
 20
31.351262337
 10
9.8218506406
 20
31.2519430252
  0
LWPOLYLINE
  5
200
330
1E9
100
AcDbEntity
  8
0
  6
Continuous
 62
     7
370
    25
100
AcDbPolyline
 90
       25
 70
   128
 43
0.0
 10
9.65010025
 20
8.6836965857
 10
9.6989958691
 20
8.7931572307
 10
9.7501054357
 20
8.9221500536
 10
9.7983620873
 20
9.059882909
 10
9.8434181335
 20
9.2053634285
 10
9.8849489446
 20
9.3575434216
 10
9.92265529
 20
9.515326428
 10
9.9562654948
 20
9.6775756175
 10
9.9855373965
 20
9.8431219809
 10
10.0102600905
 20
10.010772753
 10
10.0302554492
 20
10.1793200061
 10
10.0453794055
 20
10.3475493533
 10
10.0555229911
 20
10.5142486984
 10
10.0606131212
 20
10.6782169687
 10
10.0606131212
 20
10.8382727692
 10
10.0555229911
 20
10.993262894
 10
10.0453794055
 20
11.1420706358
 10
10.0302554492
 20
11.2836238315
 10
10.0102600905
 20
11.4169025869
 10
9.9855373965
 20
11.5409466256
 10
9.9562654948
 20
11.6548622075
 10
9.92265529
 20
11.7578285682
 10
9.8849489446
 20
11.8491038327
 10
9.8434181335
 20
11.9280303606
 10
9.8218506406
 20
11.9618897157
  0
LWPOLYLINE
  5
201
330
1E9
100
AcDbEntity
  8
0
  6
Continuous
 62
     7
370
    25
100
AcDbPolyline
 90
       13
 70
   128
 43
0.0
 10
-6.6041434686
 20
34.3196681172
 10
-6.7577354364
 20
34.334116709
 10
-6.9505553333
 20
34.3386083045
 10
-7.1450225295
 20
34.3281274766
 10
-7.3410037469
 20
34.3026814084
 10
-7.5383646696
 20
34.2622875392
 10
-7.7369700365
 20
34.206973553
 10
-7.9366837332
 20
34.1367773593
 10
-8.1373688861
 20
34.051747067
 10
-8.3388879554
 20
33.9519409516
 10
-8.5411028302
 20
33.8374274153
 10
-8.7438749224
 20
33.7082849399
 10
-8.8417317819
 20
33.6408654328
  0
SPLINE
  5
202
330
1E9
100
AcDbEntity
  8
0
  6
Continuous
 62
     7
370
    25
100
AcDbSpline
210
0.0
220
0.0
230
1.0
 70
     8
 71
     3
 72
    37
 73
    33
 74
     0
 42
0.00000001
 43
0.00000001
 40
0.0
 40
0.0
 40
0.0
 40
0.0
 40
0.0145000376280878
 40
0.0291570833961878
 40
0.0439708648118361
 40
0.0589410110282538
 40
0.0740669738910548
 40
0.0893467682097158
 40
0.1047788676510637
 40
0.1334722256136611
 40
0.1626977947338712
 40
0.192460626426082
 40
0.2331417246425005
 40
0.2747464057835889
 40
0.3173090433864427
 40
0.3608435437060433
 40
0.3962994538150496
 40
0.43230370733672
 40
0.4688708720565393
 40
0.5060489641542268
 40
0.5438215972321622
 40
0.5813607714927855
 40
0.619336406991368
 40
0.6577706949137543
 40
0.696720298793239
 40
0.7408202204736425
 40
0.7853028856037441
 40
0.8301515892520367
 40
0.8754234505044901
 40
0.9212126464256045
 40
0.9674349585791949
 40
1.0
 40
1.0
 40
1.0
 40
1.0
 10
-8.886436293884412
 20
-7.837100158944946
 30
0.0
 10
-8.846617732244427
 20
-7.801501657323795
 30
0.0
 10
-8.766549448821202
 20
-7.729919189252347
 30
0.0
 10
-8.64583094856127
 20
-7.615554123166723
 30
0.0
 10
-8.523883328593103
 20
-7.495195455857665
 30
0.0
 10
-8.40074373672192
 20
-7.368247537886226
 30
0.0
 10
-8.276456173274088
 20
-7.234714220856121
 30
0.0
 10
-8.151069292078938
 20
-7.09444659791944
 30
0.0
 10
-7.988833455140378
 20
-6.905690694391507
 30
0.0
 10
-7.789048561358859
 20
-6.660316927117867
 30
0.0
 10
-7.551323181337807
 20
-6.34803297090079
 30
0.0
 10
-7.282634182494882
 20
-5.971427718988029
 30
0.0
 10
-6.982987326669705
 20
-5.519527981379238
 30
0.0
 10
-6.652934208512623
 20
-4.979931031348386
 30
0.0
 10
-6.320033716624801
 20
-4.391322278746183
 30
0.0
 10
-6.008411594587325
 20
-3.796545897084158
 30
0.0
 10
-5.718777947874084
 20
-3.205085588416108
 30
0.0
 10
-5.451467214855078
 20
-2.625850015286716
 30
0.0
 10
-5.185236136160093
 20
-2.013947552053003
 30
0.0
 10
-4.920682153050984
 20
-1.368870247475795
 30
0.0
 10
-4.660370402980114
 20
-0.6953628727398999
 30
0.0
 10
-4.405287649665179
 20
0.0048840348395965
 30
0.0
 10
-4.156253368196887
 20
0.7301312807798976
 30
0.0
 10
-3.912259023805827
 20
1.484469335701228
 30
0.0
 10
-3.664477911663401
 20
2.299042865987429
 30
0.0
 10
-3.415177288743738
 20
3.175324439545348
 30
0.0
 10
-3.167033644205137
 20
4.113613571864332
 30
0.0
 10
-2.930193694414255
 20
5.079721249636371
 30
0.0
 10
-2.705110703525493
 20
6.072675731652462
 30
0.0
 10
-2.493448731035558
 20
7.091580554880335
 30
0.0
 10
-2.313919629882786
 20
8.027211493960744
 30
0.0
 10
-2.212111428144025
 20
8.626179427966711
 30
0.0
 10
-2.170031219123297
 20
8.873749814529072
 30
0.0
  0
SPLINE
  5
203
330
1E9
100
AcDbEntity
  8
0
  6
Continuous
 62
     7
370
    25
100
AcDbSpline
210
0.0
220
0.0
230
1.0
 70
     8
 71
     3
 72
    31
 73
    27
 74
     0
 42
0.00000001
 43
0.00000001
 40
0.0
 40
0.0
 40
0.0
 40
0.0
 40
0.0090689849492137
 40
0.054841461713082
 40
0.1006221754199334
 40
0.146481054556759
 40
0.1923097665208822
 40
0.2369822683587755
 40
0.281385961462666
 40
0.3255977356379668
 40
0.369666970324648
 40
0.4170133703596368
 40
0.4637962763922656
 40
0.5100898057754971
 40
0.5559723744743122
 40
0.6014786346105833
 40
0.6464604730409769
 40
0.6882549573978871
 40
0.7295223948353764
 40
0.770302601677987
 40
0.8106050673912718
 40
0.8503379609064138
 40
0.8894324391727855
 40
0.9279413681866753
 40
0.9658876852417949
 40
1.0
 40
1.0
 40
1.0
 40
1.0
 10
-1.513083659145757
 20
14.02414281131695
 30
0.0
 10
-1.506823863897266
 20
14.09173714925632
 30
0.0
 10
-1.468969978002185
 20
14.50048987261862
 30
0.0
 10
-1.416105504908767
 20
15.24690456802628
 30
0.0
 10
-1.355470806314814
 20
16.26084385800662
 30
0.0
 10
-1.313733435019412
 20
17.26606898436487
 30
0.0
 10
-1.289351842276919
 20
18.25215416572578
 30
0.0
 10
-1.282396017024763
 20
19.21459722221345
 30
0.0
 10
-1.292025821974137
 20
20.15075388104736
 30
0.0
 10
-1.317897395542023
 20
21.06613070839566
 30
0.0
 10
-1.360972203191934
 20
21.98284121796375
 30
0.0
 10
-1.422355418867685
 20
22.89481673061402
 30
0.0
 10
-1.502863660054602
 20
23.79602402999589
 30
0.0
 10
-1.600018901335293
 20
24.66090866474492
 30
0.0
 10
-1.713161923028335
 20
25.48951440943457
 30
0.0
 10
-1.841641939369812
 20
26.28034899388008
 30
0.0
 10
-1.981766180799511
 20
27.0170135192077
 30
0.0
 10
-2.131487321790045
 20
27.70024280836241
 30
0.0
 10
-2.289007943103476
 20
28.3323111368961
 30
0.0
 10
-2.456744150764179
 20
28.92756418008726
 30
0.0
 10
-2.633931989834835
 20
29.48570841732565
 30
0.0
 10
-2.819607705211215
 20
30.00614993228526
 30
0.0
 10
-3.012735140373152
 20
30.48910143501818
 30
0.0
 10
-3.212769190361251
 20
30.93430141145911
 30
0.0
 10
-3.412243142126341
 20
31.33426778579024
 30
0.0
 10
-3.549100742647695
 20
31.57091485426299
 30
0.0
 10
-3.61388867198462
 20
31.68294278323147
 30
0.0
  0
SPLINE
  5
208
330
1E9
100
AcDbEntity
  8
0
  6
Continuous
 62
     7
370
    25
100
AcDbSpline
210
0.0
220
0.0
230
1.0
 70
     8
 71
     3
 72
    12
 73
     8
 74
     0
 42
0.00000001
 43
0.00000001
 40
0.0
 40
0.0
 40
0.0
 40
0.0
 40
0.1523663766121489
 40
0.3812513184267889
 40
0.5971839608469516
 40
0.8029891735509247
 40
1.0
 40
1.0
 40
1.0
 40
1.0
 10
-8.574651601840701
 20
14.91162349889684
 30
0.0
 10
-8.589791239785152
 20
14.91365239122539
 30
0.0
 10
-8.627673658827762
 20
14.91872908788513
 30
0.0
 10
-8.689244289770876
 20
14.90704035103626
 30
0.0
 10
-8.757218860886004
 20
14.88125783599204
 30
0.0
 10
-8.822675061273566
 20
14.84304301458424
 30
0.0
 10
-8.865494185190972
 20
14.80755419190822
 30
0.0
 10
-8.886436327933177
 20
14.79019718124944
 30
0.0
  0
LWPOLYLINE
  5
209
330
1E9
100
AcDbEntity
  8
0
  6
Continuous
 62
     7
370
    25
100
AcDbPolyline
 90
       17
 70
   128
 43
0.0
 10
-9.0581866845
 20
11.0407191885
 10
-9.0092910654
 20
11.1501798335
 10
-8.9581814988
 20
11.2791726564
 10
-8.9099248472
 20
11.4169055118
 10
-8.8648688009
 20
11.5623860313
 10
-8.8233379899
 20
11.7145660244
 10
-8.7856316444
 20
11.8723490308
 10
-8.7520214397
 20
12.0345982203
 10
-8.722749538
 20
12.2001445838
 10
-8.698026844
 20
12.3677953559
 10
-8.6780314853
 20
12.5363426089
 10
-8.662907529
 20
12.7045719562
 10
-8.6527639434
 20
12.8712713012
 10
-8.6476738133
 20
13.0352395716
 10
-8.6476738133
 20
13.195295372
 10
-8.6527639434
 20
13.3502854968
 10
-8.6599081654
 20
13.4626196141
  0
LINE
  5
217
330
1E9
100
AcDbEntity
  8
0
  6
Continuous
 62
     7
370
    25
100
AcDbLine
 10
12.1041434659
 20
31.9626455143
 30
0.0
 11
-6.6041434686
 21
34.3196681172
 31
0.0
  0
LINE
  5
218
330
1E9
100
AcDbEntity
  8
0
  6
Continuous
 62
     7
370
    25
100
AcDbLine
 10
8.5328829034
 20
12.7584699927
 30
0.0
 11
-8.5743882589
 21
14.9137835681
 31
0.0
  0
LINE
  5
219
330
1E9
100
AcDbEntity
  8
0
  6
Continuous
 62
     7
370
    25
100
AcDbLine
 10
9.4682972501
 20
11.1786804131
 30
0.0
 11
9.8218506406
 21
11.4904851952
 31
0.0
  0
LINE
  5
21A
330
1E9
100
AcDbEntity
  8
0
  6
Continuous
 62
     7
370
    25
100
AcDbLine
 10
9.4682972501
 20
11.1786804131
 30
0.0
 11
9.4682972501
 21
30.9776702869
 31
0.0
  0
LINE
  5
21B
330
1E9
100
AcDbEntity
  8
0
  6
Continuous
 62
     7
370
    25
100
AcDbLine
 10
9.4682972501
 20
30.9776702869
 30
0.0
 11
9.8218506406
 21
31.2894750691
 31
0.0
  0
LINE
  5
21C
330
1E9
100
AcDbEntity
  8
0
  6
Continuous
 62
     7
370
    25
100
AcDbLine
 10
9.8218506406
 20
11.4904851952
 30
0.0
 11
9.8218506406
 21
31.2894750691
 31
0.0
  0
LINE
  5
21D
330
1E9
100
AcDbEntity
  8
0
  6
Continuous
 62
     7
370
    25
100
AcDbLine
 10
-9.2399896844
 20
32.3917648843
 30
0.0
 11
-9.2399896844
 21
14.4786310214
 31
0.0
  0
LINE
  5
21E
330
1E9
100
AcDbEntity
  8
0
  6
Continuous
 62
     7
370
    25
100
AcDbLine
 10
-9.2399896844
 20
14.4786310214
 30
0.0
 11
8.5328829034
 21
12.2394595487
 31
0.0
  0
LINE
  5
21F
330
1E9
100
AcDbEntity
  8
0
  6
Continuous
 62
     7
370
    25
100
AcDbLine
 10
8.5328829034
 20
12.2394595487
 30
0.0
 11
8.5328829034
 21
30.1525934116
 31
0.0
  0
LINE
  5
220
330
1E9
100
AcDbEntity
  8
0
  6
Continuous
 62
     7
370
    25
100
AcDbLine
 10
8.5328829034
 20
30.1525934116
 30
0.0
 11
-9.2399896844
 21
32.3917648843
 31
0.0
  0
LINE
  5
221
330
1E9
100
AcDbEntity
  8
0
  6
Continuous
 62
     7
370
    25
100
AcDbLine
 10
-10.1754040311
 20
33.4525440199
 30
0.0
 11
-10.1754040311
 21
13.6535541461
 31
0.0
  0
LINE
  5
222
330
1E9
100
AcDbEntity
  8
0
  6
Continuous
 62
     7
370
    25
100
AcDbLine
 10
9.4682972501
 20
30.9776702869
 30
0.0
 11
-10.1754040311
 21
33.4525440199
 31
0.0
  0
LINE
  5
223
330
1E9
100
AcDbEntity
  8
0
  6
Continuous
 62
     7
370
    25
100
AcDbLine
 10
-10.1754040311
 20
13.6535541461
 30
0.0
 11
9.4682972501
 21
11.1786804131
 31
0.0
  0
LINE
  5
224
330
1E9
100
AcDbEntity
  8
0
  6
Continuous
 62
     7
370
    25
100
AcDbLine
 10
-10.1754040311
 20
33.4525440199
 30
0.0
 11
-9.8218506406
 21
33.764348802
 31
0.0
  0
LINE
  5
225
330
1E9
100
AcDbEntity
  8
0
  6
Continuous
 62
     7
370
    25
100
AcDbLine
 10
9.8218506406
 20
31.2894750691
 30
0.0
 11
-9.8218506406
 21
33.764348802
 31
0.0
  0
LINE
  5
226
330
1E9
100
AcDbEntity
  8
0
  6
Continuous
 62
     7
370
    25
100
AcDbLine
 10
-9.2399896844
 20
14.4786310214
 30
0.0
 11
-8.8864362984
 21
14.7904357996
 31
0.0
  0
LINE
  5
227
330
1E9
100
AcDbEntity
  8
0
  6
Continuous
 62
     7
370
    25
100
AcDbLine
 10
-8.8864362939
 20
14.7904358035
 30
0.0
 11
8.5328829034
 21
12.5958078711
 31
0.0
  0
LINE
  5
228
330
1E9
100
AcDbEntity
  8
0
  6
Continuous
 62
     7
370
    25
100
AcDbLine
 10
-9.2399896844
 20
-8.1489189475
 30
0.0
 11
-8.8864362939
 21
-7.8371141654
 31
0.0
  0
LINE
  5
229
330
1E9
100
AcDbEntity
  8
0
  6
Continuous
 62
     7
370
    25
100
AcDbLine
 10
-9.2399896844
 20
9.7644808559
 30
0.0
 11
-9.2399896844
 21
-8.1489189475
 31
0.0
  0
LINE
  5
22A
330
1E9
100
AcDbEntity
  8
0
  6
Continuous
 62
     7
370
    25
100
AcDbLine
 10
9.4682972501
 20
-11.4487365856
 30
0.0
 11
9.8218506406
 21
-11.1369318034
 31
0.0
  0
LINE
  5
22B
330
1E9
100
AcDbEntity
  8
0
  6
Continuous
 62
     7
370
    25
100
AcDbLine
 10
9.4682972501
 20
-11.4487365856
 30
0.0
 11
9.4682972501
 21
8.3502532882
 31
0.0
  0
LINE
  5
22C
330
1E9
100
AcDbEntity
  8
0
  6
Continuous
 62
     7
370
    25
100
AcDbLine
 10
9.4682972501
 20
8.3502532882
 30
0.0
 11
9.8218506406
 21
8.6620580704
 31
0.0
  0
LINE
  5
22D
330
1E9
100
AcDbEntity
  8
0
  6
Continuous
 62
     7
370
    25
100
AcDbLine
 10
9.8218506406
 20
-11.1369318034
 30
0.0
 11
9.8218506406
 21
8.6620580704
 31
0.0
  0
LINE
  5
22E
330
1E9
100
AcDbEntity
  8
0
  6
Continuous
 62
     7
370
    25
100
AcDbLine
 10
-9.2399896844
 20
-8.1489189475
 30
0.0
 11
8.5328829034
 21
-10.3880904203
 31
0.0
  0
LINE
  5
22F
330
1E9
100
AcDbEntity
  8
0
  6
Continuous
 62
     7
370
    25
100
AcDbLine
 10
8.5328829034
 20
7.5253093832
 30
0.0
 11
-9.2399896844
 21
9.7644808559
 31
0.0
  0
LINE
  5
230
330
1E9
100
AcDbEntity
  8
0
  6
Continuous
 62
     7
370
    25
100
AcDbLine
 10
-10.1754040311
 20
10.8251270212
 30
0.0
 11
-10.1754040311
 21
-8.9738628526
 31
0.0
  0
LINE
  5
231
330
1E9
100
AcDbEntity
  8
0
  6
Continuous
 62
     7
370
    25
100
AcDbLine
 10
9.4682972501
 20
8.3502532882
 30
0.0
 11
-10.1754040311
 21
10.8251270212
 31
0.0
  0
LINE
  5
232
330
1E9
100
AcDbEntity
  8
0
  6
Continuous
 62
     7
370
    25
100
AcDbLine
 10
-10.1754040311
 20
-8.9738628526
 30
0.0
 11
9.4682972501
 21
-11.4487365856
 31
0.0
  0
LINE
  5
233
330
1E9
100
AcDbEntity
  8
0
  6
Continuous
 62
     7
370
    25
100
AcDbLine
 10
8.5328829034
 20
-10.3880904203
 30
0.0
 11
8.5328829034
 21
7.5253093832
 31
0.0
  0
LINE
  5
234
330
1E9
100
AcDbEntity
  8
0
  6
Continuous
 62
     7
370
    25
100
AcDbLine
 10
-10.1754040311
 20
10.8251270212
 30
0.0
 11
-9.8218506406
 21
11.1369318034
 31
0.0
  0
LINE
  5
235
330
1E9
100
AcDbEntity
  8
0
  6
Continuous
 62
     7
370
    25
100
AcDbLine
 10
9.8218506406
 20
8.6620580704
 30
0.0
 11
-9.8218506406
 21
11.1369318034
 31
0.0
  0
LINE
  5
236
330
1E9
100
AcDbEntity
  8
0
  6
Continuous
 62
     7
370
    25
100
AcDbLine
 10
-8.8864362939
 20
-7.8371141654
 30
0.0
 11
8.5328829034
 21
-10.0317420978
 31
0.0
  0
VIEWPORT
  5
247
330
1E9
100
AcDbEntity
  8
0
100
AcDbViewport
 10
0.0
 20
0.0
 30
0.0
 40
8.4
 41
6.4
 68
     1
 69
     1
 12
1.5853707595
 22
7.9715362956
 13
0.0
 23
0.0
 14
0.5
 24
0.5
 15
0.5
 25
0.5
 16
0.0
 26
0.0
 36
1.0
 17
0.0
 27
0.0
 37
0.0
 42
50.0
 43
0.0
 44
0.0
 45
46.4505073757
 50
0.0
 51
0.0
 72
   100
 90
   557152
  1

281
     0
 71
     1
 74
     0
110
0.0
120
0.0
130
0.0
111
1.0
121
0.0
131
0.0
112
0.0
122
1.0
132
0.0
 79
     0
146
0.0
  0
ENDBLK
  5
1EC
330
1E9
100
AcDbEntity
  8
0
100
AcDbBlockEnd
  0
ENDSEC
  0
SECTION
  2
ENTITIES
  0
LINE
  5
63
330
1F
100
AcDbEntity
  8
0
  6
Continuous
 62
     7
100
AcDbLine
 10
0.0
 20
0.0
 30
0.0
 11
0.0876396268
 21
0.1754358786
 31
0.0
  0
LINE
  5
64
330
1F
100
AcDbEntity
  8
0
  6
Continuous
 62
     7
100
AcDbLine
 10
0.0
 20
0.0
 30
0.0
 11
-0.1634566964
 21
0.3107422906
 31
0.0
  0
POINT
  5
65
330
1F
100
AcDbEntity
  8
0
  6
Continuous
 62
     7
100
AcDbPoint
 10
0.0
 20
0.0
 30
0.0
  0
LWPOLYLINE
  5
75
330
1F
100
AcDbEntity
  8
0
  6
Continuous
 62
     7
370
    25
100
AcDbPolyline
 90
      121
 70
   128
 43
0.0
 10
7.5454056032
 20
0.8353185184
 10
7.7082794807
 20
0.8272820756
 10
8.1952510339
 20
0.8097295603
 10
8.6763013025
 20
0.802188494
 10
9.1511005988
 20
0.8046640451
 10
9.6193235192
 20
0.8171545169
 10
10.0806491669
 20
0.839651349
 10
10.5347613724
 20
0.8721391233
 10
10.9813489099
 20
0.9145955742
 10
11.4201057106
 20
0.9669916043
 10
11.8507310725
 20
1.0292913039
 10
12.2729298666
 20
1.1014519759
 10
12.6864127387
 20
1.1834241649
 10
13.0908963085
 20
1.2751516914
 10
13.4861033631
 20
1.3765716899
 10
13.8717630473
 20
1.4876146521
 10
14.2476110492
 20
1.6082044749
 10
14.6133897815
 20
1.7382585118
 10
14.9688485575
 20
1.8776876305
 10
15.3137437637
 20
2.026396273
 10
15.6478390261
 20
2.1842825221
 10
15.9709053724
 20
2.3512381702
 10
16.2827213892
 20
2.5271487944
 10
16.5830733733
 20
2.7118938343
 10
16.8717554784
 20
2.9053466749
 10
17.1485698564
 20
3.1073747333
 10
17.4133267924
 20
3.3178395494
 10
17.6658448352
 20
3.5365968814
 10
17.9059509216
 20
3.7634968037
 10
18.1334804949
 20
3.9983838105
 10
18.3482776177
 20
4.2410969221
 10
18.5501950787
 20
4.4914697949
 10
18.7390944939
 20
4.7493308359
 10
18.9148464009
 20
5.0145033201
 10
19.0773303483
 20
5.2868055114
 10
19.2264349775
 20
5.5660507875
 10
19.3620580999
 20
5.8520477677
 10
19.484106766
 20
6.144600444
 10
19.5924973298
 20
6.4435083152
 10
19.6871555058
 20
6.748566525
 10
19.7680164201
 20
7.0595660016
 10
19.8350246545
 20
7.3762936016
 10
19.8881342851
 20
7.6985322556
 10
19.927308913
 20
8.0260611175
 10
19.9525216901
 20
8.3586557152
 10
19.9637553366
 20
8.696088105
 10
19.9610021537
 20
9.0381270277
 10
19.9442640282
 20
9.3845380668
 10
19.9135524316
 20
9.7350838095
 10
19.868888412
 20
10.0895240094
 10
19.8103025801
 20
10.4476157507
 10
19.7378350875
 20
10.8091136153
 10
19.6515355999
 20
11.1737698506
 10
19.5514632626
 20
11.5413345394
 10
19.4376866603
 20
11.9115557713
 10
19.3102837696
 20
12.2841798151
 10
19.1693419063
 20
12.6589512929
 10
19.0149576647
 20
13.035613355
 10
18.8472368523
 20
13.4139078562
 10
18.6662944163
 20
13.7935755322
 10
18.4722543658
 20
14.1743561778
 10
18.265249686
 20
14.555988825
 10
18.0454222477
 20
14.9382119217
 10
17.8129227096
 20
15.3207635114
 10
17.5679104153
 20
15.7033814124
 10
17.3105532839
 20
16.0858033973
 10
17.0410276952
 20
16.4677673734
 10
16.7595183686
 20
16.8490115615
 10
16.4662182364
 20
17.229274676
 10
16.161328312
 20
17.6082961035
 10
15.8450575517
 20
17.9858160817
 10
15.5176227116
 20
18.3615758772
 10
15.1792481993
 20
18.735317963
 10
14.8301659197
 20
19.1067861949
 10
14.4706151163
 20
19.4757259873
 10
14.1008422074
 20
19.8418844871
 10
13.7211006168
 20
20.2050107477
 10
13.3316506005
 20
20.5648559004
 10
12.932759068
 20
20.9211733254
 10
12.5246993996
 20
21.2737188205
 10
12.1077512592
 20
21.6222507686
 10
11.682200402
 20
21.9665303033
 10
11.2483384794
 20
22.3063214726
 10
10.8064628387
 20
22.6413914007
 10
10.3568763194
 20
22.9715104473
 10
9.8998870457
 20
23.2964523654
 10
9.435808215
 20
23.615994456
 10
8.964957884
 20
23.9299177208
 10
8.4876587499
 20
24.2380070126
 10
8.0042379296
 20
24.5400511824
 10
7.5150267357
 20
24.8358432241
 10
7.0203604491
 20
25.1251804167
 10
6.5205780894
 20
25.4078644629
 10
6.0160221823
 20
25.6837016253
 10
5.5070385254
 20
25.9525028587
 10
4.9939759505
 20
26.2140839402
 10
4.4771860852
 20
26.4682655953
 10
3.9570231115
 20
26.7148736205
 10
3.4338435229
 20
26.9537390031
 10
2.9080058808
 20
27.1846980365
 10
2.3798705679
 20
27.407592433
 10
1.8497995418
 20
27.622269432
 10
1.3181560867
 20
27.8285819046
 10
0.7853045646
 20
28.0263884544
 10
0.2516101651
 20
28.2155535147
 10
-0.2825613443
 20
28.3959474413
 10
-0.8168438689
 20
28.5674466012
 10
-1.3508712384
 20
28.7299334575
 10
-1.884277457
 20
28.8832966497
 10
-2.4166969547
 20
29.0274310703
 10
-2.9477648378
 20
29.1622379369
 10
-3.4771171389
 20
29.2876248596
 10
-4.0043910664
 20
29.4035059043
 10
-4.529225253
 20
29.5098016521
 10
-5.0512600037
 20
29.6064392532
 10
-5.5701375419
 20
29.6933524769
 10
-6.0855022549
 20
29.7704817573
 10
-6.5970009373
 20
29.8377742338
 10
-7.1042830336
 20
29.8951837875
 10
-7.607000878
 20
29.9426710728
 10
-7.7061303549
 20
29.9509070147
  0
LWPOLYLINE
  5
76
330
1F
100
AcDbEntity
  8
0
  6
Continuous
 62
     7
370
    25
100
AcDbPolyline
 90
       34
 70
   128
 43
0.0
 10
0.6300258233
 20
14.103307481
 10
0.662701533
 20
14.1078788185
 10
0.7849670308
 20
14.131612055
 10
0.8983738678
 20
14.1646102789
 10
1.0021049453
 20
14.2066357372
 10
1.0954128785
 20
14.2573856356
 10
1.1776253815
 20
14.3164943198
 10
1.2481501113
 20
14.3835359105
 10
1.3064789357
 20
14.4580273714
 10
1.3521915942
 20
14.5394319899
 10
1.384958726
 20
14.6271632439
 10
1.4045442432
 20
14.7205890275
 10
1.4108070317
 20
14.819036206
 10
1.4037019679
 20
14.9217954651
 10
1.3832802439
 20
15.028126422
 10
1.3496889989
 20
15.1372629598
 10
1.3031702584
 20
15.2484187472
 10
1.2440591911
 20
15.3607929041
 10
1.1727816936
 20
15.4735757723
 10
1.0898513217
 20
15.5859547486
 10
0.9958655909
 20
15.6971201398
 10
0.8915016704
 20
15.8062709968
 10
0.7775115047
 20
15.9126208851
 10
0.6547163955
 20
16.0154035514
 10
0.5240010844
 20
16.1138784442
 10
0.3863073782
 20
16.2073360497
 10
0.2426273633
 20
16.2951030036
 10
0.0939962573
 20
16.376546943
 10
-0.0585150491
 20
16.4510810625
 10
-0.2138077085
 20
16.5181683421
 10
-0.3707628337
 20
16.5773254164
 10
-0.5282495595
 20
16.6281260572
 10
-0.6851331904
 20
16.6702042448
 10
-0.8222480613
 20
16.6998625354
  0
LWPOLYLINE
  5
77
330
1F
100
AcDbEntity
  8
0
  6
Continuous
 62
     7
370
    25
100
AcDbPolyline
 90
       37
 70
   128
 43
0.0
 10
0.077842244
 20
-14.1131538359
 10
0.2407161215
 20
-14.1211902787
 10
0.7276876746
 20
-14.138742794
 10
1.2087379433
 20
-14.1462838603
 10
1.6835372396
 20
-14.1438083092
 10
2.1517601599
 20
-14.1313178374
 10
2.6130858076
 20
-14.1088210053
 10
3.0671980132
 20
-14.076333231
 10
3.5137855507
 20
-14.03387678
 10
3.9525423514
 20
-13.98148075
 10
4.3831677133
 20
-13.9191810504
 10
4.8053665073
 20
-13.8470203784
 10
5.2188493795
 20
-13.7650481894
 10
5.6233329493
 20
-13.6733206629
 10
6.0185400039
 20
-13.5719006644
 10
6.4041996881
 20
-13.4608577021
 10
6.78004769
 20
-13.3402678794
 10
7.1458264222
 20
-13.2102138425
 10
7.5012851983
 20
-13.0707847238
 10
7.8461804045
 20
-12.9220760813
 10
8.1802756668
 20
-12.7641898322
 10
8.5033420132
 20
-12.5972341841
 10
8.8151580299
 20
-12.4213235598
 10
9.115510014
 20
-12.2365785199
 10
9.4041921192
 20
-12.0431256794
 10
9.6810064972
 20
-11.841097621
 10
9.9457634331
 20
-11.6306328048
 10
10.198281476
 20
-11.4118754729
 10
10.4383875624
 20
-11.1849755506
 10
10.6659171357
 20
-10.9500885438
 10
10.8807142585
 20
-10.7073754322
 10
11.0826317195
 20
-10.4570025594
 10
11.2715311346
 20
-10.1991415183
 10
11.4472830417
 20
-9.9339690342
 10
11.609766989
 20
-9.6616668429
 10
11.7588716183
 20
-9.3824215667
 10
11.7688029444
 20
-9.3626237932
  0
SPLINE
  5
78
330
1F
100
AcDbEntity
  8
0
  6
Continuous
 62
     7
370
    25
100
AcDbSpline
210
0.0
220
0.0
230
1.0
 70
     8
 71
     3
 72
    10
 73
     6
 74
     0
 42
0.00000001
 43
0.00000001
 40
0.0
 40
0.0
 40
0.0
 40
0.0
 40
0.3304761809017221
 40
0.6957970152187621
 40
1.0
 40
1.0
 40
1.0
 40
1.0
 10
1.720478002571506
 20
8.994908398388183
 30
0.0
 10
1.508694234890565
 20
9.134860481721327
 30
0.0
 10
1.062796702965265
 20
9.429520876280309
 30
0.0
 10
0.4063640161136693
 20
9.838573552704064
 30
0.0
 10
-0.0420541636585552
 20
10.10198961054659
 30
0.0
 10
-0.245796203636457
 20
10.22167459971236
 30
0.0
  0
SPLINE
  5
79
330
1F
100
AcDbEntity
  8
0
  6
Continuous
 62
     7
370
    25
100
AcDbSpline
210
0.0
220
0.0
230
1.0
 70
     8
 71
     3
 72
    23
 73
    19
 74
     0
 42
0.00000001
 43
0.00000001
 40
0.0
 40
0.0
 40
0.0
 40
0.0
 40
0.0153038063578087
 40
0.0919983245099221
 40
0.1670393553871328
 40
0.2404241242222047
 40
0.3121706689100819
 40
0.3811338768317362
 40
0.4486075508519258
 40
0.51457201134295
 40
0.5790192584192655
 40
0.6433617972784306
 40
0.7062945912552485
 40
0.7678010465583276
 40
0.82786730543485
 40
0.8866190130314678
 40
0.9442784767431255
 40
1.0
 40
1.0
 40
1.0
 40
1.0
 10
-4.546139477344139
 20
12.38229935570713
 30
0.0
 10
-4.600718030316085
 20
12.40620469760202
 30
0.0
 10
-4.928815191910997
 20
12.54991086780232
 30
0.0
 10
-5.530004932329826
 20
12.79107160854414
 30
0.0
 10
-6.342017634192166
 20
13.10246733118167
 30
0.0
 10
-7.138902487274925
 20
13.38549504298471
 30
0.0
 10
-7.91455337881718
 20
13.64185633968852
 30
0.0
 10
-8.668527262224334
 20
13.87246058299921
 30
0.0
 10
-9.400254860109053
 20
14.07889516916671
 30
0.0
 10
-10.11346414528661
 20
14.26343818369274
 30
0.0
 10
-10.81237649372529
 20
14.42818457548807
 30
0.0
 10
-11.49663494064871
 20
14.57375713548755
 30
0.0
 10
-12.16591052138178
 20
14.7007836439663
 30
0.0
 10
-12.81496755307406
 20
14.80918044338383
 30
0.0
 10
-13.44382768366695
 20
14.90004209346146
 30
0.0
 10
-14.05318702754975
 20
14.97410282415696
 30
0.0
 10
-14.64179212025961
 20
15.03332712123215
 30
0.0
 10
-15.02380302765481
 20
15.06085935169214
 30
0.0
 10
-15.21154376117576
 20
15.0743901725194
 30
0.0
  0
SPLINE
  5
7B
330
1F
100
AcDbEntity
  8
0
  6
Continuous
 62
     7
370
    25
100
AcDbSpline
210
0.0
220
0.0
230
1.0
 70
     8
 71
     3
 72
    25
 73
    21
 74
     0
 42
0.00000001
 43
0.00000001
 40
0.0068346874947919
 40
0.0068346874947919
 40
0.0068346874947919
 40
0.0068346874947919
 40
0.0074819670548317
 40
0.0074819670548317
 40
0.0079165454778308
 40
0.0079165454778308
 40
0.0081338346893303
 40
0.0081338346893303
 40
0.0083511239008299
 40
0.0083511239008299
 40
0.0100894375928264
 40
0.0100894375928264
 40
0.0135660649768194
 40
0.0205193197448053
 40
0.0205193197448053
 40
0.0344258292807772
 40
0.0344258292807772
 40
0.062238848352721
 40
0.062238848352721
 40
0.1178648864966085
 40
0.1178648864966085
 40
0.1178648864966085
 40
0.1178648864966085
 10
-6.854936965891272
 20
-0.8120875072224175
 30
0.0
 10
-6.853722369832486
 20
-0.8121713967330552
 30
0.0
 10
-6.852995111814296
 20
-0.8122207692640128
 30
0.0
 10
-6.852868544853982
 20
-0.8122293335798003
 30
0.0
 10
-6.852938535049516
 20
-0.8122242275538439
 30
0.0
 10
-6.854160987363456
 20
-0.812143298361721
 30
0.0
 10
-6.854881405576799
 20
-0.8120957921178316
 30
0.0
 10
-6.854986495361257
 20
-0.8120888826578588
 30
0.0
 10
-6.854227005222238
 20
-0.8121387130086821
 30
0.0
 10
-6.849881215962413
 20
-0.8124228042710899
 30
0.0
 10
-6.847282038443213
 20
-0.8125869131024752
 30
0.0
 10
-6.837605113766154
 20
-0.8131865199963446
 30
0.0
 10
-6.818235190001937
 20
-0.8143218632585669
 30
0.0
 10
-6.798824519055015
 20
-0.8152618467864996
 30
0.0
 10
-6.759963209257387
 20
-0.8168717772585942
 30
0.0
 10
-6.734005589827818
 20
-0.8175851211840283
 30
0.0
 10
-6.656021124013575
 20
-0.8185699799124412
 30
0.0
 10
-6.603687779683288
 20
-0.8176816989703695
 30
0.0
 10
-6.446545181703957
 20
-0.8097302247756589
 30
0.0
 10
-6.34160689705957
 20
-0.7973150773625428
 30
0.0
 10
-6.239739916587731
 20
-0.7760998131934788
 30
0.0
  0
SPLINE
  5
7C
330
1F
100
AcDbEntity
  8
0
  6
Continuous
 62
     7
370
    25
100
AcDbSpline
210
0.0
220
0.0
230
1.0
 70
     8
 71
     3
 72
    14
 73
    10
 74
     0
 42
0.00000001
 43
0.00000001
 40
0.0
 40
0.0
 40
0.0
 40
0.0
 40
0.0363169901068856
 40
0.199482338173481
 40
0.3709934887793417
 40
0.5473461381879102
 40
0.7321688391833875
 40
0.9473840607716963
 40
1.0
 40
1.0
 40
1.0
 40
1.0
 10
-6.239739916291804
 20
-0.7760998131318462
 30
0.0
 10
-6.22671048427733
 20
-0.7732888964021111
 30
0.0
 10
-6.15514228560033
 20
-0.7578490639708382
 30
0.0
 10
-6.029693892401701
 20
-0.7209132326365301
 30
0.0
 10
-5.874259734799193
 20
-0.654167099161978
 30
0.0
 10
-5.733167724051099
 20
-0.5673968067213883
 30
0.0
 10
-5.608107489144217
 20
-0.4545313637973841
 30
0.0
 10
-5.525515978259661
 20
-0.3550869167045629
 30
0.0
 10
-5.497893149543511
 20
-0.2856090856768301
 30
0.0
 10
-5.492466592481923
 20
-0.2719600340731129
 30
0.0
  0
LINE
  5
8F
330
1F
100
AcDbEntity
  8
0
  6
Continuous
 62
     7
370
    25
100
AcDbLine
 10
11.7688029444
 20
-9.3626237932
 30
0.0
 11
19.2363663037
 21
5.5858485611
 31
0.0
  0
LINE
  5
90
330
1F
100
AcDbEntity
  8
0
  6
Continuous
 62
     7
370
    25
100
AcDbLine
 10
-5.4888002927
 20
-0.2737035992
 30
0.0
 11
0.3976442116
 21
11.5097053529
 31
0.0
  0
LINE
  5
91
330
1F
100
AcDbEntity
  8
0
  6
Continuous
 62
     7
370
    25
100
AcDbLine
 10
-7.7147940487
 20
-0.7555750851
 30
0.0
 11
-1.0991001551
 21
-13.3324588697
 31
0.0
  0
LINE
  5
92
330
1F
100
AcDbEntity
  8
0
  6
Continuous
 62
     7
370
    25
100
AcDbLine
 10
-1.0991001551
 20
-13.3324588697
 30
0.0
 11
5.9950850362
 21
0.8685898669
 31
0.0
  0
LINE
  5
93
330
1F
100
AcDbEntity
  8
0
  6
Continuous
 62
     7
370
    25
100
AcDbLine
 10
5.9950850362
 20
0.8685898669
 30
0.0
 11
-0.6206088574
 21
13.4454736515
 31
0.0
  0
LINE
  5
94
330
1F
100
AcDbEntity
  8
0
  6
Continuous
 62
     7
370
    25
100
AcDbLine
 10
-0.6206088574
 20
13.4454736515
 30
0.0
 11
-7.7147940487
 21
-0.7555750851
 31
0.0
  0
LINE
  5
95
330
1F
100
AcDbEntity
  8
0
  6
Continuous
 62
     7
370
    25
100
AcDbLine
 10
-8.4363609148
 20
-0.84106832
 30
0.0
 11
-1.1242896249
 21
-14.7418128703
 31
0.0
  0
LINE
  5
96
330
1F
100
AcDbEntity
  8
0
  6
Continuous
 62
     7
370
    25
100
AcDbLine
 10
-0.5954193876
 20
14.854827652
 30
0.0
 11
-8.4363609148
 21
-0.84106832
 31
0.0
  0
LINE
  5
97
330
1F
100
AcDbEntity
  8
0
  6
Continuous
 62
     7
370
    25
100
AcDbLine
 10
6.7166519023
 20
0.9540831018
 30
0.0
 11
-0.5954193876
 21
14.854827652
 31
0.0
  0
LINE
  5
98
330
1F
100
AcDbEntity
  8
0
  6
Continuous
 62
     7
370
    25
100
AcDbLine
 10
-1.1242896249
 20
-14.7418128703
 30
0.0
 11
6.7166519023
 21
0.9540831018
 31
0.0
  0
LINE
  5
99
330
1F
100
AcDbEntity
  8
0
  6
Continuous
 62
     7
370
    25
100
AcDbLine
 10
6.7166519023
 20
0.9540831018
 30
0.0
 11
7.5765064086
 21
0.8975757109
 31
0.0
  0
LINE
  5
9A
330
1F
100
AcDbEntity
  8
0
  6
Continuous
 62
     7
370
    25
100
AcDbLine
 10
-0.5954193876
 20
14.854827652
 30
0.0
 11
0.2644351186
 21
14.7983202611
 31
0.0
  0
LINE
  5
9B
330
1F
100
AcDbEntity
  8
0
  6
Continuous
 62
     7
370
    25
100
AcDbLine
 10
7.5765064086
 20
0.8975757109
 30
0.0
 11
0.2644351186
 21
14.7983202611
 31
0.0
  0
LINE
  5
9C
330
1F
100
AcDbEntity
  8
0
  6
Continuous
 62
     7
370
    25
100
AcDbLine
 10
-1.1242896249
 20
-14.7418128703
 30
0.0
 11
-0.2644351186
 21
-14.7983202611
 31
0.0
  0
LINE
  5
9D
330
1F
100
AcDbEntity
  8
0
  6
Continuous
 62
     7
370
    25
100
AcDbLine
 10
-0.2644351186
 20
-14.7983202611
 30
0.0
 11
7.5765064086
 21
0.8975757109
 31
0.0
  0
LINE
  5
9E
330
1F
100
AcDbEntity
  8
0
  6
Continuous
 62
     7
370
    25
100
AcDbLine
 10
-7.7147940487
 20
-0.7555750851
 30
0.0
 11
-6.8549395425
 21
-0.812082476
 31
0.0
  0
LINE
  5
9F
330
1F
100
AcDbEntity
  8
0
  6
Continuous
 62
     7
370
    25
100
AcDbLine
 10
-16.0713978436
 20
15.1308967576
 30
0.0
 11
-9.4558021658
 21
2.5541996882
 31
0.0
  0
LINE
  5
A0
330
1F
100
AcDbEntity
  8
0
  6
Continuous
 62
     7
370
    25
100
AcDbLine
 10
-16.0713978436
 20
15.1308967576
 30
0.0
 11
-15.2115433373
 21
15.0743893667
 31
0.0
  0
LINE
  5
A1
330
1F
100
AcDbEntity
  8
0
  6
Continuous
 62
     7
370
    25
100
AcDbLine
 10
-1.6400010005
 20
16.8406483021
 30
0.0
 11
-0.7801464942
 21
16.7841409112
 31
0.0
  0
LINE
  5
A2
330
1F
100
AcDbEntity
  8
0
  6
Continuous
 62
     7
370
    25
100
AcDbLine
 10
-1.6400010005
 20
16.8406483021
 30
0.0
 11
-8.9520722905
 21
30.7413928523
 31
0.0
  0
LINE
  5
A3
330
1F
100
AcDbEntity
  8
0
  6
Continuous
 62
     7
370
    25
100
AcDbLine
 10
-8.9520722905
 20
30.7413928523
 30
0.0
 11
-8.0922177842
 21
30.6848854615
 31
0.0
  0
LINE
  5
A4
330
1F
100
AcDbEntity
  8
0
  6
Continuous
 62
     7
370
    25
100
AcDbLine
 10
-0.7801464942
 20
16.7841409112
 30
0.0
 11
-8.0922177842
 21
30.6848854615
 31
0.0
  0
LINE
  5
A5
330
1F
100
AcDbEntity
  8
0
  6
Continuous
 62
     7
370
    25
100
AcDbLine
 10
-9.4809425277
 20
1.1447523301
 30
0.0
 11
-8.6210880214
 21
1.0882449392
 31
0.0
  0
LINE
  5
A6
330
1F
100
AcDbEntity
  8
0
  6
Continuous
 62
     7
370
    25
100
AcDbLine
 10
-9.4809425277
 20
1.1447523301
 30
0.0
 11
-1.6400010005
 21
16.8406483021
 31
0.0
  0
LINE
  5
A7
330
1F
100
AcDbEntity
  8
0
  6
Continuous
 62
     7
370
    25
100
AcDbLine
 10
-8.6210880214
 20
1.0882449392
 30
0.0
 11
-0.7801464942
 21
16.7841409112
 31
0.0
  0
LINE
  5
A8
330
1F
100
AcDbEntity
  8
0
  6
Continuous
 62
     7
370
    25
100
AcDbLine
 10
-9.4558021658
 20
2.5541996882
 30
0.0
 11
-2.3616169746
 21
16.7552484248
 31
0.0
  0
LINE
  5
A9
330
1F
100
AcDbEntity
  8
0
  6
Continuous
 62
     7
370
    25
100
AcDbLine
 10
-8.9772126523
 20
29.3319454942
 30
0.0
 11
-16.0713978436
 21
15.1308967576
 31
0.0
  0
LINE
  5
AA
330
1F
100
AcDbEntity
  8
0
  6
Continuous
 62
     7
370
    25
100
AcDbLine
 10
-16.7930138176
 20
15.0454968803
 30
0.0
 11
-9.4809425277
 21
1.1447523301
 31
0.0
  0
LINE
  5
AB
330
1F
100
AcDbEntity
  8
0
  6
Continuous
 62
     7
370
    25
100
AcDbLine
 10
-8.9520722905
 20
30.7413928523
 30
0.0
 11
-16.7930138176
 21
15.0454968803
 31
0.0
  0
LINE
  5
AC
330
1F
100
AcDbEntity
  8
0
  6
Continuous
 62
     7
370
    25
100
AcDbLine
 10
-2.3616169746
 20
16.7552484248
 30
0.0
 11
-8.9772126523
 21
29.3319454942
 31
0.0
  0
LINE
  5
AD
330
1F
100
AcDbEntity
  8
0
  6
Continuous
 62
     7
370
    25
100
AcDbLine
 10
-8.5217124145
 20
28.4660085801
 30
0.0
 11
-15.2115437612
 21
15.0743901725
 31
0.0
  0
LINE
  5
AE
330
1F
100
AcDbEntity
  8
0
  6
Continuous
 62
     7
370
    25
100
AcDbLine
 10
-0.1651081958
 20
12.5795359316
 30
0.0
 11
-6.8549395425
 21
-0.812082476
 31
0.0
  0
LINE
  5
AF
330
1F
100
AcDbEntity
  8
0
  6
Continuous
 62
     7
370
    25
100
AcDbLine
 10
-6.2397399166
 20
-0.7760998132
 30
0.0
 11
0.1412101287
 21
11.9972039752
 31
0.0
  0
ARC
  5
B0
330
1F
100
AcDbEntity
  8
0
  6
Continuous
 62
     7
370
    25
100
AcDbCircle
 10
-8.955671799
 20
-1.5984212673
 30
0.0
 40
3.415348706005627
100
AcDbArc
 50
61.3392792679
 51
78.7575447591
  0
LINE
  5
B1
330
1B
100
AcDbEntity
 67
     1
  8
0
  6
Continuous
 62
     7
100
AcDbLine
 10
0.0
 20
0.0
 30
0.0
 11
0.2347208122
 21
0.0
 31
0.0
  0
LINE
  5
B2
330
1B
100
AcDbEntity
 67
     1
  8
0
  6
Continuous
 62
     7
100
AcDbLine
 10
0.0
 20
0.0
 30
0.0
 11
0.0
 21
0.4694416244
 31
0.0
  0
POINT
  5
B3
330
1B
100
AcDbEntity
 67
     1
  8
0
  6
Continuous
 62
     7
100
AcDbPoint
 10
0.0
 20
0.0
 30
0.0
  0
LINE
  5
C6
330
1B
100
AcDbEntity
 67
     1
  8
0
  6
Continuous
 62
     7
370
    25
100
AcDbLine
 10
10.5
 20
-10.5
 30
0.0
 11
10.5
 21
10.5
 31
0.0
  0
LINE
  5
C7
330
1B
100
AcDbEntity
 67
     1
  8
0
  6
Continuous
 62
     7
370
    25
100
AcDbLine
 10
-10.5
 20
10.5
 30
0.0
 11
-10.5
 21
-10.5
 31
0.0
  0
LINE
  5
C8
330
1B
100
AcDbEntity
 67
     1
  8
0
  6
Continuous
 62
     7
370
    25
100
AcDbLine
 10
10.5
 20
10.5
 30
0.0
 11
-10.5
 21
10.5
 31
0.0
  0
LINE
  5
C9
330
1B
100
AcDbEntity
 67
     1
  8
0
  6
Continuous
 62
     7
370
    25
100
AcDbLine
 10
-10.5
 20
-10.5
 30
0.0
 11
10.5
 21
-10.5
 31
0.0
  0
LINE
  5
CA
330
1B
100
AcDbEntity
 67
     1
  8
0
  6
Continuous
 62
     7
370
    25
100
AcDbLine
 10
-9.5
 20
-9.5000148561
 30
0.0
 11
9.5
 21
-9.5000148561
 31
0.0
  0
LINE
  5
CB
330
1B
100
AcDbEntity
 67
     1
  8
0
  6
Continuous
 62
     7
370
    25
100
AcDbLine
 10
9.5
 20
9.5000148561
 30
0.0
 11
-9.5
 21
9.5000148561
 31
0.0
  0
LINE
  5
CC
330
1B
100
AcDbEntity
 67
     1
  8
0
  6
Continuous
 62
     7
370
    25
100
AcDbLine
 10
-9.5
 20
9.5000148561
 30
0.0
 11
-9.5
 21
-9.5000148561
 31
0.0
  0
LINE
  5
CD
330
1B
100
AcDbEntity
 67
     1
  8
0
  6
Continuous
 62
     7
370
    25
100
AcDbLine
 10
9.5
 20
-9.5000148561
 30
0.0
 11
9.5
 21
9.5000148561
 31
0.0
  0
LINE
  5
CE
330
1B
100
AcDbEntity
 67
     1
  8
0
  6
Continuous
 62
     7
370
    25
100
AcDbLine
 10
-10.5
 20
13.5
 30
0.0
 11
10.5
 21
13.5
 31
0.0
  0
LINE
  5
CF
330
1B
100
AcDbEntity
 67
     1
  8
0
  6
Continuous
 62
     7
370
    25
100
AcDbLine
 10
10.5
 20
13.5
 30
0.0
 11
10.5
 21
34.5
 31
0.0
  0
LINE
  5
D0
330
1B
100
AcDbEntity
 67
     1
  8
0
  6
Continuous
 62
     7
370
    25
100
AcDbLine
 10
-10.5
 20
34.5
 30
0.0
 11
-10.5
 21
13.5
 31
0.0
  0
LINE
  5
D1
330
1B
100
AcDbEntity
 67
     1
  8
0
  6
Continuous
 62
     7
370
    25
100
AcDbLine
 10
10.5
 20
34.5
 30
0.0
 11
-10.5
 21
34.5
 31
0.0
  0
LINE
  5
D2
330
1B
100
AcDbEntity
 67
     1
  8
0
  6
Continuous
 62
     7
370
    25
100
AcDbLine
 10
9.5
 20
33.4998738198
 30
0.0
 11
-9.5
 21
33.4998738198
 31
0.0
  0
LINE
  5
D3
330
1B
100
AcDbEntity
 67
     1
  8
0
  6
Continuous
 62
     7
370
    25
100
AcDbLine
 10
-9.5
 20
33.4998738198
 30
0.0
 11
-9.5
 21
14.5001261802
 31
0.0
  0
LINE
  5
D4
330
1B
100
AcDbEntity
 67
     1
  8
0
  6
Continuous
 62
     7
370
    25
100
AcDbLine
 10
-9.5
 20
14.5001261802
 30
0.0
 11
9.5
 21
14.5001261802
 31
0.0
  0
LINE
  5
D5
330
1B
100
AcDbEntity
 67
     1
  8
0
  6
Continuous
 62
     7
370
    25
100
AcDbLine
 10
9.5
 20
14.5001261802
 30
0.0
 11
9.5
 21
33.4998738198
 31
0.0
  0
LINE
  5
D6
330
1B
100
AcDbEntity
 67
     1
  8
0
  6
Continuous
 62
     7
370
    25
100
AcDbLine
 10
10.0
 20
10.5
 30
0.0
 11
10.0
 21
13.5
 31
0.0
  0
LINE
  5
D7
330
1B
100
AcDbEntity
 67
     1
  8
0
  6
Continuous
 62
     7
370
    25
100
AcDbLine
 10
-10.0
 20
10.5
 30
0.0
 11
-10.0
 21
13.5
 31
0.0
  0
VIEWPORT
  5
237
330
1B
100
AcDbEntity
 67
     1
  8
0
100
AcDbViewport
 10
0.0
 20
0.0
 30
0.0
 40
8.4
 41
6.4
 68
     1
 69
     1
 12
1.5853707595
 22
7.9715362956
 13
0.0
 23
0.0
 14
0.5
 24
0.5
 15
0.5
 25
0.5
 16
0.0
 26
0.0
 36
1.0
 17
0.0
 27
0.0
 37
0.0
 42
50.0
 43
0.0
 44
0.0
 45
46.4505073757
 50
0.0
 51
0.0
 72
   100
 90
   557152
  1

281
     0
 71
     1
 74
     0
110
0.0
120
0.0
130
0.0
111
1.0
121
0.0
131
0.0
112
0.0
122
1.0
132
0.0
 79
     0
146
0.0
  0
ENDSEC
  0
SECTION
  2
OBJECTS
  0
DICTIONARY
  5
C
330
0
100
AcDbDictionary
281
     1
  3
ACAD_GROUP
350
D
  3
ACAD_LAYOUT
350
1A
  3
ACAD_MLINESTYLE
350
17
  3
ACAD_PLOTSETTINGS
350
19
  3
ACAD_PLOTSTYLENAME
350
E
  3
ACAD_SCALELIST
350
47
  3
DWGPROPS
350
249
  0
DICTIONARY
  5
D
102
{ACAD_REACTORS
330
C
102
}
330
C
100
AcDbDictionary
281
     1
  0
DICTIONARY
  5
1A
102
{ACAD_REACTORS
330
C
102
}
330
C
100
AcDbDictionary
281
     1
  3
_Back
350
E7
  3
_Bottom
350
13A
  3
_Dimetric
350
1EA
  3
_Front
350
1E
  3
_Isometric
350
14C
  3
_Left
350
10A
  3
_Right
350
122
  3
_Top
350
26
  3
_Trimetric
350
19B
  3
Model
350
22
  0
DICTIONARY
  5
17
102
{ACAD_REACTORS
330
C
102
}
330
C
100
AcDbDictionary
281
     1
  3
Standard
350
18
  0
DICTIONARY
  5
19
102
{ACAD_REACTORS
330
C
102
}
330
C
100
AcDbDictionary
281
     1
  0
ACDBDICTIONARYWDFLT
  5
E
102
{ACAD_REACTORS
330
C
102
}
330
C
100
AcDbDictionary
281
     1
  3
Normal
350
F
100
AcDbDictionaryWithDefault
340
F
  0
DICTIONARY
  5
47
102
{ACAD_REACTORS
330
C
102
}
330
C
100
AcDbDictionary
281
     1
  3
A0
350
48
  3
A1
350
49
  3
A2
350
4A
  3
A3
350
4B
  3
A4
350
4C
  3
A5
350
4D
  3
A6
350
4E
  3
A7
350
4F
  3
A8
350
50
  3
A9
350
51
  3
B1
350
52
  3
B2
350
53
  3
B3
350
54
  3
B4
350
55
  3
B5
350
56
  3
B6
350
57
  3
B7
350
58
  0
XRECORD
  5
249
102
{ACAD_REACTORS
330
C
102
}
330
C
100
AcDbXrecord
280
     1
  1
DWGPROPS COOKIE
  2

  3

  4

  6

  7

  8
Maddie
  9

300
=
301
=
302
=
303
=
304
=
305
=
306
=
307
=
308
=
309
=
 40
0.0
 41
2461059.55075507
 42
2461059.551082442
  1

 90
        0
  0
LAYOUT
  5
E7
102
{ACAD_REACTORS
330
1A
102
}
330
1A
100
AcDbPlotSettings
  1

  2
none_device
  4
Letter_(8.50_x_11.00_Inches)
  6

 40
6.35
 41
6.35
 42
6.35001
 43
6.35001
 44
215.9
 45
279.4
 46
0.0
 47
0.0
 48
0.0
 49
0.0
140
0.0
141
0.0
142
1.0
143
5.6250002768
 70
   688
 72
     0
 73
     1
 74
     1
  7

 75
     0
147
0.177777769
148
266.7
149
266.7
100
AcDbLayout
  1
_Back
 70
     1
 71
     3
 10
0.0
 20
0.0
 11
0.0
 21
0.0
 12
0.0
 22
0.0
 32
0.0
 14
0.0
 24
0.0
 34
0.0
 15
0.0
 25
0.0
 35
0.0
146
0.0
 13
0.0
 23
0.0
 33
0.0
 16
1.0
 26
0.0
 36
0.0
 17
0.0
 27
1.0
 37
0.0
 76
     0
330
E6
331
23B
  0
LAYOUT
  5
13A
102
{ACAD_REACTORS
330
1A
102
}
330
1A
100
AcDbPlotSettings
  1

  2
none_device
  4
Letter_(8.50_x_11.00_Inches)
  6

 40
6.35
 41
6.35
 42
6.35001
 43
6.35001
 44
215.9
 45
279.4
 46
0.0
 47
0.0
 48
0.0
 49
0.0
140
0.0
141
0.0
142
1.0
143
5.6250002768
 70
   688
 72
     0
 73
     1
 74
     1
  7

 75
     0
147
0.177777769
148
266.7
149
266.7
100
AcDbLayout
  1
_Bottom
 70
     1
 71
     6
 10
0.0
 20
0.0
 11
0.0
 21
0.0
 12
0.0
 22
0.0
 32
0.0
 14
0.0
 24
0.0
 34
0.0
 15
0.0
 25
0.0
 35
0.0
146
0.0
 13
0.0
 23
0.0
 33
0.0
 16
1.0
 26
0.0
 36
0.0
 17
0.0
 27
1.0
 37
0.0
 76
     0
330
139
331
241
  0
LAYOUT
  5
1EA
102
{ACAD_REACTORS
330
1A
102
}
330
1A
100
AcDbPlotSettings
  1

  2
none_device
  4
Letter_(8.50_x_11.00_Inches)
  6

 40
6.35
 41
6.35
 42
6.35001
 43
6.35001
 44
215.9
 45
279.4
 46
0.0
 47
0.0
 48
0.0
 49
0.0
140
0.0
141
0.0
142
1.0
143
5.6250002768
 70
   688
 72
     0
 73
     1
 74
     1
  7

 75
     0
147
0.177777769
148
266.7
149
266.7
100
AcDbLayout
  1
_Dimetric
 70
     1
 71
     9
 10
0.0
 20
0.0
 11
0.0
 21
0.0
 12
0.0
 22
0.0
 32
0.0
 14
0.0
 24
0.0
 34
0.0
 15
0.0
 25
0.0
 35
0.0
146
0.0
 13
0.0
 23
0.0
 33
0.0
 16
1.0
 26
0.0
 36
0.0
 17
0.0
 27
1.0
 37
0.0
 76
     0
330
1E9
331
247
  0
LAYOUT
  5
1E
102
{ACAD_REACTORS
330
1A
102
}
330
1A
100
AcDbPlotSettings
  1

  2
none_device
  4
Letter_(8.50_x_11.00_Inches)
  6

 40
6.35
 41
6.35
 42
6.35001
 43
6.35001
 44
215.9
 45
279.4
 46
0.0
 47
0.0
 48
0.0
 49
0.0
140
0.0
141
0.0
142
1.0
143
5.6250002768
 70
   688
 72
     0
 73
     1
 74
     1
  7

 75
     0
147
0.177777769
148
266.7
149
266.7
100
AcDbLayout
  1
_Front
 70
     1
 71
     1
 10
-11.9062522838
 20
-11.9062500692
 11
49.9687507613
 21
35.9062522838
 12
0.0
 22
0.0
 32
0.0
 14
-10.5
 24
-10.5
 34
0.0
 15
10.5
 25
34.5
 35
0.0
146
0.0
 13
0.0
 23
0.0
 33
0.0
 16
1.0
 26
0.0
 36
0.0
 17
0.0
 27
1.0
 37
0.0
 76
     0
330
1B
331
237
  0
LAYOUT
  5
14C
102
{ACAD_REACTORS
330
1A
102
}
330
1A
100
AcDbPlotSettings
  1

  2
none_device
  4
Letter_(8.50_x_11.00_Inches)
  6

 40
6.35
 41
6.35
 42
6.35001
 43
6.35001
 44
215.9
 45
279.4
 46
0.0
 47
0.0
 48
0.0
 49
0.0
140
0.0
141
0.0
142
1.0
143
5.6250002768
 70
   688
 72
     0
 73
     1
 74
     1
  7

 75
     0
147
0.177777769
148
266.7
149
266.7
100
AcDbLayout
  1
_Isometric
 70
     1
 71
     7
 10
0.0
 20
0.0
 11
0.0
 21
0.0
 12
0.0
 22
0.0
 32
0.0
 14
0.0
 24
0.0
 34
0.0
 15
0.0
 25
0.0
 35
0.0
146
0.0
 13
0.0
 23
0.0
 33
0.0
 16
1.0
 26
0.0
 36
0.0
 17
0.0
 27
1.0
 37
0.0
 76
     0
330
14B
331
243
  0
LAYOUT
  5
10A
102
{ACAD_REACTORS
330
1A
102
}
330
1A
100
AcDbPlotSettings
  1

  2
none_device
  4
Letter_(8.50_x_11.00_Inches)
  6

 40
6.35
 41
6.35
 42
6.35001
 43
6.35001
 44
215.9
 45
279.4
 46
0.0
 47
0.0
 48
0.0
 49
0.0
140
0.0
141
0.0
142
1.0
143
5.6250002768
 70
   688
 72
     0
 73
     1
 74
     1
  7

 75
     0
147
0.177777769
148
266.7
149
266.7
100
AcDbLayout
  1
_Left
 70
     1
 71
     4
 10
0.0
 20
0.0
 11
0.0
 21
0.0
 12
0.0
 22
0.0
 32
0.0
 14
0.0
 24
0.0
 34
0.0
 15
0.0
 25
0.0
 35
0.0
146
0.0
 13
0.0
 23
0.0
 33
0.0
 16
1.0
 26
0.0
 36
0.0
 17
0.0
 27
1.0
 37
0.0
 76
     0
330
109
331
23D
  0
LAYOUT
  5
122
102
{ACAD_REACTORS
330
1A
102
}
330
1A
100
AcDbPlotSettings
  1

  2
none_device
  4
Letter_(8.50_x_11.00_Inches)
  6

 40
6.35
 41
6.35
 42
6.35001
 43
6.35001
 44
215.9
 45
279.4
 46
0.0
 47
0.0
 48
0.0
 49
0.0
140
0.0
141
0.0
142
1.0
143
5.6250002768
 70
   688
 72
     0
 73
     1
 74
     1
  7

 75
     0
147
0.177777769
148
266.7
149
266.7
100
AcDbLayout
  1
_Right
 70
     1
 71
     5
 10
0.0
 20
0.0
 11
0.0
 21
0.0
 12
0.0
 22
0.0
 32
0.0
 14
0.0
 24
0.0
 34
0.0
 15
0.0
 25
0.0
 35
0.0
146
0.0
 13
0.0
 23
0.0
 33
0.0
 16
1.0
 26
0.0
 36
0.0
 17
0.0
 27
1.0
 37
0.0
 76
     0
330
121
331
23F
  0
LAYOUT
  5
26
102
{ACAD_REACTORS
330
1A
102
}
330
1A
100
AcDbPlotSettings
  1

  2
none_device
  4
Letter_(8.50_x_11.00_Inches)
  6

 40
6.35
 41
6.35
 42
6.35001
 43
6.35001
 44
215.9
 45
279.4
 46
0.0
 47
0.0
 48
0.0
 49
0.0
140
0.0
141
0.0
142
1.0
143
5.6250002768
 70
   688
 72
     0
 73
     1
 74
     1
  7

 75
     0
147
0.177777769
148
266.7
149
266.7
100
AcDbLayout
  1
_Top
 70
     1
 71
     2
 10
0.0
 20
0.0
 11
0.0
 21
0.0
 12
0.0
 22
0.0
 32
0.0
 14
0.0
 24
0.0
 34
0.0
 15
0.0
 25
0.0
 35
0.0
146
0.0
 13
0.0
 23
0.0
 33
0.0
 16
1.0
 26
0.0
 36
0.0
 17
0.0
 27
1.0
 37
0.0
 76
     0
330
23
331
239
  0
LAYOUT
  5
19B
102
{ACAD_REACTORS
330
1A
102
}
330
1A
100
AcDbPlotSettings
  1

  2
none_device
  4
Letter_(8.50_x_11.00_Inches)
  6

 40
6.35
 41
6.35
 42
6.35001
 43
6.35001
 44
215.9
 45
279.4
 46
0.0
 47
0.0
 48
0.0
 49
0.0
140
0.0
141
0.0
142
1.0
143
5.6250002768
 70
   688
 72
     0
 73
     1
 74
     1
  7

 75
     0
147
0.177777769
148
266.7
149
266.7
100
AcDbLayout
  1
_Trimetric
 70
     1
 71
     8
 10
0.0
 20
0.0
 11
0.0
 21
0.0
 12
0.0
 22
0.0
 32
0.0
 14
0.0
 24
0.0
 34
0.0
 15
0.0
 25
0.0
 35
0.0
146
0.0
 13
0.0
 23
0.0
 33
0.0
 16
1.0
 26
0.0
 36
0.0
 17
0.0
 27
1.0
 37
0.0
 76
     0
330
19A
331
245
  0
LAYOUT
  5
22
102
{ACAD_REACTORS
330
1A
102
}
330
1A
100
AcDbPlotSettings
  1

  2
none_device
  4
ANSI_A_(11.00_x_8.50_Inches)
  6

 40
6.35
 41
19.05
 42
6.35000508
 43
19.05000254
 44
279.4
 45
215.9
 46
125.9090473895
 47
51.4855307224
 48
0.0
 49
0.0
140
0.0
141
0.0
142
0.1847837728
143
1.0
 70
  1696
 72
     0
 73
     0
 74
     0
  7

 75
     0
147
0.5913241897
148
-39.4088153714
149
0.0
100
AcDbLayout
  1
Model
 70
     1
 71
     0
 10
0.0
 20
0.0
 11
12.0
 21
9.0
 12
0.0
 22
0.0
 32
0.0
 14
-16.7930138176
 24
-14.7983202611
 34
0.0
 15
19.9637553366
 25
30.7413928523
 35
0.0
146
0.0
 13
0.0
 23
0.0
 33
0.0
 16
1.0
 26
0.0
 36
0.0
 17
0.0
 27
1.0
 37
0.0
 76
     0
330
1F
331
29
  0
MLINESTYLE
  5
18
102
{ACAD_REACTORS
330
17
102
}
330
17
100
AcDbMlineStyle
  2
Standard
 70
     0
  3

 62
   256
 51
90.0
 52
90.0
 71
     2
 49
0.5
 62
   256
  6
BYLAYER
 49
-0.5
 62
   256
  6
BYLAYER
  0
ACDBPLACEHOLDER
  5
F
102
{ACAD_REACTORS
330
E
102
}
330
E
  0
SCALE
  5
48
102
{ACAD_REACTORS
330
47
102
}
330
47
100
AcDbScale
 70
     0
300
1:1
140
1.0
141
1.0
290
     1
  0
SCALE
  5
49
102
{ACAD_REACTORS
330
47
102
}
330
47
100
AcDbScale
 70
     0
300
1/128" = 1'-0"
140
0.0078125
141
12.0
290
     0
  0
SCALE
  5
4A
102
{ACAD_REACTORS
330
47
102
}
330
47
100
AcDbScale
 70
     0
300
1/64" = 1'-0"
140
0.015625
141
12.0
290
     0
  0
SCALE
  5
4B
102
{ACAD_REACTORS
330
47
102
}
330
47
100
AcDbScale
 70
     0
300
1/32" = 1'-0"
140
0.03125
141
12.0
290
     0
  0
SCALE
  5
4C
102
{ACAD_REACTORS
330
47
102
}
330
47
100
AcDbScale
 70
     0
300
1/16" = 1'-0"
140
0.0625
141
12.0
290
     0
  0
SCALE
  5
4D
102
{ACAD_REACTORS
330
47
102
}
330
47
100
AcDbScale
 70
     0
300
3/32" = 1'-0"
140
0.09375
141
12.0
290
     0
  0
SCALE
  5
4E
102
{ACAD_REACTORS
330
47
102
}
330
47
100
AcDbScale
 70
     0
300
1/8" = 1'-0"
140
0.125
141
12.0
290
     0
  0
SCALE
  5
4F
102
{ACAD_REACTORS
330
47
102
}
330
47
100
AcDbScale
 70
     0
300
3/16" = 1'-0"
140
0.1875
141
12.0
290
     0
  0
SCALE
  5
50
102
{ACAD_REACTORS
330
47
102
}
330
47
100
AcDbScale
 70
     0
300
1/4" = 1'-0"
140
0.25
141
12.0
290
     0
  0
SCALE
  5
51
102
{ACAD_REACTORS
330
47
102
}
330
47
100
AcDbScale
 70
     0
300
3/8" = 1'-0"
140
0.375
141
12.0
290
     0
  0
SCALE
  5
52
102
{ACAD_REACTORS
330
47
102
}
330
47
100
AcDbScale
 70
     0
300
1/2" = 1'-0"
140
0.5
141
12.0
290
     0
  0
SCALE
  5
53
102
{ACAD_REACTORS
330
47
102
}
330
47
100
AcDbScale
 70
     0
300
3/4" = 1'-0"
140
0.75
141
12.0
290
     0
  0
SCALE
  5
54
102
{ACAD_REACTORS
330
47
102
}
330
47
100
AcDbScale
 70
     0
300
1" = 1'-0"
140
1.0
141
12.0
290
     0
  0
SCALE
  5
55
102
{ACAD_REACTORS
330
47
102
}
330
47
100
AcDbScale
 70
     0
300
1-1/2" = 1'-0"
140
1.5
141
12.0
290
     0
  0
SCALE
  5
56
102
{ACAD_REACTORS
330
47
102
}
330
47
100
AcDbScale
 70
     0
300
3" = 1'-0"
140
3.0
141
12.0
290
     0
  0
SCALE
  5
57
102
{ACAD_REACTORS
330
47
102
}
330
47
100
AcDbScale
 70
     0
300
6" = 1'-0"
140
6.0
141
12.0
290
     0
  0
SCALE
  5
58
102
{ACAD_REACTORS
330
47
102
}
330
47
100
AcDbScale
 70
     0
300
1'-0" = 1'-0"
140
12.0
141
12.0
290
     0
  0
ENDSEC
  0
EOF
